<svg width="12" height="16" viewBox="0 0 12 16" fill="none" xmlns="http://www.w3.org/2000/svg">
<g opacity="0.1">
<path d="M6.23325 14.7463C6.06427 14.69 5.9516 14.521 5.89527 14.352C5.66995 13.9014 5.61364 13.4508 5.55731 13.0001C5.55731 12.7748 5.55731 12.5495 5.50098 12.3242C5.50098 12.2115 5.50098 12.0988 5.50098 11.9862C5.61364 11.6482 5.5573 11.3102 5.61363 10.9723C5.61363 10.6906 5.66996 10.409 5.66996 10.071C5.72629 10.071 5.72629 10.0146 5.78262 10.0146C5.83895 10.0146 5.95161 10.0146 6.00794 10.0146C6.34592 10.2963 6.34592 10.6906 6.34592 11.0849C6.28959 11.4229 6.40224 11.7609 6.5149 12.0988C6.40224 12.5495 6.06427 13.0001 6.34592 13.5071C6.34592 13.6761 6.40225 13.8451 6.40225 14.0141C6.45858 14.2394 6.51491 14.4647 6.40225 14.69C6.34592 14.6337 6.28958 14.69 6.23325 14.7463Z" fill="#535353"/>
<path d="M10.0637 5.79065C9.78205 6.18496 9.44406 6.41028 9.04975 6.69193C8.88076 6.80459 8.65545 6.91725 8.54279 7.14257C8.48646 7.25523 8.3738 7.25523 8.26114 7.25523C8.09215 7.1989 8.03582 7.08623 7.97949 6.91725C7.97949 6.86092 7.97949 6.80459 7.97949 6.69193C8.14848 6.46661 8.43013 6.46661 8.59912 6.29763C8.65545 6.2413 8.71177 6.2413 8.71177 6.18497C8.7681 6.12864 8.82444 6.07231 8.88077 6.01598C8.88077 5.95965 8.9371 5.95965 8.9371 5.90332C8.9371 5.84699 8.9371 5.84698 8.9371 5.79065C8.9371 5.73432 8.88077 5.73433 8.88077 5.678C8.76811 5.56534 8.65545 5.45268 8.59912 5.28369C8.59912 4.94571 8.54278 4.66406 8.99342 4.66406C9.04975 4.66406 9.10609 4.66407 9.16242 4.7204C9.21875 4.7204 9.21874 4.7204 9.27507 4.7204C9.3314 4.7204 9.38774 4.7204 9.44406 4.77673C9.50039 4.77673 9.55672 4.83305 9.61305 4.83305H9.66938C9.83837 4.83305 9.95102 4.77672 10.12 4.83305C10.2327 4.88938 10.289 4.94572 10.289 5.05838C10.289 5.34002 10.2327 5.56534 10.0637 5.79065Z" fill="#707070"/>
<path d="M6.2334 14.7463C6.2334 14.6899 6.2334 14.6336 6.2334 14.5773C6.34606 14.4646 6.34607 14.2956 6.4024 14.183C6.45873 14.1266 6.51505 14.1266 6.57138 14.0703C6.68404 14.0703 6.74037 14.0703 6.85303 14.1266C6.90936 14.183 7.02201 14.2393 7.07834 14.2393C7.13467 14.2956 7.191 14.352 7.30366 14.352C7.35999 14.4083 7.35999 14.4083 7.41632 14.4646C7.41632 14.5209 7.47266 14.5773 7.47266 14.6336C7.52899 14.7463 7.64164 14.8589 7.7543 14.9153C7.97962 15.1406 8.37392 14.9153 8.48658 15.2532C8.20493 15.4222 7.86695 15.4222 7.5853 15.4786C7.24733 15.4786 6.90936 15.4222 6.68405 15.0842C6.57139 14.9716 6.34606 14.8589 6.2334 14.7463Z" fill="#535353"/>
<path d="M10.9089 2.35352C11.0215 2.5225 11.0215 2.74782 11.0215 2.91681C11.0215 3.36745 11.0215 3.87441 10.7962 4.26872C10.5709 4.26872 10.4582 4.43771 10.3456 4.55037C10.2892 4.6067 10.2329 4.6067 10.1766 4.6067C10.1202 4.6067 10.0639 4.6067 9.95126 4.55037C9.72594 4.32505 9.72594 4.0434 9.61328 3.81808C9.61328 3.70542 9.61328 3.53643 9.66961 3.42377C9.78227 3.31112 9.89494 3.25479 10.0076 3.31112C10.1203 3.31112 10.2329 3.36745 10.3456 3.31112C10.4019 3.25479 10.4019 3.25479 10.4582 3.19846C10.4582 3.14213 10.5146 3.0858 10.5146 3.0858C10.5709 2.91681 10.5146 2.74782 10.6272 2.57883C10.6836 2.46617 10.7399 2.35352 10.9089 2.35352Z" fill="#A0A0A0"/>
<path d="M8.48684 15.3095C8.31785 15.3095 8.14886 15.3095 7.92354 15.2531C7.75455 15.2531 7.58557 15.1968 7.47291 15.1405C7.41658 15.0842 7.41658 15.0278 7.47291 14.9152C7.58557 14.7462 7.69822 14.6899 7.92354 14.6335C8.14886 14.6335 8.31785 14.5772 8.54317 14.5772C8.82482 14.5772 9.05013 14.4082 9.33178 14.4082C9.50077 14.4645 9.5571 14.5772 9.61343 14.6899C9.38811 14.8588 9.1628 15.0278 8.88115 15.1405C8.71216 15.3095 8.5995 15.3095 8.48684 15.3095Z" fill="#3F3F3F"/>
<path d="M0.543621 5.28231V5.22598C0.65628 5.11332 0.543627 4.94433 0.656287 4.77535C0.768946 4.43737 0.937934 4.09938 1.21958 3.81774C1.27591 3.76141 1.33223 3.76141 1.38856 3.70508C1.44489 3.70508 1.4449 3.70508 1.50123 3.70508C1.55756 3.76141 1.61388 3.76141 1.67021 3.81774C1.78287 4.26837 1.38857 4.55003 1.21958 4.888C1.16325 5.05699 1.16326 5.28231 1.0506 5.4513C0.994271 5.67662 0.937934 5.84561 0.656287 5.90194C0.599957 5.90194 0.543634 5.8456 0.487305 5.78927C0.487305 5.67661 0.487291 5.4513 0.543621 5.28231Z" fill="#626262"/>
<path d="M10.7958 12.5494C10.7394 12.831 10.6268 13.1127 10.5704 13.3943C10.5141 13.5633 10.5141 13.7323 10.4014 13.845C10.3451 13.845 10.2888 13.845 10.2325 13.7887C10.1198 13.7323 10.0071 13.6197 9.95081 13.507C9.89448 13 10.1761 12.6057 10.1761 12.0988C10.2325 11.8734 10.1761 11.6481 10.4578 11.5918C10.6268 11.6481 10.6831 11.7608 10.7394 11.9298C10.7394 11.9861 10.7958 12.0424 10.7958 12.0988C10.7958 12.1551 10.8521 12.2114 10.8521 12.2678C10.8521 12.3241 10.8521 12.4367 10.7958 12.5494Z" fill="#6F6F6F"/>
<path d="M0.543711 5.90293C0.60004 5.90293 0.600047 5.90293 0.656377 5.90293C0.938025 6.4099 0.712703 6.97319 0.881692 7.53649C0.881692 7.59282 0.825372 7.64915 0.769043 7.70548C0.600054 7.81814 0.487388 7.76181 0.374729 7.64915C0.149411 7.42383 0.205744 7.14218 0.149414 6.86054C0.262073 6.52256 0.262073 6.18458 0.431062 5.90293C0.487392 5.79028 0.543711 5.8466 0.543711 5.90293Z" fill="#6C6C6C"/>
<path d="M5.78297 0.382792C6.06462 0.213804 6.40258 0.101141 6.74056 0.0448115C6.96588 -0.011518 7.24754 -0.0115146 7.47286 0.101145C7.47286 0.270133 7.30387 0.326458 7.19121 0.439117C7.13488 0.495446 7.07854 0.608111 7.02221 0.66444C6.6279 0.889759 6.17728 1.00242 5.78297 0.66444C5.72664 0.551781 5.72664 0.495452 5.78297 0.382792Z" fill="#7A7A7A"/>
<path d="M5.16251 9.11342C5.10618 9.22608 5.04985 9.2824 4.93719 9.33873C4.54289 9.50772 4.2049 9.62038 3.75427 9.62038L3.69793 9.56406C3.6416 9.50773 3.6416 9.45139 3.6416 9.39506C3.6416 9.33873 3.6416 9.2824 3.69793 9.22607C3.81059 9.05709 3.97959 9.00076 4.14858 8.94443C4.20491 8.8881 4.31757 8.83177 4.3739 8.77544C4.43023 8.71911 4.54288 8.66277 4.59921 8.60645C4.65554 8.60645 4.71186 8.60645 4.76819 8.60645C4.88085 8.66277 4.99351 8.66278 5.10617 8.77544C5.1625 8.94442 5.16251 9.00076 5.16251 9.11342Z" fill="#3D3D3D"/>
<path d="M1.89551 2.85999C2.12083 2.57834 2.34613 2.29669 2.51512 2.01505C2.62778 1.84606 2.79678 1.78973 2.96577 1.7334C3.07843 1.78973 3.13475 1.84606 3.19108 1.90239C2.96576 2.52201 2.51512 2.86 1.95182 3.08531C1.95182 3.02898 1.89551 2.97265 1.89551 2.85999Z" fill="#737373"/>
<path d="M0.656648 7.7054C0.656648 7.64907 0.656648 7.59274 0.656648 7.59274C0.994625 7.53641 0.994632 7.76173 1.05096 7.98704C1.05096 8.04337 0.994625 8.09971 0.938296 8.15603C0.994625 8.09971 1.05095 8.09971 1.10728 8.15603C1.3326 8.26869 1.44526 8.49401 1.38893 8.71933C1.3326 8.83199 1.27627 8.88832 1.21994 8.94465L1.16361 9.00098C1.10728 9.00098 1.05096 9.00098 0.994629 9.00098C0.938299 8.94465 0.825644 8.94464 0.769314 8.88831H0.712981C0.600322 8.71932 0.487659 8.55033 0.375 8.32502V8.26869C0.375 8.21236 0.375 8.15603 0.375 8.0997C0.43133 7.87438 0.543989 7.81806 0.656648 7.7054Z" fill="#9C9C9C"/>
<path d="M9.50031 8.2686C9.72563 8.49392 9.89461 8.71923 9.95094 9.05721C10.0073 9.16987 9.95093 9.28253 9.83827 9.33886C9.66928 9.39519 9.55663 9.33886 9.44397 9.28253C9.27499 9.11355 9.16232 8.88823 9.04966 8.71924C8.99333 8.66291 8.99334 8.60658 8.93701 8.55025C8.93701 8.49392 8.93701 8.49392 8.93701 8.43759C8.93701 8.38126 8.93701 8.32493 8.93701 8.2686C8.99334 8.21227 8.99333 8.15594 9.04966 8.09961C9.10599 8.09961 9.16233 8.09961 9.21866 8.15594C9.27499 8.21227 9.44398 8.15594 9.50031 8.2686Z" fill="#373737"/>
<path d="M9.8381 0.945313C10.0071 1.05797 10.1198 1.17063 10.2324 1.39595C10.3451 1.62127 10.5141 1.79026 10.6267 1.95925C10.7394 2.24089 10.683 2.40988 10.4577 2.57887C10.4014 2.57887 10.4014 2.57887 10.3451 2.6352C10.2887 2.6352 10.2887 2.6352 10.2324 2.6352C10.1761 2.6352 10.1198 2.57887 10.0634 2.52254C10.0634 2.46621 10.0071 2.46621 10.0071 2.40988C10.0071 2.35355 10.0071 2.35355 9.95076 2.29722C9.89443 2.18456 9.89443 2.12823 9.8381 2.01557C9.78177 1.84658 9.72545 1.73392 9.66912 1.56493C9.61279 1.39594 9.44379 1.22696 9.55645 1.00164C9.66911 0.945307 9.72544 0.945313 9.8381 0.945313Z" fill="#6C6C6C"/>
<path d="M10.4016 13.7885C10.289 14.0701 10.0636 14.2954 9.89466 14.5208C9.83833 14.5771 9.78201 14.5771 9.72568 14.6334C9.55669 14.5771 9.44402 14.4644 9.3877 14.2391C9.44402 13.8448 9.50036 13.5068 10.0073 13.5068C10.1763 13.5632 10.2326 13.6195 10.3453 13.7322C10.3453 13.7885 10.3453 13.7885 10.4016 13.7885Z" fill="#6F6F6F"/>
<path d="M7.02148 0.269519C7.13414 0.21319 7.30314 0.156858 7.4158 0.100529C7.58479 0.100529 7.81011 0.100525 7.97909 0.0441958C8.31707 -0.0684633 8.54239 0.044201 8.7677 0.269519C8.82403 0.551167 8.65504 0.551162 8.42972 0.607492C8.26074 0.607492 8.09175 0.607492 7.92276 0.607492C7.8101 0.607492 7.75377 0.607492 7.64111 0.607492C7.58478 0.607492 7.52846 0.607492 7.47213 0.607492C7.4158 0.607492 7.35946 0.607497 7.30313 0.551167C7.2468 0.494838 7.07781 0.438508 7.02148 0.269519Z" fill="#404040"/>
<path d="M3.30371 1.50896C3.58536 1.11465 4.036 1.002 4.4303 0.833008L4.48662 0.889332C4.59928 1.00199 4.59928 1.11465 4.54295 1.22731C4.48662 1.33997 4.4303 1.3963 4.37397 1.45263C4.31764 1.45263 4.2613 1.50896 4.20497 1.56529C3.97965 1.67794 3.81067 1.90326 3.52903 1.84693C3.41637 1.73427 3.30371 1.62162 3.30371 1.50896Z" fill="#767676"/>
<path d="M3.7543 9.67653C3.58532 9.84552 3.35999 9.90185 3.13468 9.90185C2.7967 9.90185 2.51505 9.84552 2.2334 9.67653C2.2334 9.6202 2.2334 9.6202 2.2334 9.56387C2.28973 9.50754 2.28973 9.45121 2.34606 9.45121C2.45872 9.39488 2.62772 9.33856 2.74038 9.28223C2.85304 9.28223 2.90937 9.28223 3.02203 9.28223C3.13469 9.28223 3.19102 9.28223 3.30367 9.28223C3.36 9.28223 3.41633 9.33855 3.47266 9.33855C3.58532 9.39488 3.64164 9.50754 3.7543 9.56387C3.7543 9.6202 3.7543 9.6202 3.7543 9.67653Z" fill="#595959"/>
<path d="M10.2329 4.55024C10.2329 4.38125 10.2329 4.21226 10.3456 4.0996C10.4019 3.98694 10.5146 3.93061 10.6272 3.98694C10.7399 3.98694 10.7399 4.09961 10.7962 4.21227C10.7962 4.2686 10.7962 4.32492 10.7962 4.32492C10.7399 4.49391 10.6836 4.6629 10.6272 4.83189C10.5709 4.88822 10.5146 4.88822 10.4582 4.88822C10.2892 4.77556 10.2329 4.6629 10.2329 4.55024Z" fill="#727272"/>
<path d="M8.43024 0.437853C8.59923 0.437853 8.71189 0.381525 8.82455 0.325195C9.21886 0.437854 9.50051 0.606843 9.78216 0.888491C9.6695 1.00115 9.61317 1.05748 9.50051 1.17014C9.33153 1.22647 9.16253 1.17014 9.04987 1.11381C8.99354 1.05748 8.88088 1.00115 8.82455 0.944824C8.65556 0.775835 8.31758 0.719501 8.43024 0.437853Z" fill="#767676"/>
<path d="M0.0933321 6.85938C0.262321 7.02836 0.262321 7.31001 0.37498 7.53533C0.487639 7.70432 0.487646 7.8733 0.487646 8.04229C0.487646 8.09862 0.487643 8.15496 0.431313 8.26761C0.431313 8.26761 0.37498 8.26761 0.37498 8.32394C0.262321 8.09862 0.149658 7.81698 0.036999 7.59166C-0.0193305 7.31001 -0.0193271 7.08469 0.0933321 6.85938Z" fill="#AFAFAF"/>
<path d="M9.78192 9.22563C9.83825 9.1693 9.89457 9.11297 9.9509 9.05664C10.0072 9.11297 10.1199 9.22563 10.1762 9.28196C10.2325 9.33829 10.2889 9.39462 10.3452 9.45095C10.4015 9.50728 10.4579 9.56361 10.4579 9.61994C10.4579 9.67627 10.4579 9.67626 10.4579 9.73259C10.4579 9.84525 10.4579 9.90158 10.4579 10.0142C10.4579 10.0706 10.4015 10.1269 10.3452 10.1832C10.2889 10.2396 10.2325 10.2396 10.1762 10.2396C9.9509 10.1832 9.89458 10.0142 9.78192 9.84526C9.78192 9.78893 9.72559 9.67627 9.78192 9.61994C9.78192 9.56361 9.83825 9.50728 9.72559 9.50728C9.72559 9.39462 9.72559 9.28196 9.78192 9.22563Z" fill="#4C4C4C"/>
<path d="M8.31729 7.14186C8.42995 7.14186 8.48628 7.14186 8.59894 7.14186C8.88059 7.31085 9.04958 7.59249 9.16224 7.81781C9.16224 7.87414 9.1059 7.93047 9.04957 7.93047C8.99324 7.9868 8.93692 8.04313 8.88059 8.09946C8.82426 8.09946 8.76792 8.15579 8.71159 8.15579C8.65526 8.15579 8.59894 8.15579 8.54261 8.09946C8.48628 8.04313 8.42996 8.04312 8.37363 8.04312C8.3173 7.9868 8.26096 7.9868 8.26096 7.93047C8.20463 7.81781 8.14831 7.76148 8.09198 7.64882C8.09198 7.53616 8.03564 7.42351 8.03564 7.31085C8.03564 7.25452 8.09198 7.19819 8.09198 7.14186C8.20464 7.08553 8.26096 7.08553 8.31729 7.14186Z" fill="#393939"/>
<path d="M1.89636 2.86035C1.95269 2.91668 2.00901 2.97301 2.06534 3.02934C2.178 3.47998 2.06534 3.81796 1.55838 3.87429C1.50205 3.87429 1.50204 3.87428 1.44571 3.81795L1.38938 3.76163L1.33306 3.81795C1.27673 3.81795 1.22039 3.81795 1.16406 3.81795C1.38938 3.47998 1.67104 3.142 1.89636 2.86035Z" fill="#767676"/>
<path d="M4.43018 0.77615C4.76815 0.550831 5.10613 0.325509 5.55677 0.438169C5.6131 0.550828 5.55676 0.66349 5.4441 0.77615C5.38777 0.888809 5.33145 1.00147 5.21879 1.0578C5.0498 1.17046 4.93713 1.22679 4.76814 1.11413C4.65548 1.0578 4.59915 0.945142 4.48649 0.832483C4.43016 0.832483 4.43018 0.832479 4.43018 0.77615Z" fill="#7A7A7A"/>
<path d="M10.0635 5.78989C10.0635 5.56458 10.1198 5.33926 10.2325 5.17027C10.2888 5.11395 10.2888 5.05762 10.3451 5.05762C10.4015 5.05762 10.4014 5.05762 10.4578 5.05762L10.5141 5.11394C10.4578 5.39559 10.3451 5.62091 10.0635 5.78989Z" fill="#BDBDBD"/>
<path d="M5.61335 10.0147C5.5007 9.90203 5.50071 9.73304 5.50071 9.56406C5.50071 9.33874 5.5007 9.11341 5.33171 8.94443C5.27538 8.8881 5.27539 8.83177 5.27539 8.71911C5.33172 8.60645 5.44438 8.60645 5.55704 8.60645C5.72603 8.66277 5.78235 8.83177 5.78235 9.00076C5.78235 9.33874 5.895 9.73304 5.61335 10.071C5.66968 10.071 5.66968 10.071 5.61335 10.0147Z" fill="#A0A0A0"/>
<path d="M10.3451 2.46662C10.4578 2.29763 10.5704 2.12864 10.6268 1.90332C10.7394 2.01598 10.7957 2.18497 10.9084 2.29763C10.8521 2.41028 10.8521 2.46661 10.7957 2.57927H10.7394C10.6831 2.57927 10.6268 2.63561 10.5704 2.63561C10.5141 2.63561 10.4578 2.63561 10.4014 2.63561C10.3451 2.63561 10.2888 2.57928 10.3451 2.46662Z" fill="#909090"/>
<path d="M9.49991 14.2959C9.72523 14.2959 9.72522 14.2959 9.66889 14.4649C9.66889 14.5212 9.66889 14.5212 9.61256 14.5775C9.55623 14.6339 9.49991 14.6339 9.49991 14.6902C9.38725 14.6339 9.27459 14.6339 9.21826 14.5775C9.21826 14.5212 9.21825 14.4086 9.27458 14.3522C9.38724 14.3522 9.44358 14.2959 9.49991 14.2959Z" fill="#343434"/>
<path d="M3.30346 1.50879C3.41612 1.56512 3.52876 1.56512 3.64142 1.62145C3.64142 1.84676 3.52877 2.01575 3.24712 1.90309C3.19079 1.84676 3.13445 1.79043 3.07812 1.7341C3.07812 1.62144 3.1908 1.56512 3.30346 1.50879Z" fill="#646464"/>
<path d="M10.6272 1.90314C10.4019 1.79048 10.2329 1.62149 10.2329 1.33984C10.4019 1.50883 10.5709 1.67782 10.6272 1.90314Z" fill="#909090"/>
<path d="M5.27535 0.550826C5.33168 0.494497 5.44433 0.49449 5.50066 0.43816C5.61332 0.43816 5.66965 0.381836 5.78231 0.381836C5.78231 0.494495 5.78231 0.550825 5.78231 0.663484C5.72598 0.776143 5.61332 0.832474 5.50066 0.832474C5.388 0.776145 5.21902 0.776145 5.27535 0.550826Z" fill="#3D3D3D"/>
<path d="M5.38813 8.77544C5.38813 8.83177 5.38813 8.8881 5.38813 8.94443C5.3318 9.00076 5.21914 9.05709 5.16281 9.11342C5.10649 9.05709 5.05016 9.00076 4.99383 8.94443C4.9375 8.8881 4.9375 8.83177 4.9375 8.77544C4.99383 8.66278 5.10649 8.60645 5.21915 8.60645C5.33181 8.60645 5.3318 8.71911 5.38813 8.77544Z" fill="#545454"/>
<path d="M1.78351 9.50709C1.50186 9.56342 1.3892 9.45076 1.22021 9.28177C1.22021 9.22544 1.27655 9.16911 1.33288 9.11278C1.61453 9.05645 1.78351 9.11278 1.83984 9.45075C1.83984 9.45075 1.83984 9.50709 1.78351 9.50709Z" fill="#626262"/>
<path d="M0.994162 8.83131C1.05049 8.83131 1.10681 8.83131 1.10681 8.83131C1.16314 8.77498 1.21948 8.77498 1.27581 8.83131C1.38847 8.94397 1.38847 9.11296 1.27581 9.22561L1.21948 9.28195C1.10682 9.28195 1.05049 9.16929 0.994162 9.11296C0.881503 9.0003 0.881503 8.88764 0.994162 8.83131Z" fill="#626262"/>
<path d="M0.543982 5.90283C0.487652 5.90283 0.43133 5.90283 0.375 5.90283C0.375 5.67751 0.374993 5.45219 0.543982 5.2832C0.543982 5.50852 0.543982 5.73384 0.543982 5.90283Z" fill="#646464"/>
<path d="M9.5 1.00199C9.61266 0.94566 9.66899 0.889337 9.78165 0.833008C9.83798 0.833008 9.83796 0.889336 9.83796 0.945665C9.78163 1.00199 9.72531 1.05833 9.61265 1.11466C9.55632 1.11466 9.5 1.05832 9.5 1.00199Z" fill="#515151"/>
<path d="M0.713376 4.83203C0.713376 5.00102 0.65704 5.11368 0.60071 5.28267C0.544381 5.05735 0.600717 4.94469 0.713376 4.83203Z" fill="#646464"/>
<path d="M0.994539 8.83259C0.994539 8.94525 0.994539 9.00158 0.994539 9.11424C0.881879 9.00158 0.82555 8.94525 0.712891 8.83259L0.769224 8.77626C0.825553 8.71993 0.938209 8.71993 0.994539 8.83259Z" fill="#9C9C9C"/>
<path d="M2.17752 9.67627C2.00853 9.67627 1.89586 9.61994 1.7832 9.50728C1.7832 9.50728 1.83954 9.50728 1.83954 9.45095C2.00852 9.33829 2.1775 9.3383 2.23383 9.56362L2.17752 9.67627Z" fill="#575757"/>
<path d="M9.27453 8.10001C9.2182 8.10001 9.16187 8.10001 9.10554 8.10001C9.04921 8.04368 8.99288 7.93102 9.04921 7.87469C9.10554 7.87469 9.10555 7.87469 9.16188 7.81836C9.27454 7.87469 9.27453 7.98735 9.27453 8.10001Z" fill="#525252"/>
<path d="M9.49975 8.2686C9.38709 8.2686 9.33074 8.21227 9.27441 8.09961C9.38707 8.09961 9.44342 8.15594 9.49975 8.2686Z" fill="#525252"/>
<path d="M10.4579 4.77637C10.5142 4.77637 10.5705 4.77637 10.5705 4.77637C10.5142 4.88903 10.5142 5.00169 10.4579 5.05802L10.4015 5.00168C10.3452 4.94535 10.3452 4.88902 10.3452 4.83269C10.4579 4.83269 10.4579 4.8327 10.4579 4.77637Z" fill="#BDBDBD"/>
<path d="M10.4579 9.6768C10.4015 9.62047 10.3452 9.56414 10.3452 9.50781C10.4015 9.56414 10.4579 9.62047 10.4579 9.6768Z" fill="#DADADA"/>
<path d="M5.78282 7.98633C6.06447 8.49329 6.17712 9.05659 6.17712 9.61988C6.17712 10.0142 6.17713 10.4085 6.1208 10.8028C6.1208 10.9155 6.06447 10.9718 6.06447 11.0281C6.06447 10.6901 6.00814 10.3522 5.78282 10.0705C5.67016 9.73254 5.89547 9.33824 5.67015 9.00026C5.61382 8.8876 5.5575 8.83127 5.50117 8.71861C5.44484 8.38064 5.5575 8.15532 5.78282 7.98633Z" fill="#545454"/>
<path d="M6.06432 12.0986C6.28964 12.2676 6.34597 12.5493 6.34597 12.7746C6.4023 12.8309 6.45862 12.8309 6.51495 12.8309L6.57128 12.8872C6.62761 12.9436 6.62762 12.9999 6.68395 13.0562C6.74028 13.1689 6.7966 13.2815 6.85293 13.3942C7.02192 13.6759 6.85293 13.9012 6.74027 14.1265C6.68394 14.1828 6.62761 14.1828 6.57128 14.2391C6.51496 14.2391 6.51495 14.2391 6.45862 14.2391C6.28963 14.2391 6.23331 14.1265 6.12066 13.9575C6.06433 13.8448 6.00799 13.7322 6.06432 13.6195C5.89533 13.2816 5.89533 12.8872 5.95166 12.4929C6.06432 12.3803 6.06432 12.2676 6.06432 12.0986Z" fill="#CFCFCF"/>
<path d="M5.67005 8.94434C5.72638 9.00067 5.78272 9.05699 5.83905 9.16965C6.00804 9.39497 6.00804 9.62029 5.83905 9.84561C5.78272 9.90194 5.78272 9.95826 5.78272 10.0146C5.72639 10.0146 5.72638 10.0146 5.67005 10.0146C5.67005 9.67662 5.61373 9.33864 5.67005 8.94434Z" fill="#505050"/>
<path d="M6.23325 13.9016C6.40224 13.958 6.45857 14.0706 6.45857 14.1833C6.45857 14.2959 6.45857 14.3523 6.45857 14.4649C6.45857 14.6339 6.34591 14.6339 6.23325 14.5776C6.17692 14.3523 6.12061 14.1269 6.12061 13.9016C6.12061 13.8453 6.17692 13.8453 6.23325 13.9016Z" fill="#2A2A2A"/>
<path d="M6.23289 13.9008C6.17657 13.9008 6.12024 13.9008 6.06391 13.9008C6.00758 13.8445 5.89491 13.7881 5.89491 13.7318C5.83858 13.6755 5.89492 13.6191 5.95125 13.6191C6.00758 13.6191 6.06391 13.6191 6.06391 13.6191C6.17657 13.7318 6.17657 13.7881 6.23289 13.9008Z" fill="#323232"/>
<path d="M9.838 3.81826C9.95065 4.04358 10.0633 4.2689 10.1196 4.55055C10.176 4.60688 10.176 4.66321 10.176 4.71954C10.176 4.8322 10.1197 4.88852 10.0633 4.94485C9.89434 5.05751 9.78167 5.17017 9.66901 5.39549C9.4437 5.33916 9.38737 5.17017 9.38737 5.00118C9.33104 4.60688 8.99306 4.32523 8.8804 3.93093C8.76774 3.64928 8.48609 3.42396 8.7114 3.08598C8.76773 2.97332 8.88039 2.91699 8.99305 2.91699C9.04938 2.91699 9.10572 2.91699 9.16205 2.91699C9.27471 2.97332 9.33103 3.02965 9.33103 3.08598C9.38736 3.14231 9.38737 3.19863 9.4437 3.25496C9.50003 3.31129 9.50002 3.36763 9.55635 3.48029C9.55635 3.53662 9.61268 3.59295 9.61268 3.59295C9.61268 3.64928 9.61268 3.7056 9.66901 3.7056C9.66901 3.76193 9.72535 3.76193 9.72535 3.81826C9.72535 3.81826 9.78167 3.87459 9.838 3.81826Z" fill="#BDBDBD"/>
<path d="M9.10648 5.11352C9.05015 5.11352 9.05015 5.0572 8.99382 5.0572C8.93749 5.00087 8.88116 5.05719 8.82483 5.11352C8.82483 5.22618 8.82483 5.28251 8.82483 5.39517C8.7685 5.4515 8.71218 5.4515 8.65585 5.4515C8.54319 5.4515 8.48685 5.39517 8.43052 5.28251C8.37419 5.22618 8.26153 5.11353 8.2052 5.0572C8.14888 5.00087 8.14889 5.00086 8.09256 4.94453C8.03623 4.94453 8.03622 4.88821 7.97989 4.88821H7.92356C7.86723 4.88821 7.75457 4.8882 7.69824 4.83187C7.58558 4.77554 7.47292 4.71922 7.41659 4.60656C7.30394 4.38124 7.07861 4.26858 7.07861 3.98693C7.41659 3.3673 7.92357 3.53629 8.3742 3.70528C8.48686 3.76161 8.54319 3.81795 8.65585 3.9306C8.88117 4.21225 9.21914 4.38124 9.3318 4.71922C9.3318 4.77555 9.33179 4.83188 9.27546 4.88821L9.21915 4.94453C9.16282 5.00086 9.16281 5.05719 9.10648 5.11352Z" fill="#656565"/>
<path d="M9.27479 4.88874C9.27479 4.83241 9.27481 4.83241 9.21848 4.77608C9.10582 4.38178 8.82416 4.21278 8.54252 4.10012C8.48619 4.04379 8.42986 3.98746 8.37354 3.98746C8.54252 3.64949 8.76783 3.64949 9.04948 3.87481C9.21847 4.15646 9.38745 4.49444 9.55644 4.77608C9.61277 4.88874 9.55645 5.0014 9.33113 5.0014C9.33113 4.94507 9.33112 4.94507 9.27479 4.88874Z" fill="#E5E5E5"/>
<path d="M9.27543 5.62109C9.38809 5.62109 9.3881 5.67742 9.44443 5.73375C9.55709 5.95907 9.44442 6.07173 9.27543 6.12806C9.16277 6.18439 9.05011 6.29705 8.99378 6.4097C8.82479 6.46603 8.71214 6.40971 8.59948 6.29705C8.54315 6.18439 8.48682 6.12806 8.48682 6.0154C8.48682 5.90274 8.54315 5.84641 8.59948 5.73375C8.65581 5.67742 8.76847 5.62109 8.88113 5.62109C8.99379 5.67742 9.16277 5.67742 9.27543 5.62109Z" fill="#191919"/>
<path d="M8.82447 5.9588C8.76814 6.01513 8.76814 6.01513 8.71181 6.07146C8.26117 6.07146 8.26117 5.78981 8.43016 5.50817C8.48649 5.45184 8.54283 5.39551 8.59916 5.39551C8.65549 5.39551 8.65548 5.39551 8.71181 5.39551C8.76814 5.39551 8.82447 5.39551 8.82447 5.39551C8.93713 5.50817 9.10613 5.5645 9.21879 5.67716C9.10613 5.78981 9.0498 5.84614 8.93714 5.9588H8.88081H8.82447H8.76814C8.8808 5.90247 8.8808 5.9588 8.82447 5.9588C8.8808 5.9588 8.82447 5.9588 8.82447 5.9588Z" fill="#525252"/>
<path d="M8.65563 6.29725C8.76829 6.35358 8.88095 6.4099 8.93728 6.4099C8.71196 6.57889 8.4303 6.63522 8.14865 6.69155C8.036 6.69155 7.97967 6.63522 7.92334 6.57889C7.92334 6.46624 7.92335 6.4099 8.03601 6.35357C8.09234 6.35357 8.14866 6.35357 8.20499 6.35357C8.26132 6.4099 8.20499 6.29724 8.26132 6.4099C8.26132 6.4099 8.26132 6.35357 8.20499 6.35357C8.20499 6.29724 8.20499 6.24092 8.26132 6.18459C8.43031 6.07193 8.59931 6.12826 8.65563 6.29725Z" fill="#525252"/>
<path d="M7.97918 6.57787C8.03551 6.6342 8.09184 6.69053 8.14817 6.74686C8.14817 6.80319 8.14817 6.80319 8.14817 6.85951C8.2045 6.91584 8.2045 6.91584 8.2045 6.97217C8.2045 7.0285 8.2045 7.02851 8.14817 7.02851C7.97918 7.14116 7.75386 7.19749 7.58487 7.14116C7.41588 7.08483 7.30322 6.91584 7.30322 6.69052C7.30322 6.52154 7.4159 6.40887 7.52855 6.35254C7.75387 6.29621 7.92285 6.40888 7.97918 6.57787Z" fill="#2E2E2E"/>
<path d="M10.0635 4.94509C10.0635 4.83243 10.1198 4.7761 10.1198 4.66344C10.1198 4.60711 10.1761 4.55078 10.2325 4.55078C10.4578 4.55078 10.4578 4.55078 10.5141 4.83243C10.4578 4.88876 10.5141 5.05775 10.4014 5.05775C10.3451 5.05775 10.3451 5.11408 10.2888 5.11408C10.1761 5.05775 10.1198 5.00142 10.0635 4.94509Z" fill="#4F4F4F"/>
<path d="M9.27441 6.18435C9.33074 6.07169 9.38708 5.9027 9.44341 5.79004C9.49974 6.07169 9.49973 6.07169 9.27441 6.18435Z" fill="#525252"/>
<path d="M9.66943 5.33887C9.72576 5.33887 9.7821 5.33886 9.7821 5.39519C9.7821 5.39519 9.83842 5.45152 9.83842 5.50785H9.7821C9.7821 5.50785 9.72577 5.50785 9.72577 5.45152C9.66944 5.45152 9.66943 5.3952 9.66943 5.33887Z" fill="#383838"/>
<path d="M8.99268 6.46622C8.99268 6.29723 9.10533 6.2409 9.27432 6.18457C9.16166 6.29723 9.04901 6.35356 8.99268 6.46622Z" fill="#525252"/>
<path d="M8.14833 7.02966C8.14833 6.97333 8.14833 6.91699 8.14833 6.91699C8.20466 7.02965 8.261 7.08598 8.31733 7.19864C8.261 7.19864 8.20466 7.19864 8.20466 7.19864C8.14834 7.14231 8.092 7.08599 8.14833 7.02966Z" fill="#525252"/>
<path d="M9.10645 5.11461C9.16277 5.05828 9.16278 5.05828 9.21911 5.00195C9.16278 5.00195 9.16277 5.05828 9.10645 5.11461Z" fill="#313131"/>
<path d="M6.9095 14.4643C6.85317 14.408 6.79683 14.408 6.7405 14.3516V14.2953C6.7405 14.239 6.7405 14.1263 6.7405 14.07C6.7405 14.0137 6.79683 13.9573 6.79683 13.901C7.02215 13.563 6.45886 13.3377 6.62785 12.9997C6.68418 12.9434 6.68417 12.8871 6.7405 12.8307C6.85316 12.7744 6.90949 12.7744 7.02215 12.7744C7.19114 12.8307 7.24746 12.9997 7.30379 13.1687C7.30379 13.225 7.36013 13.2814 7.41646 13.3377C7.47279 13.394 7.47279 13.4504 7.47279 13.5067C7.52912 13.6757 7.58545 13.8447 7.69811 14.0137C7.75444 14.239 7.81076 14.5206 7.64178 14.7459C7.58545 14.8023 7.52912 14.8023 7.47279 14.8023C7.36013 14.8023 7.24747 14.6896 7.19115 14.577C7.13482 14.4643 6.96583 14.5206 6.9095 14.4643Z" fill="#D0D0D0"/>
<path d="M7.47204 15.0271C7.47204 15.0834 7.47204 15.1397 7.47204 15.1397C7.19039 15.0271 7.19039 14.9707 7.24672 14.6891C7.30305 14.6328 7.35937 14.6891 7.4157 14.6891C7.47203 14.7454 7.52837 14.8018 7.52837 14.9144C7.47204 14.9708 7.47204 14.9707 7.47204 15.0271Z" fill="#202020"/>
<path d="M6.90918 14.4645C7.02184 14.4082 7.1345 14.4645 7.19083 14.6335C7.07817 14.5208 7.02184 14.5208 6.90918 14.4645Z" fill="#CFCFCF"/>
<path d="M7.30375 14.7461C7.24742 14.7461 7.24743 14.6898 7.1911 14.6898C7.1911 14.6335 7.1911 14.6335 7.13477 14.5771C7.24742 14.6335 7.30375 14.6335 7.41641 14.6898L7.36008 14.7461C7.36008 14.7461 7.36008 14.7461 7.30375 14.7461Z" fill="#CFCFCF"/>
<path d="M6.74027 14.3516C6.68394 14.2953 6.62762 14.2389 6.57129 14.2389L6.62762 14.1826C6.74028 14.1826 6.7966 14.1826 6.74027 14.2953V14.3516Z" fill="#D0D0D0"/>
<path d="M10.5706 3.42422C10.5143 3.48055 10.4016 3.59321 10.3453 3.64954C10.2326 3.70587 10.2326 3.70587 10.12 3.59321C10.0636 3.48055 10.0073 3.36789 10.0073 3.25523C10.0637 3.14257 10.12 3.02991 10.2326 3.02991C10.4016 2.97358 10.5706 3.02991 10.6833 3.14257C10.6833 3.25523 10.7396 3.36789 10.5706 3.42422Z" fill="#C1C1C1"/>
<path d="M9.83789 3.81822C9.83789 3.87454 9.83789 3.93088 9.83789 3.93088C9.83789 3.98721 9.78157 4.04354 9.72524 4.04354C9.66891 4.04354 9.61257 3.98721 9.61257 3.93088C9.61257 3.87455 9.61257 3.87454 9.55624 3.81822C9.6689 3.5929 9.27459 3.31126 9.55624 3.08594C9.78156 3.08594 9.89422 3.14227 9.83789 3.36759C9.78156 3.5929 9.83789 3.70556 9.83789 3.81822Z" fill="#ECECEC"/>
<path d="M9.78139 3.42389C9.72506 3.31123 9.61241 3.19857 9.49975 3.14224C9.44342 3.14224 9.44341 3.14224 9.38708 3.08591C9.33075 3.02958 9.27441 2.91692 9.27441 2.86059C9.27441 2.80426 9.33075 2.74793 9.33075 2.6916C9.95037 2.46628 9.89405 2.97325 10.0067 3.31123C10.0067 3.42389 10.0067 3.48022 10.0067 3.59288C10.0067 3.53655 9.89405 3.48022 9.78139 3.42389Z" fill="#A2A2A2"/>
<path d="M10.5706 3.4243C10.5706 3.31164 10.5706 3.25531 10.6269 3.14265C10.4579 2.97366 10.3453 2.80467 10.5143 2.57936H10.5706C10.6269 2.52303 10.7396 2.52303 10.7959 2.57936H10.8522C10.9649 2.861 10.9649 3.14265 10.7959 3.4243C10.7396 3.53696 10.6832 3.53696 10.6832 3.4243H10.5706Z" fill="#767676"/>
<path d="M10.6265 3.42383C10.6828 3.42383 10.7391 3.42383 10.7391 3.42383C10.7391 3.48016 10.7391 3.53649 10.6265 3.53649C10.6265 3.53649 10.6265 3.48016 10.6265 3.42383Z" fill="#5E5E5E"/>
<path d="M10.2323 4.55078C10.176 4.60711 10.176 4.66344 10.1196 4.66344C10.1196 4.60711 10.1196 4.60711 10.1196 4.55078C10.1196 4.55078 10.176 4.55078 10.2323 4.55078Z" fill="#727272"/>
<path d="M8.54291 14.8588C8.3176 14.9152 8.09227 14.9152 7.86695 14.8588C7.81062 14.8025 7.81064 14.7462 7.81064 14.6898C7.97963 14.1829 7.58532 13.8449 7.47266 13.4506C7.47266 13.3379 7.52898 13.2253 7.58531 13.1689C7.86695 13.0563 8.09227 13.1126 8.20493 13.4506C8.31759 13.7886 8.54291 14.1265 8.82456 14.4645C8.82456 14.6335 8.76823 14.7462 8.54291 14.8588Z" fill="#D0D0D0"/>
<path d="M8.54297 14.8593C8.5993 14.7466 8.65562 14.634 8.71195 14.465C8.71195 14.4086 8.71195 14.4087 8.71195 14.3523C8.65562 14.127 8.76828 13.958 8.9936 13.958C9.21892 14.0143 9.27525 14.1833 9.38791 14.3523C9.38791 14.4087 9.38791 14.4086 9.38791 14.465C9.33158 14.5213 9.27525 14.5776 9.27525 14.634C9.04993 14.7466 8.82462 14.8593 8.54297 14.8593Z" fill="#9E9E9E"/>
<path d="M7.86724 14.7458C7.86724 14.8021 7.86724 14.8021 7.86724 14.8584C7.75458 14.9148 7.5856 14.9711 7.41661 15.0274C7.36028 14.9711 7.30395 14.8584 7.41661 14.8021V14.7458C7.47294 14.7458 7.52926 14.7458 7.58559 14.7458C7.64192 14.6895 7.69826 14.6895 7.81092 14.6895C7.81092 14.6895 7.86724 14.7458 7.86724 14.7458Z" fill="#686868"/>
<path d="M8.37372 15.0273C8.37372 15.0837 8.37372 15.0837 8.37372 15.0273C8.37372 15.0837 8.31738 15.0837 8.31738 15.0837C8.31738 15.0273 8.31739 15.0273 8.37372 15.0273Z" fill="#161616"/>
<path d="M1.05088 4.83203C0.994547 5.00102 0.994537 5.22634 0.881877 5.39533C0.825548 5.17001 0.825558 5.00102 1.05088 4.83203Z" fill="#646464"/>
<path d="M1.38867 3.87428H1.445C1.445 3.81795 1.445 3.81795 1.38867 3.87428Z" fill="#4A4A4A"/>
<path d="M9.50022 14.2955C9.44389 14.3519 9.38755 14.4082 9.38755 14.4645C9.38755 14.4082 9.38755 14.4082 9.38755 14.3519C9.1059 14.0139 9.04957 13.6196 8.82426 13.2816C8.76793 13.1689 8.76792 13.0563 8.71159 12.8873C8.71159 12.831 8.65527 12.7746 8.65527 12.7183C8.65527 12.662 8.65527 12.662 8.65527 12.6056C8.65527 12.5493 8.71159 12.493 8.71159 12.4366C8.76792 12.3803 8.88059 12.324 8.93692 12.324C9.16224 12.2113 8.88059 11.817 9.21857 11.7044C9.33123 11.648 9.44388 11.648 9.61287 11.7044C9.78185 11.7607 9.89451 11.986 10.1198 12.0423C10.1762 12.0987 10.2888 12.155 10.3452 12.155C10.3452 12.4366 10.2888 12.7183 10.1762 12.9999C10.1198 13.1689 10.1198 13.3379 10.0635 13.5069C10.0635 13.5632 10.0635 13.6196 10.0072 13.6196C9.72553 13.7322 9.55655 13.9575 9.50022 14.2955Z" fill="#D1D1D1"/>
<path d="M10.3453 12.0993C10.2326 12.1556 10.1763 12.212 10.0637 12.212C9.78201 12.1556 9.83834 11.874 9.72568 11.705C9.66935 11.6487 9.66934 11.5923 9.66934 11.536C9.66934 11.4234 9.72568 11.3107 9.72568 11.198C9.78201 10.8037 9.3877 10.5784 9.3877 10.2404C9.44402 9.84612 9.55669 9.50814 10.0073 9.73346C10.2326 9.78979 10.2326 10.0151 10.3453 10.1841C10.6833 10.5221 10.6833 10.9164 10.5706 11.367C10.5706 11.4233 10.5143 11.4797 10.458 11.536C10.4016 11.7613 10.4016 11.9303 10.3453 12.0993Z" fill="#DADADA"/>
<path d="M10.6838 11.5357C10.6838 11.7047 10.7401 11.93 10.7401 12.099C10.6838 12.099 10.6838 12.099 10.6275 12.099C10.5712 12.2116 10.5712 12.2116 10.5148 12.099C10.5148 11.93 10.5148 11.7047 10.4585 11.5357C10.5148 11.423 10.6275 11.423 10.6838 11.5357Z" fill="#2F2F2F"/>
<path d="M10.0635 13.6201C10.0635 13.5637 10.0635 13.5637 10.1198 13.5074C10.1761 13.5074 10.1761 13.4511 10.2325 13.4511C10.2888 13.3947 10.3451 13.4511 10.3451 13.5074C10.3451 13.6201 10.3451 13.6764 10.3451 13.789C10.1198 13.789 10.1198 13.789 10.0635 13.6201Z" fill="#333333"/>
<path d="M10.5146 12.0986C10.571 12.0986 10.571 12.0986 10.6273 12.0986C10.6273 12.155 10.6273 12.2113 10.6273 12.2113C10.6273 12.2676 10.571 12.2676 10.571 12.3239C10.571 12.2676 10.5146 12.2676 10.5146 12.2113C10.5146 12.2113 10.5146 12.155 10.5146 12.0986Z" fill="#101010"/>
<path d="M0.487485 8.09943C0.487485 7.93044 0.431152 7.70512 0.431152 7.53613C0.543812 7.59246 0.600141 7.64879 0.7128 7.70512C0.7128 7.87411 0.656464 7.98677 0.600134 8.09943H0.487485Z" fill="#525252"/>
<path d="M7.58572 1.62144C7.36041 1.50878 7.1351 1.50878 6.90978 1.50878C6.68446 1.50878 6.4028 1.50878 6.17748 1.39612C6.17748 1.39612 6.17749 1.33979 6.23382 1.33979C6.40281 1.1708 6.57179 1.28346 6.74078 1.22713C6.51546 1.28346 6.23382 1.05814 6.06484 1.33979C5.95218 1.28346 5.78319 1.22713 5.78319 1.11447C5.78319 0.889157 5.6142 0.832824 5.44521 0.776494C5.38888 0.720164 5.44521 0.663837 5.50154 0.663837C5.55787 0.663837 5.67053 0.663833 5.72685 0.607504C6.06483 0.663833 6.40282 0.551176 6.68446 0.494846C6.74079 0.494846 6.79712 0.438518 6.85345 0.382189C7.02243 0.26953 7.19142 0.269526 7.36041 0.325856C7.41674 0.325856 7.47308 0.325856 7.52941 0.325856C7.58574 0.269526 7.64206 0.269531 7.64206 0.269531C7.69839 0.269531 7.75472 0.269526 7.75472 0.325856C7.92371 0.325856 8.0927 0.325856 8.31802 0.325856C8.48701 0.438515 8.71233 0.494844 8.88131 0.607504C8.88131 0.663833 8.88131 0.663831 8.82498 0.720161C8.487 0.88915 8.0927 0.889157 8.0927 1.39612C8.14903 1.7341 7.86737 1.84676 7.58572 1.62144Z" fill="#EFEFEF"/>
<path d="M7.4723 0.382189C7.30331 0.382189 7.13433 0.382184 6.96534 0.438513C6.90901 0.438513 6.909 0.382189 6.85267 0.382189C6.85267 0.382189 6.79634 0.325856 6.85267 0.325856C6.85267 0.269526 6.90901 0.269531 6.90901 0.269531C6.96533 0.269531 7.02166 0.269526 7.07799 0.325856C7.19065 0.269526 7.35964 0.325859 7.4723 0.382189Z" fill="#3F3F3F"/>
<path d="M2.62841 8.09965C2.7974 8.15598 2.7974 8.15599 2.91006 7.987C2.96639 7.93067 3.02271 7.93066 3.07904 7.93066C3.13537 7.93066 3.19171 7.93067 3.24804 7.987C3.30437 8.04333 3.36069 8.09966 3.41702 8.15599C3.41702 8.21232 3.41702 8.26864 3.41702 8.3813C3.41702 8.43763 3.41702 8.43763 3.41702 8.49396V8.55029L3.47335 8.60662C3.52968 8.60662 3.52969 8.66295 3.58602 8.66295C3.64235 8.66295 3.64234 8.71928 3.69867 8.71928C3.755 8.71928 3.81134 8.77561 3.86767 8.77561C3.924 8.77561 3.98032 8.77561 4.03665 8.83194C4.14931 8.88827 4.3183 8.9446 4.37463 9.11359C4.37463 9.16992 4.37463 9.22625 4.3183 9.28258C4.14931 9.33891 3.92399 9.3389 3.755 9.45156H3.69867C3.64234 9.50789 3.52968 9.50789 3.47335 9.50789C3.41702 9.50789 3.3607 9.45156 3.30437 9.45156C3.19171 9.39523 3.13537 9.39523 3.07904 9.3389C2.96638 8.9446 2.34677 8.88827 2.45943 8.32497C2.45943 8.15598 2.51575 8.09965 2.62841 8.09965Z" fill="#B9B9B9"/>
<path d="M4.71276 8.83199C4.65643 8.83199 4.6001 8.83199 4.6001 8.83199C4.54377 8.88832 4.48744 8.88831 4.37478 8.88831C4.14946 8.77565 4.0368 8.55033 3.98047 8.32501C3.98047 8.26868 3.98047 8.21236 3.98047 8.0997C4.0368 7.98704 4.09313 7.87438 4.26212 7.76172C4.31845 7.76172 4.37477 7.76172 4.48743 7.76172C4.71275 7.93071 4.82542 8.15603 4.93808 8.43768C4.93808 8.55034 4.93807 8.71933 4.82541 8.83199C4.76908 8.83199 4.71276 8.83199 4.71276 8.83199Z" fill="#9E9E9E"/>
<path d="M4.43032 8.77574C4.48665 8.77574 4.54297 8.77575 4.5993 8.83208C4.5993 8.94474 4.5993 9.00107 4.5993 9.11372C4.48664 9.17005 4.43031 9.17005 4.31765 9.11372C4.14867 9.11372 4.036 9.05739 3.92334 8.94473C3.92334 8.8884 3.92334 8.83207 3.97967 8.77574C4.036 8.71941 4.09234 8.71942 4.14867 8.66309C4.205 8.71942 4.31766 8.77574 4.43032 8.77574Z" fill="#5B5B5B"/>
<path d="M3.35986 9.3952C3.41619 9.3952 3.47253 9.3952 3.47253 9.3952C3.52886 9.33887 3.64151 9.33887 3.69784 9.33887L3.75418 9.3952C3.75418 9.45153 3.75418 9.50786 3.75418 9.56419C3.64152 9.62052 3.47252 9.62052 3.35986 9.56419V9.50786V9.3952Z" fill="#888888"/>
<path d="M3.35986 9.50781C3.47252 9.50781 3.64152 9.50781 3.75418 9.50781V9.56415C3.58519 9.62048 3.47252 9.62047 3.35986 9.50781Z" fill="#1D1D1D"/>
<path d="M4.99356 8.83141C4.99356 8.88774 4.99356 8.88774 4.99356 8.94406C4.8809 8.88774 4.82457 8.88774 4.71191 8.83141V8.77507C4.76824 8.71874 4.82457 8.71875 4.93723 8.71875C4.93723 8.71875 4.99356 8.77508 4.99356 8.83141Z" fill="#747474"/>
<path d="M4.26221 9.11328C4.37487 9.11328 4.4312 9.11328 4.54385 9.11328C4.48753 9.16961 4.37487 9.22594 4.26221 9.22594C4.26221 9.16961 4.26221 9.11328 4.26221 9.11328Z" fill="#959595"/>
<path d="M10.6834 11.5358C10.627 11.5358 10.5144 11.5358 10.458 11.5921C10.458 11.1415 10.4581 10.6908 10.2891 10.2402L10.3454 10.1838C10.4017 10.1275 10.458 10.1275 10.458 10.1838C10.6834 10.4655 10.7397 10.7471 10.6834 11.0851C10.6834 11.1978 10.7397 11.3668 10.6834 11.5358Z" fill="#434343"/>
<path d="M10.5135 10.1839C10.4572 10.1839 10.4009 10.1839 10.4009 10.1839C10.4572 10.1276 10.4572 10.1276 10.5135 10.0713C10.5135 10.0713 10.5135 10.1276 10.5135 10.1839Z" fill="#2F2F2F"/>
<path d="M0.994358 8.83177C0.938028 8.83177 0.825373 8.83177 0.769043 8.77544C0.769043 8.71911 0.769043 8.71911 0.769043 8.66278V8.60645C0.825373 8.60645 0.881692 8.60645 0.881692 8.60645C0.881692 8.66277 0.938028 8.71911 0.994358 8.83177Z" fill="#515151"/>
<path d="M1.27593 8.83208C1.2196 8.83208 1.16326 8.83208 1.10693 8.83208C1.16326 8.77575 1.2196 8.71942 1.27593 8.66309L1.33227 8.71942C1.27594 8.77575 1.27593 8.77575 1.27593 8.83208Z" fill="#414141"/>
<path d="M0.488048 8.09961C0.544378 8.09961 0.544367 8.09961 0.600697 8.09961C0.544367 8.15594 0.544378 8.15594 0.488048 8.21227C0.431718 8.21227 0.431718 8.15594 0.488048 8.09961Z" fill="#404040"/>
<path d="M8.48571 7.818C8.54204 7.818 8.54204 7.818 8.59837 7.87433C8.6547 7.93066 8.71103 7.93066 8.76736 7.98699C8.82369 8.09965 8.99267 8.15598 9.049 8.26864C9.10533 8.32497 9.10534 8.38129 9.16167 8.38129C9.218 8.43762 9.27432 8.49395 9.27432 8.55028C9.38698 8.71927 9.44331 8.88826 9.55597 9.05725C9.6123 9.22623 9.89395 9.45156 9.66863 9.67687C9.49964 9.84586 9.33066 9.73321 9.218 9.56422C8.93635 9.28257 8.71102 8.88826 8.42937 8.60661C8.31672 8.38129 8.14773 8.2123 8.20406 7.93065C8.26039 7.818 8.31672 7.76167 8.48571 7.818Z" fill="#DCDCDC"/>
<path d="M9.27534 9.33829C9.33167 9.39462 9.38801 9.45095 9.50067 9.50728L9.61332 9.45095C9.61332 9.33829 9.61331 9.1693 9.55698 9.05664C9.61331 9.11297 9.72599 9.1693 9.78232 9.22563C9.78232 9.33829 9.83864 9.39462 9.9513 9.50728C9.9513 9.61994 9.9513 9.67627 10.0076 9.78893C9.66965 9.90159 9.55698 10.1832 9.55698 10.5212L9.50067 10.5775C9.44434 10.5775 9.388 10.5775 9.33167 10.5775C9.27534 10.5212 9.16268 10.4649 9.10635 10.4086C9.05003 10.3522 8.99369 10.3522 8.99369 10.2959C8.93736 10.1832 8.88104 10.0706 8.82471 9.95792C8.82471 9.90159 8.82471 9.84526 8.82471 9.78893C8.88104 9.61994 8.8247 9.45095 8.99369 9.33829C9.10635 9.28196 9.16268 9.28196 9.27534 9.33829Z" fill="#C8C8C8"/>
<path d="M9.0502 7.87402C9.0502 7.93035 9.10654 8.04301 9.10654 8.09934C9.10654 8.15567 9.10654 8.212 9.10654 8.212C9.05021 8.26833 9.05021 8.26833 8.93755 8.26833C8.82489 8.212 8.76855 8.09934 8.76855 7.98668C8.88121 7.93035 8.99387 7.93035 9.0502 7.87402Z" fill="#252525"/>
<path d="M8.99367 8.26758C9.05 8.26758 9.05001 8.26758 9.10634 8.26758C9.10634 8.32391 9.10634 8.38024 9.10634 8.43657C9.05001 8.43657 9.05 8.43657 8.99367 8.43657C8.88101 8.32391 8.88101 8.32391 8.99367 8.26758Z" fill="#525252"/>
<path d="M9.21911 8.54985C9.16278 8.49352 9.10645 8.43719 9.10645 8.38086C9.16277 8.43719 9.21911 8.49352 9.21911 8.54985Z" fill="#525252"/>
<path d="M9.50085 1.00133C9.55718 1.05766 9.6135 1.05767 9.6135 1.114C9.72616 1.22665 9.83882 1.39564 9.89515 1.5083C10.0641 1.73362 9.89515 1.84628 9.66983 1.90261C9.6135 1.90261 9.55718 1.90261 9.50085 1.90261C9.38819 1.90261 9.33186 1.95894 9.2192 1.95894C9.16287 1.95894 9.10653 1.95894 9.0502 1.95894C8.88121 1.90261 8.76855 1.78995 8.76855 1.62096C8.76855 1.45197 8.76855 1.28298 8.76855 1.17032C8.82488 1.05766 8.88122 1.00133 8.93755 0.945005C8.99388 0.888675 9.05021 0.888672 9.10654 0.888672C9.27552 0.888672 9.38819 0.945 9.50085 1.00133Z" fill="#EFEFEF"/>
<path d="M10.4584 2.57945C10.571 2.74844 10.6274 2.91743 10.5711 3.14275C10.4584 3.14275 10.2894 3.14275 10.1767 3.14275C9.95142 3.03009 9.83876 2.86111 9.95142 2.63579C10.0078 2.52313 10.1204 2.4668 10.2331 2.4668C10.2894 2.4668 10.3457 2.4668 10.3457 2.4668C10.4021 2.52313 10.4021 2.57945 10.4584 2.57945Z" fill="#A0A0A0"/>
<path d="M10.2333 2.46701C10.177 2.52334 10.1207 2.57967 10.0643 2.636C9.55736 2.57967 9.33203 2.29803 9.33203 1.79106C9.38836 1.6784 9.44469 1.62207 9.55735 1.62207C9.61368 1.62207 9.61368 1.62207 9.67001 1.62207C9.839 1.84739 10.1206 1.90372 10.2333 2.18537C10.2333 2.2417 10.2333 2.29803 10.2333 2.35436C10.177 2.35436 10.177 2.41068 10.2333 2.46701C10.2333 2.46701 10.177 2.46701 10.2333 2.46701Z" fill="#A5A5A5"/>
<path d="M10.2327 2.18443C9.95108 2.07178 9.78209 1.90279 9.66943 1.62114C9.83842 1.67747 9.95108 1.62114 9.95108 1.45215C10.0074 1.62114 10.1201 1.7338 10.1764 1.90279C10.2891 2.01545 10.2891 2.07178 10.2327 2.18443Z" fill="#ECECEC"/>
<path d="M10.2331 2.18497C10.2331 2.07231 10.1768 2.01598 10.1768 1.90332C10.2894 2.01598 10.2894 2.07231 10.2331 2.18497Z" fill="#909090"/>
<path d="M10.2331 2.46587C10.2331 2.40954 10.2331 2.40954 10.1768 2.35321V2.29688C10.2331 2.3532 10.2331 2.40954 10.2331 2.46587Z" fill="#A0A0A0"/>
<path d="M7.86722 0.382189C7.81089 0.382189 7.75458 0.382189 7.75458 0.382189C7.69825 0.382189 7.69824 0.325856 7.69824 0.325856C7.69824 0.325856 7.69825 0.269531 7.75458 0.269531C7.75458 0.325861 7.81089 0.325859 7.86722 0.382189Z" fill="#3D3D3D"/>
<path d="M7.75476 0.269531C7.75476 0.325861 7.75476 0.325859 7.75476 0.382189H7.69842H7.64209C7.64209 0.325859 7.69843 0.325861 7.75476 0.269531Z" fill="#3F3F3F"/>
<path d="M4.71185 1.00194C4.59919 1.05827 4.54286 1.1146 4.4302 1.17093C4.31754 1.1146 4.31754 1.00195 4.4302 0.889286C4.54286 0.832957 4.65552 0.889284 4.71185 1.00194Z" fill="#555555"/>
<path d="M1.67095 9.05662C1.72728 9.05662 1.78361 9.05662 1.78361 9.05662C1.83994 9.11295 1.89627 9.11295 1.95259 9.16928C2.00892 9.16928 2.06526 9.22561 2.12159 9.22561C2.23425 9.22561 2.29058 9.22562 2.34691 9.28195C2.40324 9.33828 2.40324 9.3946 2.40324 9.45093C2.40324 9.50726 2.34691 9.56359 2.34691 9.61992C2.29058 9.61992 2.23426 9.61992 2.17793 9.61992C2.06527 9.56359 1.89627 9.50726 1.78361 9.50726C1.61462 9.3946 1.38931 9.33827 1.22032 9.22561C1.10766 9.11296 1.16399 9.0003 1.22032 8.83131C1.27665 8.77498 1.27665 8.77498 1.33298 8.83131C1.38931 8.88764 1.44563 8.88764 1.44563 8.94397C1.55829 9.0003 1.61462 9.05662 1.67095 9.05662Z" fill="#373737"/>
<path d="M2.34697 9.39435C2.29064 9.39435 2.17799 9.33802 2.12166 9.33802C2.06533 9.33802 2.00899 9.28169 2.06532 9.22536C2.23431 9.16903 2.29064 9.05637 2.34697 8.88738C2.4033 8.83105 2.45962 8.83105 2.51595 8.83105C2.7976 8.88738 2.91026 9.1127 3.07925 9.33802C3.07925 9.39435 3.07925 9.45068 3.07925 9.50701C2.96659 9.50701 2.85393 9.50701 2.7976 9.50701C2.74127 9.56334 2.74128 9.56334 2.68495 9.56334C2.51596 9.50701 2.45963 9.45068 2.34697 9.39435Z" fill="#AEAEAE"/>
<path d="M3.07812 9.45157C3.07812 9.39524 3.07812 9.39524 3.07812 9.33891C3.07812 9.22625 3.13446 9.16992 3.24712 9.16992C3.30345 9.22625 3.35977 9.28258 3.35977 9.33891C3.35977 9.39524 3.35977 9.39524 3.35977 9.45157C3.24711 9.45157 3.13445 9.45157 3.07812 9.45157Z" fill="#D7D7D7"/>
<path d="M2.62833 9.50735C2.68466 9.50735 2.68466 9.50735 2.74099 9.50735C2.62833 9.62001 2.51567 9.62 2.34668 9.62C2.34668 9.56367 2.34668 9.56368 2.34668 9.50735C2.45934 9.39469 2.572 9.39469 2.62833 9.50735Z" fill="#141414"/>
<path d="M8.9928 0.663086C9.04913 0.719416 9.10547 0.719414 9.1618 0.775743L9.10547 0.832076C8.99281 0.832076 8.93647 0.775745 8.9928 0.663086Z" fill="#EFEFEF"/>
<path d="M8.14811 7.31055C8.26077 7.31055 8.42977 7.31055 8.54243 7.4232C8.65509 7.47953 8.71142 7.59219 8.65509 7.64852C8.59876 7.64852 8.54242 7.64852 8.48609 7.64852C8.42976 7.64852 8.37344 7.64852 8.26078 7.59219C8.14812 7.59219 8.0918 7.53586 8.0918 7.47953C8.0918 7.4232 8.0918 7.4232 8.0918 7.36687L8.14811 7.31055Z" fill="#1C1C1C"/>
<path d="M8.14887 7.02836C8.14887 7.08469 8.14887 7.08469 8.14887 7.14102C8.14887 7.19735 8.14887 7.25368 8.14887 7.31001C8.09254 7.36634 8.03622 7.36634 7.97989 7.42267C7.86723 7.42267 7.8109 7.36634 7.75458 7.31001C7.69825 7.25368 7.69824 7.19735 7.69824 7.14102C7.69824 7.08469 7.69824 7.08469 7.69824 7.02836C7.86723 6.80305 7.86722 6.80305 8.14887 7.02836Z" fill="#202020"/>
<path d="M8.14786 7.47984C8.20419 7.53617 8.26052 7.53618 8.26052 7.59251C8.31685 7.64884 8.37318 7.7615 8.48584 7.81783C8.42951 7.87416 8.37319 7.93049 8.31686 7.98682C7.97888 8.04315 7.92254 7.87416 7.86621 7.59251C7.86621 7.53618 7.92255 7.42352 7.97888 7.36719C8.03521 7.36719 8.09153 7.36719 8.14786 7.47984Z" fill="#CBCBCB"/>
<path d="M8.99307 8.26798C8.99307 8.32431 8.99307 8.38063 8.99307 8.38063C8.82408 8.3243 8.71143 8.15532 8.71143 7.98633C8.76776 7.98633 8.76776 7.98632 8.82409 8.04265C8.88042 8.09898 8.93674 8.15532 8.99307 8.26798Z" fill="#CBCBCB"/>
<path d="M8.71195 7.98668C8.65562 7.93035 8.5993 7.93035 8.54297 7.87402C8.65563 7.87402 8.71195 7.87402 8.71195 7.98668Z" fill="#CBCBCB"/>
<path d="M5.55762 0.664108C5.55762 0.720437 5.50129 0.720436 5.50129 0.776765C5.38863 0.776765 5.27597 0.776765 5.10698 0.776765C5.05065 0.720436 4.93799 0.720434 5.05064 0.607775C5.10697 0.551445 5.21965 0.551447 5.27598 0.495117C5.38864 0.607776 5.44497 0.664108 5.55762 0.664108Z" fill="#5C5C5C"/>
<path d="M10.3452 5.05735C10.4015 5.00103 10.4579 4.88836 10.4579 4.83203C10.4579 4.88836 10.4579 5.00103 10.4579 5.05735H10.4015H10.3452Z" fill="#727272"/>
<path d="M5.78297 7.98739C5.78297 8.26903 5.67031 8.49435 5.50132 8.71967C5.44499 8.776 5.38866 8.776 5.38866 8.83233C5.33233 8.776 5.27601 8.71967 5.27601 8.71967C5.21968 8.66334 5.21967 8.66334 5.16334 8.60701C5.16334 8.55068 5.16334 8.49435 5.16334 8.43802C5.16334 8.38169 5.16334 8.32536 5.16334 8.26903C5.16334 8.2127 5.16334 8.10004 5.10701 8.04371C5.10701 7.98738 5.05069 7.87473 4.99436 7.8184C4.93803 7.64941 4.82536 7.53675 4.76903 7.42409C4.7127 7.31143 4.65637 7.2551 4.54371 7.19877C4.48738 7.14244 4.43106 7.14244 4.43106 7.08611C4.37473 7.02978 4.31839 7.02978 4.26206 6.97345L4.20573 6.91712C4.20573 6.86079 4.14942 6.86079 4.14942 6.86079C4.09309 6.69181 4.09308 6.52282 4.26206 6.41016C4.37472 6.41016 4.48738 6.41016 4.54371 6.46649C4.60004 6.46649 4.60005 6.46648 4.65638 6.52281C4.71271 6.52281 4.7127 6.57914 4.76903 6.63547C4.82536 6.6918 4.88169 6.69181 4.88169 6.74814C4.93802 6.80447 4.99436 6.80447 4.99436 6.86079C5.16335 7.02978 5.33233 7.19877 5.44499 7.42409C5.55765 7.53675 5.44498 7.76207 5.61397 7.8184C5.72663 7.76207 5.72664 7.93106 5.78297 7.98739Z" fill="#3A3A3A"/>
<path d="M10.74 2.63625C10.6836 2.63625 10.571 2.63625 10.5146 2.63625C10.571 2.52359 10.6836 2.52359 10.74 2.63625Z" fill="#565656"/>
<path d="M5.27566 8.54913C5.27566 8.60546 5.27566 8.66179 5.27566 8.66179C5.21933 8.71812 5.10666 8.77445 5.05033 8.83078H4.99401C4.93768 8.77445 4.93768 8.71812 4.88135 8.66179C4.88135 8.54913 4.88135 8.43647 4.99401 8.38014C5.10667 8.32381 5.163 8.32381 5.27566 8.38014C5.33199 8.43647 5.33198 8.43647 5.33198 8.4928C5.27565 8.4928 5.27566 8.54913 5.27566 8.54913Z" fill="#747474"/>
<path d="M7.98023 7.47963C7.75491 8.04292 8.31821 8.09926 8.4872 8.43724C8.54353 8.5499 8.59987 8.60622 8.6562 8.66255C8.71252 8.77521 8.82518 8.88787 8.82518 9.00053C8.82518 9.16952 8.76885 9.28218 8.6562 9.33851H8.59986C8.59986 9.33851 8.59986 9.33851 8.59986 9.39484C8.59986 9.45117 8.6562 9.45117 8.6562 9.5075C8.76885 9.67649 8.82518 9.84547 8.93784 10.0145C8.99417 10.1271 9.0505 10.2398 9.10682 10.2961C9.16315 10.3524 9.27581 10.4651 9.27581 10.5778C9.33214 10.6341 9.38848 10.6904 9.44481 10.8031C9.44481 10.9157 9.44481 11.0284 9.44481 11.1411C9.44481 11.1974 9.4448 11.2537 9.38847 11.31C9.38847 11.3664 9.33214 11.4227 9.33214 11.479C9.33214 11.5354 9.33214 11.5917 9.27581 11.648C9.27581 11.7044 9.21949 11.817 9.16316 11.8733C9.10683 12.0987 8.99417 12.2113 8.82518 12.324C8.76885 12.4366 8.65618 12.6056 8.76884 12.7183C8.82517 12.7746 8.82518 12.7746 8.88151 12.8309C8.88151 12.9999 8.88151 13.1126 8.93784 13.2816C8.88151 13.3942 8.76885 13.3942 8.6562 13.3379C8.59987 13.3379 8.54353 13.2816 8.54353 13.2816C8.4872 13.2816 8.48719 13.2253 8.43086 13.2253C8.37453 13.2253 8.37454 13.2253 8.31821 13.2253H8.26188C8.20555 13.2253 8.14923 13.2253 8.0929 13.2253C7.92391 13.1689 7.75491 13.1126 7.58592 13.2816C7.58592 13.3942 7.58592 13.4506 7.58592 13.5632C7.47326 13.9012 7.41693 13.6759 7.30427 13.5632C7.24794 13.5069 7.19162 13.4506 7.19162 13.4506C7.13529 13.3379 7.07895 13.1689 7.02262 13.0563C6.90996 12.9436 6.85363 12.9436 6.74098 13.0563C6.62832 13.1126 6.57199 13.1126 6.45933 13.0563C6.403 12.9999 6.40301 12.9999 6.40301 12.9436C6.40301 12.8873 6.403 12.8873 6.45933 12.8873C6.51566 12.8309 6.51566 12.7746 6.57199 12.7183C6.79731 12.3803 6.79731 12.0423 6.57199 11.7607C6.34668 11.4227 6.34668 11.1974 6.57199 10.8594C6.68465 10.6904 6.68465 10.5778 6.57199 10.4088C6.40301 10.1271 6.40301 9.84548 6.40301 9.56383C6.40301 9.45117 6.40301 9.28218 6.40301 9.16952C6.40301 8.9442 6.34667 8.71888 6.23401 8.49356C6.06502 8.21192 5.95236 7.93027 5.95236 7.59229C5.95236 7.42331 5.89604 7.25431 5.72705 7.08532C5.61439 6.97266 5.50173 6.80367 5.38907 6.63469C5.22008 6.40937 5.10742 6.24038 4.82577 6.24038C4.65678 6.24038 4.4878 6.07139 4.31881 6.01506C3.98083 5.84608 3.64285 5.84607 3.3612 6.07139C3.13588 6.24038 2.85425 6.40937 2.74159 6.69102C2.74159 6.80368 2.68525 6.86 2.62892 6.91633C2.23462 7.31064 1.95298 7.81761 1.615 8.32457C1.55867 8.3809 1.50233 8.43724 1.446 8.43724C1.38967 8.43724 1.33335 8.43723 1.33335 8.38091C1.27702 8.32458 1.27702 8.26824 1.27702 8.21192C1.27702 7.9866 1.27702 7.81761 1.27702 7.59229C1.27702 7.36698 1.22068 7.19799 1.10802 7.029C0.82637 6.69102 0.826384 6.29671 1.0517 5.95873C1.22069 5.67708 1.27702 5.39544 1.33335 5.11379C1.33335 4.88847 1.446 4.77582 1.67131 4.77582C1.72764 4.77582 1.78399 4.77582 1.89665 4.77582C2.0093 4.77582 2.12196 4.66315 2.12196 4.55049C2.12196 4.3815 2.17829 4.15619 2.17829 3.9872C2.17829 3.59289 2.29095 3.19858 2.62892 2.97326C2.74158 2.91693 2.79791 2.80428 2.85424 2.74795C2.9669 2.63529 3.07956 2.52263 3.24855 2.52263C3.47387 2.52263 3.69919 2.40997 3.75551 2.12832C3.86817 1.903 4.03716 1.84668 4.26248 1.79035C4.54413 1.79035 4.76945 1.67769 4.93844 1.5087C5.10743 1.39604 5.27641 1.39604 5.4454 1.5087C5.61439 1.67769 5.89605 1.73401 6.12136 1.73401C6.572 1.73401 7.02263 1.73401 7.47327 1.73401C7.64226 1.67768 7.81124 1.56503 7.86757 1.39604C7.98023 1.17072 7.86757 1.00173 7.69859 0.945403C7.64226 0.945403 7.58593 0.945399 7.47327 0.88907C7.24795 0.83274 7.19163 0.776409 7.24796 0.720079C7.30429 0.60742 7.41694 0.607422 7.5296 0.607422C7.75492 0.607422 7.9239 0.663755 8.14922 0.663755C8.37453 0.663755 8.59986 0.720083 8.82518 0.776412C8.88151 0.832742 8.93784 0.83274 8.93784 0.88907C8.88151 1.00173 8.88151 1.05806 8.82518 1.17072H8.76884C8.71251 1.17072 8.71251 1.22705 8.71251 1.28338V1.33971C8.71251 1.39604 8.71251 1.39604 8.76884 1.45237C8.76884 1.5087 8.82518 1.50869 8.82518 1.56502C8.93784 1.67768 8.99417 1.73401 9.10682 1.84667C9.16315 1.903 9.10683 1.84667 9.16316 1.903C9.72645 2.4663 9.72644 2.4663 9.27581 2.97326C9.33214 3.02959 9.33214 3.19858 9.38847 3.25491C9.38847 3.36757 9.44481 3.4239 9.44481 3.53656C9.50113 3.70555 9.50113 3.81821 9.38847 3.9872C9.33214 3.93087 9.33214 3.87454 9.27581 3.81821C9.27581 3.76188 9.27581 3.70555 9.27581 3.70555C9.21948 3.64922 9.21949 3.48023 9.16316 3.4239C9.10683 3.36757 9.10682 3.19858 8.99416 3.14225C8.8815 3.02959 8.82517 3.02959 8.71251 3.14225C8.82517 3.4239 8.8815 3.70555 8.99416 3.93087C8.76884 3.9872 8.54353 4.04353 8.31821 4.04353C8.14923 3.9872 7.98023 3.9872 7.86757 3.93087C7.58592 3.87454 7.30428 3.93087 7.13529 4.15619C7.13529 4.21252 7.13529 4.21251 7.13529 4.26884C7.13529 4.32517 7.13529 4.38151 7.13529 4.43783C7.07896 4.60682 7.02262 4.71948 7.02262 4.88847C6.90996 5.17012 6.85365 5.45176 6.90997 5.78974C6.9663 6.01506 7.07896 6.24038 7.19162 6.40937C7.30428 6.52203 7.19161 6.69102 7.30427 6.86001C7.3606 6.97267 7.41694 7.08533 7.5296 7.14166C7.58593 7.19799 7.64226 7.25432 7.69859 7.31065C7.75491 7.36698 7.75492 7.36697 7.81125 7.4233C8.0929 7.36697 8.09289 7.36697 7.98023 7.47963Z" fill="white"/>
<path d="M6.12019 1.33962C6.12019 1.33962 6.12018 1.28328 6.06385 1.28328C6.00752 1.1143 6.00753 1.00164 6.12019 1.00164C6.57082 1.00164 7.07779 0.945312 7.52843 0.945312C7.58476 0.945312 7.64108 1.00164 7.69741 1.05797C7.75374 1.05797 7.75374 1.1143 7.75374 1.17063C7.75374 1.22696 7.69741 1.28328 7.64108 1.28328C7.19044 1.28328 6.68347 1.28328 6.23284 1.28328C6.17651 1.33961 6.12019 1.33962 6.12019 1.33962Z" fill="#414141"/>
<path d="M3.19171 9.22682C3.13538 9.28315 3.07906 9.33948 3.02273 9.39581C2.85374 9.22682 2.68475 9.11416 2.45944 8.94517C2.29045 8.71985 2.00879 8.60719 2.00879 8.26922C2.06512 8.21289 2.12146 8.15655 2.17779 8.10022C2.34678 8.0439 2.40311 8.10023 2.45944 8.26922C2.5721 8.38187 2.68474 8.55086 2.7974 8.66352C2.96639 8.83251 3.07905 9.0015 3.19171 9.22682Z" fill="#EBEBEB"/>
<path d="M2.91016 7.59241C2.91016 7.14178 3.02282 6.8038 3.30447 6.46582C3.3608 6.46582 3.36079 6.46582 3.41712 6.46582C3.47345 6.46582 3.52979 6.46582 3.58612 6.52214L3.64243 6.57848C3.75509 6.69114 3.92408 6.86013 3.92408 7.02912C3.92408 7.08545 3.9241 7.14177 3.86777 7.1981C3.81144 7.25443 3.81143 7.31076 3.7551 7.31076C3.69877 7.31076 3.64245 7.36709 3.58612 7.36709C3.52979 7.36709 3.47345 7.42342 3.41712 7.42342C3.36079 7.47975 3.30446 7.53608 3.1918 7.53608C3.13547 7.59241 3.07915 7.59241 3.02282 7.59241C2.96649 7.64874 2.96649 7.59241 2.91016 7.59241Z" fill="#666666"/>
<path d="M3.30371 6.46497C3.52903 6.23965 3.81068 6.07066 4.14865 6.18332C4.20498 6.23965 4.20497 6.35231 4.20497 6.40864C4.14864 6.57762 4.20498 6.69028 4.09232 6.85927C4.03599 6.9156 3.97965 6.9156 3.92332 6.9156C3.75433 6.85927 3.69801 6.63395 3.47269 6.63395L3.41636 6.57763C3.41636 6.57763 3.41637 6.5213 3.30371 6.46497C3.36004 6.46497 3.30371 6.46497 3.30371 6.46497Z" fill="#666666"/>
<path d="M4.14947 6.46622C4.14947 6.35356 4.14947 6.2409 4.14947 6.18457C4.2058 6.18457 4.26212 6.18457 4.26212 6.18457C4.37478 6.2409 4.37478 6.29723 4.26212 6.29723C4.26212 6.46622 4.31845 6.57887 4.37478 6.69153C4.43111 6.69153 4.48743 6.69154 4.54376 6.74787C4.60009 6.8042 4.6001 6.91685 4.6001 7.02951C4.54377 7.08584 4.54376 7.14217 4.48743 7.1985C4.37477 7.25483 4.20579 7.31115 4.09313 7.1985C4.03681 7.14217 3.98047 7.02951 3.98047 6.91685V6.86052C4.14946 6.74786 4.03681 6.57888 4.14947 6.46622Z" fill="#7D7D7D"/>
<path d="M2.06496 8.26758C2.23395 8.4929 2.45926 8.66188 2.51559 8.94353C2.45926 8.94353 2.40294 8.94353 2.40294 8.94353C2.34661 8.99986 2.29027 8.99986 2.23394 8.94353C2.17762 8.83087 2.12129 8.77454 2.06496 8.66188C1.9523 8.54922 1.9523 8.38024 2.06496 8.26758Z" fill="#C6C6C6"/>
<path d="M2.51505 8.26828C2.40239 8.21195 2.34606 8.15562 2.2334 8.09929C2.2334 7.9303 2.28974 7.87397 2.4024 7.9303C2.51506 7.98663 2.57139 8.04296 2.68405 8.09929C2.57139 8.15562 2.51505 8.21195 2.51505 8.26828Z" fill="#B6B6B6"/>
<path d="M2.23347 8.94434C2.2898 8.94434 2.34614 8.94434 2.40247 8.94434C2.34614 9.11332 2.28981 9.22598 2.12082 9.22598C2.06449 9.28231 2.00816 9.28231 2.00816 9.22598C1.95183 9.16965 1.89551 9.11333 1.89551 9.11333C1.95184 9.057 2.12081 9.057 2.23347 8.94434Z" fill="#EBEBEB"/>
<path d="M2.91026 7.59277C2.96659 7.59277 2.9666 7.59277 3.02292 7.59277C3.19191 7.70543 3.13558 7.87442 3.02292 7.98708C2.9666 7.98708 2.96659 7.98708 2.91026 7.98708C2.85393 7.81809 2.7976 7.70543 2.91026 7.59277Z" fill="#B1B1B1"/>
<path d="M5.66996 7.70485C5.5573 7.59219 5.50098 7.47954 5.50098 7.31055C5.66997 7.42321 5.66996 7.53586 5.66996 7.70485Z" fill="#545454"/>
<path d="M4.31836 6.35289C4.31836 6.29656 4.31836 6.24023 4.31836 6.24023C4.43102 6.24023 4.54368 6.24023 4.65634 6.35289C4.48735 6.29656 4.37469 6.29656 4.31836 6.35289Z" fill="#3B3B3B"/>
<path d="M5.78308 7.98673C5.72675 7.9304 5.67041 7.81774 5.67041 7.70508C5.78307 7.76141 5.83941 7.87407 5.78308 7.98673Z" fill="#545454"/>
<path d="M5.1063 6.74743C5.04997 6.6911 5.04998 6.6911 4.99365 6.63477C4.99365 6.63477 5.04997 6.6911 5.1063 6.74743Z" fill="#3B3B3B"/>
<path d="M4.93786 6.63414C4.88153 6.57781 4.8252 6.57781 4.8252 6.52148C4.88152 6.52148 4.93786 6.57781 4.93786 6.63414Z" fill="#3B3B3B"/>
<path d="M1.38902 8.83141H1.3327H1.27637C1.27637 8.77508 1.27637 8.71875 1.27637 8.71875C1.27637 8.71875 1.33269 8.77508 1.38902 8.83141Z" fill="#626262"/>
<path d="M4.82456 6.46618C4.76823 6.40985 4.76824 6.40985 4.71191 6.35352C4.76824 6.40985 4.76823 6.46618 4.82456 6.46618Z" fill="#3B3B3B"/>
<path d="M1.50134 8.94371C1.44501 8.88738 1.38867 8.88738 1.38867 8.83105C1.445 8.88738 1.50134 8.88738 1.50134 8.94371Z" fill="#626262"/>
<path d="M1.67045 9.05699C1.61412 9.00066 1.55779 9.00067 1.50146 8.94434C1.55779 9.00067 1.61412 9.05699 1.67045 9.05699Z" fill="#626262"/>
<path d="M6.5145 12.7744C6.5145 12.8307 6.5145 12.8871 6.5145 12.9434C6.45817 12.8871 6.40186 12.8307 6.40186 12.7744C6.40186 12.7744 6.45817 12.7744 6.5145 12.7744Z" fill="#F4F4F4"/>
<path d="M6.51442 12.9434C6.62707 12.9434 6.6834 12.9434 6.79606 12.9434C6.85239 13.2813 7.02138 13.5066 7.13404 13.8446C7.19037 14.0136 7.13405 14.07 6.90873 14.07C6.8524 14.1263 6.79606 14.2389 6.79606 14.2953C6.73973 14.2389 6.73974 14.2389 6.68341 14.1826C6.68341 14.0699 6.6834 13.9573 6.73973 13.7883C6.73973 13.6756 6.73974 13.563 6.68341 13.5067C6.57076 13.394 6.45809 13.2813 6.51442 13.1123C6.45809 13.056 6.45809 12.9997 6.51442 12.9434Z" fill="#F4F4F4"/>
<path d="M6.45896 13.1133C6.51529 13.2259 6.57163 13.3949 6.62796 13.5076C6.40264 13.5076 6.34631 13.4513 6.40264 13.2823C6.40264 13.2259 6.45896 13.1696 6.45896 13.1133Z" fill="#C6C6C6"/>
<path d="M9.21826 3.31152C9.27459 3.42418 9.33091 3.48051 9.33091 3.59317C9.33091 3.48051 9.27459 3.36785 9.21826 3.31152Z" fill="#ECECEC"/>
<path d="M9.10645 3.03027C9.16277 3.14293 9.2191 3.19926 9.27543 3.31192C9.2191 3.19926 9.16277 3.14293 9.10645 3.03027Z" fill="#ECECEC"/>
<path d="M8.82471 3.02981C8.93737 2.91715 8.9937 2.91715 9.10635 3.02981C8.9937 3.02981 8.93737 3.02981 8.82471 3.02981Z" fill="#ECECEC"/>
<path d="M9.3877 3.70508C9.44402 3.76141 9.44403 3.81774 9.50036 3.87407C9.50036 3.81774 9.44402 3.76141 9.3877 3.70508Z" fill="#ECECEC"/>
<path d="M6.85325 4.60756C6.85325 4.43857 6.9659 4.32591 7.07856 4.26958C7.07856 4.21325 7.1349 4.15692 7.19123 4.15692C7.36022 4.15692 7.47287 4.10059 7.64186 4.10059C7.64186 4.10059 7.69819 4.15692 7.69819 4.21325C7.64186 4.32591 7.58553 4.43857 7.58553 4.60756C7.58553 4.66389 7.58553 4.66389 7.58553 4.72021C7.64186 4.94553 7.52921 5.11452 7.52921 5.28351C7.52921 5.33984 7.52921 5.4525 7.52921 5.50883C7.52921 5.56516 7.5292 5.62149 7.58553 5.67782C7.58553 5.73415 7.58553 5.79048 7.58553 5.84681C7.5292 5.95947 7.52921 6.07213 7.47288 6.18479C7.41655 6.24112 7.36021 6.29744 7.36021 6.29744C7.30388 6.29744 7.24756 6.35377 7.19123 6.35377C6.79692 6.29744 7.02224 6.01579 6.96591 5.84681C6.79693 5.39617 6.85325 5.00186 6.85325 4.60756Z" fill="#4A4A4A"/>
<path d="M8.26149 6.46599H8.14882C7.52919 6.01536 7.36021 5.39572 7.58552 4.55078C7.69818 4.60711 7.75451 4.60711 7.86717 4.66344C7.9235 4.66344 7.92351 4.71977 7.97984 4.71977C8.26149 5.22674 8.43048 5.7337 8.31782 6.35333C8.26149 6.35333 8.26149 6.40966 8.26149 6.46599Z" fill="white"/>
<path d="M7.86621 4.66293C7.92254 4.55027 7.92255 4.49395 7.97888 4.38129C8.14787 4.26863 8.2042 4.38129 8.26052 4.55028C8.31685 4.60661 8.37318 4.6066 8.42951 4.66293C8.48584 4.66293 8.48584 4.71927 8.48584 4.71927V4.7756C8.5985 4.88826 8.65483 4.94459 8.76749 5.05725C8.71116 5.11358 8.65484 5.16991 8.59851 5.16991C8.54218 5.16991 8.48584 5.22623 8.42951 5.22623C8.09153 5.1699 8.0352 4.83192 7.86621 4.66293Z" fill="#444444"/>
<path d="M8.59912 4.09942C8.82444 4.04309 9.04976 4.09942 9.16242 4.32474C9.21875 4.4374 9.27507 4.60639 9.27507 4.77538C9.04975 4.55006 8.71178 4.38107 8.59912 4.09942Z" fill="#B1B1B1"/>
<path d="M8.26114 4.55051C8.14848 4.49418 8.09215 4.43785 7.97949 4.38152C8.03582 4.38152 8.03583 4.3252 8.09216 4.3252C8.14849 4.3252 8.20481 4.3252 8.26114 4.3252C8.3738 4.38152 8.31747 4.49418 8.26114 4.55051Z" fill="#B0B0B0"/>
<path d="M8.54257 5.11328C8.5989 5.11328 8.65523 5.11328 8.65523 5.11328C8.65523 5.22594 8.65523 5.28227 8.65523 5.39493C8.42992 5.39493 8.48624 5.22594 8.54257 5.11328Z" fill="#707070"/>
<path d="M8.42969 4.77673C8.42969 4.7204 8.42969 4.72039 8.42969 4.66406C8.48602 4.72039 8.48602 4.77673 8.42969 4.77673Z" fill="#838383"/>
<path d="M7.86621 4.66406C7.97887 4.66406 8.09153 4.77673 8.20419 4.88939C8.26052 4.94572 8.37318 5.05837 8.42951 5.1147C8.54217 5.22736 8.48584 5.39635 8.54217 5.50901C8.48584 5.73432 8.48584 5.90331 8.71115 6.0723C8.71115 6.18496 8.71115 6.24129 8.71115 6.35395C8.5985 6.29762 8.42952 6.29762 8.31686 6.35395C8.09154 5.79065 7.92254 5.22736 7.86621 4.66406Z" fill="#707070"/>
<path d="M8.99369 5.90301C8.93736 5.95934 8.88104 5.95934 8.82471 5.90301L8.88104 5.84668C8.88104 5.84668 8.93736 5.84668 8.99369 5.90301Z" fill="#525252"/>
<path d="M8.54235 5.50759C8.42969 5.39493 8.42969 5.28227 8.42969 5.11328C8.48602 5.11328 8.54236 5.11328 8.59869 5.11328C8.65502 5.22594 8.71134 5.28227 8.71134 5.39493C8.65501 5.39493 8.59868 5.45126 8.54235 5.50759Z" fill="#656565"/>
<path d="M8.93683 5.90274H8.82417C8.82417 5.84641 8.82416 5.84641 8.76783 5.79008C8.7115 5.73375 8.7115 5.73375 8.76783 5.67742C8.76783 5.67742 8.76784 5.62109 8.82417 5.62109C8.93683 5.73375 8.93683 5.79008 8.93683 5.90274Z" fill="#828282"/>
<path d="M7.64137 4.55078C7.6977 5.22674 7.92301 5.84637 8.20466 6.46599C8.14833 6.52232 8.09201 6.57864 8.03568 6.63497C7.86669 6.63497 7.75403 6.57865 7.64137 6.46599C7.58504 6.40966 7.47238 6.46599 7.41605 6.40966C7.35972 6.40966 7.35972 6.35333 7.30339 6.297C7.30339 6.24067 7.30339 6.24067 7.30339 6.18434L7.35972 6.12801V6.07168V6.01535C7.35972 5.90269 7.35972 5.73371 7.35972 5.62105C7.35972 5.45206 7.35973 5.33939 7.24707 5.22673C7.3034 5.00142 7.35972 4.71977 7.64137 4.55078Z" fill="#818181"/>
<path d="M7.30375 6.18493C7.41641 6.24126 7.47274 6.35392 7.5854 6.41025C7.52907 6.52291 7.47274 6.63556 7.41641 6.69189C7.24742 6.63556 7.24743 6.46658 7.1911 6.29759C7.13477 6.29759 7.13477 6.24126 7.13477 6.18493C7.13477 6.1286 7.13477 6.1286 7.13477 6.1286L7.1911 6.07227C7.24743 6.1286 7.30375 6.1286 7.30375 6.18493Z" fill="#4B4B4B"/>
<path d="M7.30322 13.5068C7.41588 13.5632 7.47221 13.5632 7.58487 13.5068C7.92285 13.7322 7.97919 14.1265 8.09185 14.5208C8.14818 14.6334 8.09184 14.6898 7.86652 14.8024H7.8102C7.64121 14.5771 7.41589 14.4081 7.41589 14.0701C7.41589 13.8448 7.35955 13.6758 7.30322 13.5068Z" fill="#F8F8F8"/>
<path d="M7.47273 14.0146C7.64172 14.24 7.75437 14.4653 7.86703 14.7469C7.75437 14.7469 7.69804 14.7469 7.58538 14.6906C7.52905 14.5779 7.47273 14.4653 7.4164 14.2963C7.36007 14.24 7.4164 14.1273 7.47273 14.0146Z" fill="#CFCFCF"/>
<path d="M6.79688 12.9446C6.90953 12.8883 6.96586 12.8883 7.07852 12.9446C6.96586 12.9446 6.8532 12.9446 6.79688 12.9446Z" fill="#F4F4F4"/>
<path d="M7.19092 13.3379C7.24725 13.3942 7.30357 13.4505 7.30357 13.4505C7.30357 13.4505 7.24725 13.3942 7.19092 13.3379Z" fill="#F8F8F8"/>
<path d="M7.47222 14.7458C7.47222 14.8021 7.47222 14.9148 7.47222 14.9711C7.41589 14.8584 7.35955 14.8021 7.30322 14.6895C7.35955 14.7458 7.41589 14.7458 7.47222 14.7458Z" fill="#3F3F3F"/>
<path d="M9.38708 2.86055C9.33075 2.80422 9.33075 2.74789 9.38708 2.69156C9.38708 2.63523 9.44342 2.63524 9.49975 2.63524C9.72506 2.46625 9.72505 2.40992 9.55606 2.24093C9.4434 2.12827 9.33074 1.95928 9.27441 1.79029C9.33074 1.73396 9.38708 1.73396 9.38708 1.79029C9.66873 2.01561 9.89405 2.29726 10.063 2.5789C10.1194 2.74789 10.1757 2.97321 10.1757 3.1422C10.1194 3.19853 10.1194 3.25486 10.063 3.25486C9.89405 3.1422 9.83772 2.97321 9.66873 2.86055C9.6124 2.80422 9.49974 2.80422 9.38708 2.86055Z" fill="#ECECEC"/>
<path d="M9.50036 3.142C9.44403 3.02934 9.3877 2.97301 9.3877 2.86035C9.44402 2.97301 9.50036 3.08567 9.50036 3.142Z" fill="#ECECEC"/>
<path d="M7.58447 13.2254C7.75346 12.9438 8.03512 12.8311 8.26043 12.6621C8.59841 13.2254 8.99273 13.7324 8.65475 14.4647C8.3731 14.352 8.26044 14.1267 8.09145 13.9014C8.03512 13.7887 7.97878 13.6197 7.86612 13.4507C7.86612 13.3381 7.75346 13.2254 7.58447 13.2254Z" fill="#F8F8F8"/>
<path d="M8.71174 13.0557C8.8244 13.112 8.88073 13.1683 8.99339 13.1683C9.27504 13.5063 9.3877 13.9006 9.3877 14.2949C9.27505 14.3512 9.16239 14.2949 9.10606 14.1823C9.04973 14.1259 8.99339 14.0133 8.99339 13.9569C8.76807 13.7316 8.48642 13.5063 8.71174 13.0557Z" fill="#F8F8F8"/>
<path d="M8.71186 13.0561C8.82452 13.3941 8.88085 13.7321 8.99351 14.0137C8.88085 14.1264 8.82452 14.2954 8.71186 14.408C8.71186 14.07 8.65553 13.7321 8.48655 13.3941C8.37389 13.1688 8.26123 12.8871 8.26123 12.6055C8.31756 12.6055 8.31757 12.6055 8.3739 12.6055C8.43023 12.6618 8.48655 12.7181 8.54288 12.7181C8.65554 12.8871 8.5992 12.9998 8.71186 13.0561Z" fill="#CACACA"/>
<path d="M8.71143 12.0987C8.88041 11.986 9.04941 11.9297 9.10574 11.7044C9.16207 11.648 9.21839 11.648 9.27472 11.7044C9.33105 11.7607 9.33105 11.817 9.27472 11.8733C9.21839 12.2677 9.38739 12.5493 9.50005 12.8873C9.50005 12.9436 9.50005 12.9436 9.50005 12.9999C9.44372 12.9999 9.38739 12.9999 9.38739 12.9436C9.27473 12.7746 9.16207 12.5493 9.04941 12.3803C8.93675 12.3803 8.82409 12.324 8.76776 12.2113C8.71143 12.155 8.71143 12.155 8.71143 12.0987Z" fill="#F8F8F8"/>
<path d="M9.83823 11.7051C9.95089 11.8741 10.0072 12.0431 10.1199 12.2684C10.1199 12.381 10.1199 12.4374 10.1199 12.55C10.1199 12.55 10.1199 12.6064 10.0636 12.6064H10.0072C9.83825 12.381 9.78192 12.1557 9.72559 11.8741V11.8177C9.72559 11.7614 9.78191 11.7614 9.83823 11.7614V11.7051Z" fill="#F3F3F3"/>
<path d="M9.72577 12.8877C9.83843 12.944 9.83842 13.0004 9.83842 13.113C9.83842 13.1693 9.7821 13.1693 9.7821 13.2257C9.72577 13.282 9.66943 13.2257 9.66943 13.113C9.66943 13.0004 9.66944 12.944 9.72577 12.8877Z" fill="#F1F1F1"/>
<path d="M9.27458 11.8168C9.27458 11.7605 9.27458 11.7605 9.27458 11.7042C9.21825 11.6479 9.21826 11.5352 9.21826 11.4789C9.21826 11.4225 9.27458 11.3662 9.33091 11.3662C9.38724 11.3662 9.44358 11.3662 9.49991 11.3662C9.55624 11.4225 9.61256 11.4789 9.66889 11.5352C9.72522 11.5915 9.72522 11.6479 9.72522 11.7042C9.72522 11.7605 9.72522 11.8168 9.66889 11.8732C9.4999 11.8168 9.38724 11.8168 9.27458 11.8168Z" fill="#B1B1B1"/>
<path d="M8.8237 12.6619C8.65471 12.4929 8.54205 12.324 8.71103 12.0986H8.76737C8.93636 12.2113 8.99269 12.3239 8.88003 12.4929C8.8237 12.5493 8.8237 12.6056 8.8237 12.6619Z" fill="#F8F8F8"/>
<path d="M8.82409 12.5496C8.76776 12.4369 8.76776 12.2679 8.71143 12.1553C8.88041 12.1553 8.93674 12.2679 8.99307 12.3806C8.93674 12.4369 8.88042 12.4932 8.82409 12.5496Z" fill="#A2A2A2"/>
<path d="M8.93737 12.7748C8.88104 12.7184 8.88104 12.7184 8.82471 12.6621C8.88104 12.7184 8.93737 12.7748 8.93737 12.7748Z" fill="#F8F8F8"/>
<path d="M9.50093 10.4648C9.55726 10.5212 9.61359 10.5212 9.66992 10.5775C9.8389 10.6902 10.0079 10.8028 10.0079 11.0281C10.0079 11.1971 10.1769 11.3098 10.0642 11.4788C9.95157 11.4224 9.78257 11.4788 9.66992 11.3661C9.4446 11.0845 9.27562 10.8028 9.50093 10.4648Z" fill="#C0C0C0"/>
<path d="M9.78192 11.2539C9.89458 11.3102 9.95091 11.3666 10.0636 11.3666C10.0072 11.4229 9.89456 11.4792 9.83823 11.5356H9.78192C9.72559 11.4792 9.72559 11.4229 9.72559 11.3666C9.72559 11.3666 9.72559 11.3666 9.78192 11.2539C9.78192 11.3102 9.78192 11.3102 9.78192 11.2539Z" fill="#D1D1D1"/>
<path d="M9.83854 11.5918C9.83854 11.6481 9.83854 11.7045 9.83854 11.7045L9.78222 11.7608H9.72589H9.66956C9.61323 11.6481 9.66956 11.5918 9.78222 11.5918H9.83854Z" fill="#C0C0C0"/>
<path d="M3.02197 7.98744C3.02197 7.87478 3.02197 7.70579 3.02197 7.59313L3.07829 7.5368C3.19095 7.48047 3.30361 7.48047 3.4726 7.48047C3.52893 7.48047 3.58525 7.53681 3.64158 7.59313C3.75424 7.70579 3.81059 7.87478 3.86692 7.98744C3.86692 8.04377 3.92324 8.15643 3.97957 8.21275C4.03589 8.32541 4.09223 8.43807 4.14856 8.4944C4.20489 8.60706 4.20489 8.6634 4.09223 8.71973C4.0359 8.77606 3.92325 8.77605 3.86692 8.83238C3.81059 8.83238 3.75425 8.83238 3.75425 8.83238C3.4726 8.83238 3.41627 8.60707 3.35994 8.43808C3.35994 8.32542 3.35995 8.26909 3.30362 8.15643C3.24729 8.1001 3.19095 8.04377 3.19095 7.98744C3.0783 8.04377 3.02197 8.04377 3.02197 7.98744Z" fill="#686868"/>
<path d="M3.19208 8.5498C3.30473 8.66246 3.47373 8.83145 3.58639 8.94411C3.36107 9.05677 3.30474 9.05677 3.24841 8.88778C3.19208 8.83145 3.19208 8.77512 3.19208 8.7188C3.13575 8.66247 3.13574 8.66246 3.13574 8.60613C3.13574 8.5498 3.19208 8.5498 3.19208 8.5498Z" fill="#B1B1B1"/>
<path d="M3.75488 8.94371C3.81121 8.88738 3.92387 8.83105 3.9802 8.83105C3.92387 8.88738 3.86755 8.94371 3.86755 8.94371C3.81122 8.94371 3.81121 8.94371 3.75488 8.94371Z" fill="#3B3B3B"/>
<path d="M3.69846 9.33876C3.64213 9.33876 3.52947 9.33876 3.47314 9.39509C3.52947 9.28243 3.64213 9.28243 3.69846 9.33876Z" fill="#DEDEDE"/>
<path d="M3.19079 8.5498C3.19079 8.60613 3.19079 8.66246 3.19079 8.66246C3.13446 8.60613 3.07812 8.5498 3.07812 8.5498C3.07812 8.5498 3.13446 8.5498 3.19079 8.5498Z" fill="#B6B6B6"/>
<path d="M3.07812 8.09961C3.13445 8.15594 3.13446 8.21227 3.19079 8.2686C3.13446 8.21227 3.07812 8.15594 3.07812 8.09961Z" fill="#B1B1B1"/>
<path d="M3.98011 6.91619C4.03644 6.97252 4.09278 7.08519 4.14911 7.14152C4.20544 7.19785 4.31809 7.25417 4.31809 7.36683C4.43075 7.53582 4.37441 7.70481 4.26176 7.81747C4.20543 7.93013 4.14911 7.98646 4.14911 8.09912C3.92379 8.04279 3.81112 7.8738 3.69846 7.70481C3.64213 7.64848 3.64213 7.53582 3.64213 7.47949C3.64213 7.42316 3.64213 7.36684 3.64213 7.31051C3.64213 7.25418 3.64213 7.19785 3.69846 7.14152C3.69846 6.9162 3.5858 6.80353 3.47314 6.63454C3.75479 6.52189 3.7548 6.52189 3.86746 6.74721C3.92379 6.80354 3.98011 6.85986 3.98011 6.91619Z" fill="#B7B7B7"/>
<path d="M4.31774 7.81725C4.26141 7.64826 4.20508 7.5356 4.20508 7.36661C4.26141 7.31028 4.37408 7.19762 4.43041 7.14129C4.48674 7.08496 4.5994 7.08496 4.65573 7.08496C4.71205 7.08496 4.76838 7.08496 4.82471 7.14129C4.88104 7.19762 4.88104 7.19762 4.93737 7.25395C4.9937 7.31028 5.05003 7.36661 5.10635 7.47927C5.16268 7.64825 5.16269 7.76092 5.21902 7.9299C5.21902 8.09889 5.16268 8.26788 5.05002 8.38054C5.05002 8.4932 5.05002 8.60586 5.05002 8.71852C4.93736 8.77485 4.88104 8.71852 4.82471 8.60586C4.76838 8.32421 4.76837 8.04257 4.48673 7.87358C4.37407 7.81725 4.31774 7.81725 4.31774 7.81725Z" fill="#8F8F8F"/>
<path d="M4.43018 7.87353C4.59916 7.8172 4.65548 7.8172 4.76814 7.98619C4.8808 8.15518 4.88081 8.3805 4.88081 8.54949C4.82448 8.60582 4.76814 8.60582 4.76814 8.54949C4.59915 8.32417 4.48651 8.09885 4.43018 7.87353Z" fill="#747474"/>
<path d="M4.03661 8.83087C3.98028 8.77454 3.92394 8.71822 3.92394 8.71822C3.86761 8.66189 3.86762 8.66188 3.81129 8.60555C3.75496 8.54922 3.75496 8.43657 3.81129 8.38024C3.81129 8.38024 3.81129 8.3239 3.86762 8.3239C3.92395 8.26757 3.92394 8.26758 3.98027 8.26758C4.09293 8.26758 4.14926 8.32391 4.20559 8.38024C4.31825 8.54922 4.37458 8.71821 4.48723 8.94353C4.31825 8.8872 4.14926 8.8872 4.03661 8.83087Z" fill="#828282"/>
<path d="M4.14938 8.26873C4.09305 8.26873 3.98037 8.26873 3.92405 8.26873C3.69873 8.15607 3.69873 7.93074 3.69873 7.76176C3.75506 7.6491 3.81139 7.59277 3.92405 7.59277C4.09303 7.76176 4.14936 7.98708 4.20569 8.15607C4.14936 8.15607 4.14938 8.2124 4.14938 8.26873Z" fill="#676767"/>
<path d="M4.71209 8.49316C4.76842 8.49316 4.76841 8.49316 4.82474 8.49316C4.88107 8.54949 4.93741 8.60582 4.93741 8.66215C4.93741 8.71848 4.93741 8.77481 4.93741 8.77481C4.82475 8.77481 4.76842 8.77481 4.65576 8.77481C4.65576 8.71848 4.65577 8.60582 4.71209 8.49316Z" fill="#BEBEBE"/>
<path d="M8.71213 8.94411C8.6558 8.83145 8.59948 8.77512 8.54315 8.66246L8.48682 8.60613L8.54315 8.5498C8.88113 8.71879 9.05012 9.05677 9.21911 9.39475C9.10645 9.39475 9.05012 9.39475 8.93746 9.39475C8.59949 9.39475 8.88112 9.05677 8.71213 8.94411Z" fill="#B8B8B8"/>
<path d="M8.42983 8.55007C8.26084 8.32475 8.09186 8.15576 7.92287 7.93044C7.81021 7.81778 7.86655 7.76145 8.03553 7.53613C8.03553 7.76145 8.14819 7.93044 8.31718 8.0431C8.42984 8.21208 8.5425 8.38107 8.59883 8.60639C8.5425 8.60639 8.48616 8.6064 8.42983 8.55007Z" fill="#B9B9B9"/>
<path d="M9.50031 10.4648C9.61297 10.7465 9.6693 11.0281 9.78196 11.3098C9.72563 11.3661 9.72562 11.3661 9.66929 11.4224C9.55663 11.4788 9.5003 11.5351 9.38764 11.4788C9.33131 11.4788 9.27499 11.4788 9.21866 11.4788C9.106 11.4224 9.04967 11.3098 8.93701 11.1971C8.93701 11.0281 9.04967 10.9155 9.16233 10.8028C9.16233 10.6902 9.16232 10.5775 9.33131 10.5212C9.44397 10.4648 9.50031 10.4648 9.50031 10.4648Z" fill="#E7E7E7"/>
<path d="M8.71161 8.94434C8.82427 9.057 8.8806 9.22598 8.99326 9.33864C9.04959 9.50763 9.10592 9.62029 8.99326 9.78928H8.93694C8.88061 9.78928 8.82427 9.73295 8.76795 9.73295C8.65529 9.67662 8.59896 9.56396 8.54263 9.50763C8.42997 9.39497 8.31731 9.28232 8.42996 9.11333C8.54262 9.11333 8.65528 9.11332 8.71161 8.94434Z" fill="#D2D2D2"/>
<path d="M8.59869 9.5077C8.65502 9.56403 8.76767 9.62036 8.824 9.67669C8.88033 9.73302 8.93665 9.78935 8.99298 9.84568C8.99298 9.90201 8.99298 9.90201 8.99298 9.95834C9.04931 10.1273 8.99299 10.1273 8.88033 10.071C8.71135 9.902 8.59868 9.73302 8.42969 9.56403C8.42969 9.45137 8.54236 9.39504 8.59869 9.5077Z" fill="#545454"/>
<path d="M9.38809 10.4652C9.33176 10.5779 9.27544 10.6342 9.21911 10.7469C9.16278 10.6906 9.16277 10.6342 9.10645 10.5779C9.16277 10.4652 9.10645 10.2963 9.21911 10.1836C9.27544 10.2963 9.33176 10.3526 9.38809 10.4652Z" fill="#DADADA"/>
<path d="M8.82471 10.014C8.88104 9.9577 8.93737 9.90137 8.93737 9.90137C8.9937 10.014 9.05003 10.0704 9.10635 10.183C9.16268 10.2957 9.10636 10.352 8.93737 10.352C8.93737 10.2393 8.88104 10.1267 8.82471 10.014Z" fill="#7E7E7E"/>
<path d="M8.99268 10.2959C9.04901 10.2396 9.10535 10.1833 9.16167 10.127C9.218 10.127 9.21799 10.127 9.27432 10.127C9.27432 10.2959 9.27433 10.4086 9.16167 10.5213C9.04902 10.5213 9.04901 10.4086 8.99268 10.2959Z" fill="#9C9C9C"/>
<path d="M8.93688 1.50882C8.82422 1.50882 8.71155 1.50882 8.59889 1.50882C8.31725 1.33983 8.54257 1.22717 8.65523 1.11451C8.76789 1.05818 8.82422 1.05818 8.93688 1.11451C9.04953 1.22717 9.04953 1.39616 8.93688 1.50882Z" fill="#565656"/>
<path d="M9.38708 1.78976C9.33075 1.78976 9.33074 1.78976 9.27441 1.78976V1.73342C9.33074 1.50811 9.33074 1.50811 9.55606 1.6771C9.49973 1.6771 9.44341 1.73343 9.38708 1.78976Z" fill="#BEBEBE"/>
<path d="M2.62833 9.50719C2.51567 9.50719 2.45934 9.50719 2.34668 9.50719C2.34668 9.45086 2.34668 9.45086 2.34668 9.39453C2.45934 9.39453 2.572 9.39453 2.62833 9.50719Z" fill="#575757"/>
<path d="M1.95166 9.22656C2.00799 9.22656 2.06433 9.22656 2.06433 9.22656C2.06433 9.28289 2.06433 9.28289 2.12066 9.33922C2.06433 9.28289 2.00799 9.28289 1.95166 9.22656Z" fill="#575757"/>
<path d="M7.97949 7.47953C7.97949 7.4232 7.97949 7.36688 7.97949 7.31055C8.03582 7.31055 8.09214 7.31055 8.14847 7.31055C8.14847 7.36688 8.14847 7.4232 8.14847 7.47953C8.09214 7.47953 8.03582 7.47953 7.97949 7.47953Z" fill="#393939"/>
<path d="M7.86722 7.19828C7.75456 7.19828 7.75457 7.14196 7.69824 7.0293C7.75457 7.08563 7.81089 7.14195 7.86722 7.19828Z" fill="#2E2E2E"/>
<path d="M4.82532 7.4232C4.82532 7.36687 4.82532 7.31054 4.82532 7.31054C4.76899 7.19789 4.82533 7.14155 4.93799 7.19788C5.10697 7.36687 5.21964 7.53586 5.27597 7.76117C5.27597 7.8175 5.27596 7.87384 5.21963 7.93016C5.10697 7.98649 5.05064 7.9865 4.93799 7.87384C4.99432 7.70485 4.93798 7.53586 4.82532 7.4232Z" fill="#C3C3C3"/>
<path d="M5.27549 8.55065C5.27549 8.49432 5.27549 8.43798 5.27549 8.38166C5.1065 8.15634 5.21915 8.04368 5.38814 7.87469L5.44447 7.81836C5.55713 7.98735 5.55714 8.15634 5.55714 8.38166C5.50081 8.43798 5.44447 8.49432 5.38814 8.55065H5.33181H5.27549Z" fill="#545454"/>
<path d="M4.93826 7.14138C4.88193 7.19771 4.88192 7.25403 4.82559 7.25403C4.76926 7.25403 4.71294 7.25403 4.65661 7.25403C4.65661 7.1977 4.60028 7.19771 4.60028 7.14138C4.54395 7.08505 4.54395 7.08505 4.54395 7.02872V6.97239C4.54395 6.91606 4.54395 6.8034 4.54395 6.74707C4.60027 6.74707 4.60028 6.74707 4.65661 6.74707C4.71294 6.8034 4.76926 6.8034 4.82559 6.85973C4.88192 6.97239 4.93826 7.08505 4.93826 7.14138Z" fill="#ADADAD"/>
<path d="M4.82474 6.85973C4.76841 6.8034 4.71209 6.8034 4.65576 6.74707C4.71209 6.8034 4.76841 6.8034 4.82474 6.85973Z" fill="#3B3B3B"/>
<path d="M5.38867 8.54985C5.445 8.49352 5.50134 8.43719 5.55767 8.38086C5.50134 8.43719 5.445 8.49352 5.38867 8.54985Z" fill="#0F0F0F"/>
<path d="M5.27539 7.81774C5.27539 7.76141 5.27539 7.70508 5.27539 7.70508C5.33172 7.76141 5.33171 7.76141 5.38804 7.81774L5.33171 7.87407L5.27539 7.81774Z" fill="#545454"/>
<path d="M5.2753 7.81836C5.33163 7.81836 5.33162 7.87469 5.38795 7.87469C5.33162 8.04368 5.33163 8.21267 5.2753 8.38166C5.16264 8.38166 5.10631 8.38166 4.99365 8.38166C4.99365 8.21267 4.99365 8.04368 4.99365 7.87469C5.10631 7.87469 5.16264 7.81836 5.2753 7.81836Z" fill="#E7E7E7"/>
<path d="M6.85303 4.60645C6.90936 4.77543 6.9657 4.88809 6.9657 5.05708C6.90937 5.2824 6.96569 5.50771 7.02202 5.78936C6.90936 5.90202 6.85303 5.90202 6.74037 5.78936C6.74037 5.62037 6.68404 5.45139 6.74037 5.2824C6.74037 5.05708 6.74037 4.83176 6.85303 4.60645Z" fill="#4B4B4B"/>
<path d="M6.73975 5.79004C6.85241 5.79004 6.90873 5.79004 7.02139 5.79004C7.02139 5.95903 6.90874 6.12802 7.13406 6.24068C7.13406 6.29701 7.19039 6.35334 7.19039 6.40967C6.96507 6.40967 6.79608 6.29701 6.79608 6.07169C6.79608 5.95903 6.79608 5.84637 6.73975 5.79004Z" fill="#767676"/>
<path d="M8.09227 9.28195C7.97961 9.22562 7.86695 9.11295 7.75429 9.05662C7.69796 9.00029 7.75429 8.88764 7.81062 8.83131C7.86695 8.77498 7.92327 8.77498 7.9796 8.83131C8.09226 8.94397 8.14859 9.05663 8.26125 9.11296C8.26125 9.16929 8.20493 9.22562 8.09227 9.28195Z" fill="#6B6B6B"/>
<path d="M8.0918 9.28227C8.14813 9.22594 8.20445 9.16961 8.26078 9.11328C8.31711 9.11328 8.31712 9.11328 8.37344 9.16961C8.42977 9.28226 8.54243 9.39493 8.59876 9.56392C8.54243 9.56392 8.42977 9.56392 8.37344 9.56392C8.26079 9.45126 8.20446 9.39493 8.0918 9.28227Z" fill="#4E4E4E"/>
<path d="M8.99268 11.1416C9.21799 11.1416 9.21799 11.1416 9.27432 11.4232C9.21799 11.5359 9.16167 11.5359 9.16167 11.4232C9.10535 11.3669 9.04901 11.3106 9.04901 11.2543C8.99268 11.2543 8.99268 11.1979 8.99268 11.1416Z" fill="#B1B1B1"/>
<path d="M8.71202 1.11426C8.65569 1.22692 8.54305 1.3959 8.65571 1.50856C8.43039 1.28324 8.43037 1.22692 8.71202 1.11426Z" fill="#EFEFEF"/>
<path d="M9.10645 11.4229C9.16277 11.4229 9.21911 11.4229 9.21911 11.4229C9.21911 11.5355 9.21911 11.5918 9.21911 11.7045C9.16278 11.7045 9.10645 11.7045 9.10645 11.7045C9.10645 11.5918 9.10645 11.5355 9.10645 11.4229Z" fill="#D1D1D1"/>
<path d="M8.99307 1.11477C8.88041 1.11477 8.82408 1.11477 8.71143 1.11477C8.76776 1.00211 8.88041 1.00211 8.99307 1.11477Z" fill="#EFEFEF"/>
<path d="M8.71195 13.0561C8.65562 12.9434 8.5993 12.8871 8.54297 12.7744C8.5993 12.8871 8.65562 12.9997 8.71195 13.0561Z" fill="#F8F8F8"/>
<path d="M8.42969 8.5498C8.48602 8.5498 8.54235 8.5498 8.54235 8.5498C8.54235 8.60613 8.54235 8.66247 8.54235 8.7188C8.48602 8.60614 8.48602 8.60613 8.42969 8.5498Z" fill="#DCDCDC"/>
<path d="M7.19128 4.15625C7.13495 4.21258 7.13494 4.21258 7.07861 4.26891C7.13494 4.21258 7.13495 4.21258 7.19128 4.15625Z" fill="#656565"/>
<path d="M8.99268 11.2539C9.04901 11.3102 9.04901 11.3666 9.10534 11.4229C9.04901 11.3666 9.04901 11.3102 8.99268 11.2539Z" fill="#E7E7E7"/>
<path d="M8.54252 12.8304C8.48619 12.7741 8.42986 12.7178 8.37354 12.7178C8.48619 12.7178 8.48619 12.7741 8.54252 12.8304Z" fill="#F8F8F8"/>
<path d="M3.86746 7.53622C3.81113 7.59255 3.75479 7.64888 3.75479 7.70521C3.5858 7.70521 3.52947 7.59255 3.47314 7.47989C3.47314 7.36723 3.52948 7.25457 3.58581 7.19824C3.64214 7.19824 3.69846 7.19824 3.69846 7.19824C3.75479 7.19824 3.7548 7.19824 3.81113 7.19824C3.86746 7.19824 3.92379 7.25458 3.86746 7.31091C3.86746 7.36724 3.86746 7.47989 3.86746 7.53622Z" fill="#5A5A5A"/>
<path d="M3.30362 7.7049C3.19096 7.64857 3.13463 7.59224 3.02197 7.53591C3.02197 7.36692 3.13463 7.25426 3.24729 7.1416C3.47261 7.31059 3.47261 7.53591 3.30362 7.7049Z" fill="#4A4A4A"/>
<path d="M3.30389 7.70515C3.30389 7.53616 3.24756 7.31085 3.24756 7.14186C3.30389 7.14186 3.36021 7.14186 3.41654 7.14186C3.47287 7.08553 3.52921 7.08553 3.52921 7.14186C3.52921 7.25452 3.52921 7.31085 3.52921 7.4235C3.47288 7.53616 3.5292 7.64882 3.36021 7.70515C3.41654 7.70515 3.36022 7.70515 3.30389 7.70515Z" fill="#9A9A9A"/>
<path d="M3.35986 6.52148C3.41619 6.52148 3.4162 6.57782 3.4162 6.57782L3.35986 6.52148Z" fill="#272727"/>
<path d="M4.14929 6.46582C4.14929 6.57848 4.14928 6.74747 4.03662 6.86013C4.03662 6.74747 4.03663 6.57848 4.14929 6.46582Z" fill="#3B3B3B"/>
<path d="M4.43057 7.31094C4.31791 7.36727 4.26158 7.36727 4.14893 7.4236C4.14893 7.31094 4.14893 7.25461 4.14893 7.14195C4.26158 7.08562 4.31791 7.0293 4.43057 7.0293C4.4869 7.14196 4.4869 7.25462 4.43057 7.31094Z" fill="#696969"/>
<path d="M4.43018 7.31094C4.43018 7.19829 4.43018 7.08563 4.43018 7.0293C4.48651 7.0293 4.54282 7.0293 4.54282 7.0293C4.59915 7.08563 4.65549 7.14195 4.65549 7.19828C4.65549 7.25461 4.65549 7.25462 4.65549 7.31094C4.59916 7.31094 4.48651 7.31094 4.43018 7.31094Z" fill="#424242"/>
<path d="M7.19092 5.22656C7.47257 5.33922 7.47256 5.33923 7.30357 5.62088C7.24724 5.56455 7.19092 5.50822 7.19092 5.45189C7.19092 5.39556 7.19092 5.33922 7.19092 5.22656Z" fill="#B6B6B6"/>
<path d="M7.30357 6.18364C7.24724 6.18364 7.19092 6.18364 7.19092 6.18364C7.24725 6.12731 7.30357 6.07098 7.30357 6.01465C7.41623 6.07098 7.41623 6.12731 7.30357 6.18364Z" fill="#111111"/>
<path d="M7.19092 5.45117C7.24725 5.5075 7.24724 5.56383 7.30357 5.62016C7.24724 5.56383 7.24725 5.5075 7.19092 5.45117Z" fill="#4B4B4B"/>
<path d="M7.47276 6.07227C7.52909 6.07227 7.58541 6.07227 7.58541 6.07227C7.64174 6.18492 7.52909 6.18493 7.47276 6.18493C7.41643 6.18493 7.3601 6.1286 7.47276 6.07227Z" fill="white"/>
<path d="M7.47222 6.07097C7.47222 6.1273 7.47222 6.18364 7.47222 6.18364C7.41589 6.18364 7.35955 6.18364 7.30322 6.18364C7.30322 6.12731 7.30322 6.07098 7.30322 6.01465C7.35955 6.07098 7.41589 6.07097 7.47222 6.07097Z" fill="#4B4B4B"/>
<path d="M9.72577 11.7051C9.7821 11.7051 9.78209 11.7051 9.83842 11.7051C9.78209 11.7614 9.72576 11.8177 9.66943 11.8177C9.66943 11.8177 9.66944 11.7614 9.72577 11.7051Z" fill="#D1D1D1"/>
<path d="M9.3877 11.4222C9.44402 11.3659 9.55668 11.3096 9.61301 11.3096C9.66934 11.3096 9.72568 11.3659 9.72568 11.4786C9.72568 11.4786 9.72568 11.5349 9.72568 11.5912C9.66935 11.6475 9.66934 11.7039 9.61301 11.7602C9.50035 11.7039 9.3877 11.5912 9.3877 11.4222Z" fill="#444444"/>
<path d="M9.7821 11.4786C9.72577 11.4222 9.66943 11.3659 9.66943 11.3096C9.72576 11.3096 9.78209 11.3096 9.83842 11.3096C9.78209 11.3659 9.7821 11.4222 9.7821 11.4786Z" fill="#C0C0C0"/>
<path d="M3.47314 7.7045C3.52947 7.59184 3.5858 7.53551 3.64213 7.42285C3.69846 7.53551 3.7548 7.59184 3.81113 7.7045C3.86746 7.87349 3.92377 8.04248 3.92377 8.2678C3.92377 8.32412 3.92377 8.38046 3.92377 8.43679C3.86744 8.49312 3.81112 8.49311 3.75479 8.49311C3.64213 8.38045 3.69846 8.2678 3.64213 8.15514C3.52947 7.98615 3.52947 7.87349 3.47314 7.7045Z" fill="#C8C8C8"/>
<path d="M3.75443 8.38037C3.81076 8.38037 3.8671 8.38037 3.8671 8.38037C3.92343 8.38037 3.92341 8.4367 3.92341 8.49303C3.92341 8.54936 3.92343 8.54936 3.8671 8.54936C3.8671 8.60569 3.8671 8.66202 3.8671 8.71835C3.75444 8.66202 3.64178 8.60569 3.58545 8.49303C3.64178 8.32404 3.6981 8.32404 3.75443 8.38037Z" fill="#656565"/>
<path d="M3.75469 8.38059C3.69836 8.38059 3.64203 8.43692 3.5857 8.43692C3.52937 8.32426 3.52937 8.2116 3.5857 8.15527C3.64203 8.2116 3.69836 8.26793 3.75469 8.38059Z" fill="#B1B1B1"/>
<path d="M3.86737 7.25426C3.86737 7.19793 3.81104 7.19793 3.81104 7.1416C3.86736 7.19793 3.86737 7.25426 3.86737 7.25426Z" fill="white"/>
<path d="M3.86719 8.55016C3.86719 8.49383 3.86719 8.4375 3.86719 8.4375C3.86719 8.4375 3.86719 8.4375 3.86719 8.55016C3.92352 8.49383 3.86719 8.49383 3.86719 8.55016Z" fill="#A9A9A9"/>
<path d="M8.99369 9.78911C8.93736 9.73278 8.88104 9.67645 8.82471 9.62012C8.88104 9.67645 8.93736 9.73278 8.99369 9.78911Z" fill="#C8C8C8"/>
<path d="M4.71276 7.19828C4.65643 7.14195 4.65643 7.08563 4.6001 7.0293C4.6001 7.08563 4.65643 7.14195 4.71276 7.19828Z" fill="#8F8F8F"/>
</g>
</svg>
