<svg width="140" height="155" viewBox="0 0 140 155" fill="none" xmlns="http://www.w3.org/2000/svg">
<g id="erroring 1" clip-path="url(#clip0_13799_21339)">
<g id="Group">
<g id="Layer 2">
<g id="Layer 1">
<path id="Vector" d="M138.275 143.846C138.275 148.189 123.075 151.953 100.892 153.795C91.6146 154.569 81.117 155 70.0006 155C58.8842 155 48.3792 154.569 39.1068 153.795C16.9237 151.953 1.72412 148.189 1.72412 143.846C1.72412 139.503 16.9237 135.736 39.1068 133.894C48.3842 133.12 58.8817 132.688 70.0006 132.688C81.1195 132.688 91.6221 133.12 100.892 133.894C123.075 135.736 138.275 139.503 138.275 143.846Z" fill="url(#paint0_linear_13799_21339)"/>
<path id="Vector_2" d="M100.9 118.176V153.794C91.6225 154.568 81.125 155 70.0086 155C58.8922 155 48.3871 154.568 39.1148 153.794V118.176C39.0782 114.078 39.8502 110.014 41.3863 106.217C42.9224 102.421 45.1921 98.9673 48.0644 96.0566C50.9366 93.1459 54.3546 90.8354 58.1208 89.2587C61.887 87.6819 65.927 86.8701 70.0073 86.8701C74.0877 86.8701 78.1276 87.6819 81.8938 89.2587C85.6601 90.8354 89.078 93.1459 91.9503 96.0566C94.8226 98.9673 97.0923 102.421 98.6283 106.217C100.164 110.014 100.936 114.078 100.9 118.176Z" fill="url(#paint1_linear_13799_21339)"/>
<path id="Vector_3" d="M83.3639 132.688C87.2771 132.688 90.4493 129.502 90.4493 125.572C90.4493 121.642 87.2771 118.456 83.3639 118.456C79.4508 118.456 76.2786 121.642 76.2786 125.572C76.2786 129.502 79.4508 132.688 83.3639 132.688Z" fill="url(#paint2_radial_13799_21339)"/>
<path id="Vector_4" d="M83.3641 128.499C84.4608 128.499 85.3498 127.606 85.3498 126.505C85.3498 125.404 84.4608 124.511 83.3641 124.511C82.2674 124.511 81.3784 125.404 81.3784 126.505C81.3784 127.606 82.2674 128.499 83.3641 128.499Z" fill="url(#paint3_linear_13799_21339)"/>
<path id="Vector_5" d="M56.6357 132.688C60.5488 132.688 63.721 129.502 63.721 125.572C63.721 121.642 60.5488 118.456 56.6357 118.456C52.7225 118.456 49.5503 121.642 49.5503 125.572C49.5503 129.502 52.7225 132.688 56.6357 132.688Z" fill="url(#paint4_radial_13799_21339)"/>
<path id="Vector_6" d="M56.6353 129.561C57.732 129.561 58.621 128.668 58.621 127.567C58.621 126.465 57.732 125.572 56.6353 125.572C55.5387 125.572 54.6497 126.465 54.6497 127.567C54.6497 128.668 55.5387 129.561 56.6353 129.561Z" fill="url(#paint5_linear_13799_21339)"/>
<path id="Vector_7" d="M117.347 98.5724L20.1848 129.193L20.5874 104.673L20.8359 89.412L20.9279 83.811L21.3752 56.3548L21.7157 35.4931L22.1183 10.0462C22.1338 9.08469 22.4504 8.15247 23.0232 7.38185C23.596 6.61123 24.3959 6.04135 25.3093 5.75308L42.9097 0.209436C43.8225 -0.0763273 44.8017 -0.0666874 45.7088 0.236993C46.6159 0.540674 47.4051 1.12303 47.9646 1.90173L62.7741 22.5363L74.9193 39.4643L90.9142 61.7512L94.1898 66.2964L103.072 78.6791L117.347 98.5724Z" fill="url(#paint6_linear_13799_21339)"/>
<path id="Vector_8" d="M137.109 101.021L5.35786 142.544C4.8414 142.707 4.29803 142.767 3.7588 142.718C3.21957 142.67 2.69506 142.516 2.21524 142.264C1.73541 142.013 1.30968 141.668 0.962365 141.251C0.615052 140.834 0.352967 140.353 0.191086 139.834C0.0288564 139.315 -0.0300136 138.769 0.0178397 138.228C0.065693 137.686 0.219332 137.159 0.469976 136.678C0.720621 136.196 1.06336 135.768 1.4786 135.419C1.89385 135.07 2.37346 134.807 2.89004 134.645L134.642 93.1209C135.158 92.9579 135.701 92.8988 136.241 92.9469C136.78 92.9949 137.304 93.1492 137.784 93.401C138.264 93.6527 138.69 93.9969 139.037 94.414C139.384 94.831 139.646 95.3127 139.808 95.8315C139.971 96.3502 140.03 96.896 139.982 97.4377C139.935 97.9794 139.781 98.5063 139.53 98.9883C139.28 99.4703 138.937 99.8979 138.521 100.247C138.106 100.595 137.626 100.858 137.109 101.021Z" fill="url(#paint7_linear_13799_21339)"/>
<path id="Vector_9" d="M74.9266 39.4641L21.3726 56.3422L21.713 35.4805L62.7813 22.5361L74.9266 39.4641Z" fill="url(#paint8_linear_13799_21339)"/>
<path id="Vector_10" d="M103.067 78.6765L20.5847 104.672L20.9252 83.8108L90.9215 61.751L103.067 78.6765Z" fill="url(#paint9_linear_13799_21339)"/>
<path id="Vector_11" style="mix-blend-mode:multiply" d="M117.347 98.5728L20.1848 129.194L20.5874 104.673L20.8335 89.4125L94.1848 66.2969L103.067 78.6796L117.347 98.5728Z" fill="url(#paint10_linear_13799_21339)"/>
<path id="Vector_12" style="mix-blend-mode:screen" d="M112.083 97.1746C110.942 97.9858 87.7752 65.5426 72.1705 43.4254C56.5658 21.3082 43.4066 2.72041 44.5448 1.9092C45.683 1.098 59.4934 19.0943 75.0981 41.2139C90.7028 63.3336 113.226 96.3634 112.083 97.1746Z" fill="url(#paint11_radial_13799_21339)"/>
</g>
</g>
</g>
</g>
<defs>
<linearGradient id="paint0_linear_13799_21339" x1="70.0006" y1="157.187" x2="70.0006" y2="123.328" gradientUnits="userSpaceOnUse">
<stop stop-color="#303030"/>
<stop offset="0.28" stop-color="#494949"/>
<stop offset="0.87" stop-color="#888888"/>
<stop offset="1" stop-color="#969696"/>
</linearGradient>
<linearGradient id="paint1_linear_13799_21339" x1="47.2166" y1="150.233" x2="103.124" y2="99.0113" gradientUnits="userSpaceOnUse">
<stop stop-color="#242934"/>
<stop offset="1" stop-color="#2F3440"/>
</linearGradient>
<radialGradient id="paint2_radial_13799_21339" cx="0" cy="0" r="1" gradientUnits="userSpaceOnUse" gradientTransform="translate(84.0921 123.815) scale(10.4081 10.4533)">
<stop stop-color="#EBEBEB"/>
<stop offset="0.4" stop-color="#E9E9E9"/>
<stop offset="0.59" stop-color="#E1E2E4"/>
<stop offset="0.74" stop-color="#D4D5DA"/>
<stop offset="0.86" stop-color="#C2C4CB"/>
<stop offset="0.97" stop-color="#AAAEB9"/>
<stop offset="1" stop-color="#A2A6B3"/>
</radialGradient>
<linearGradient id="paint3_linear_13799_21339" x1="1381.85" y1="2146.07" x2="1445.27" y2="2146.07" gradientUnits="userSpaceOnUse">
<stop stop-color="#242934"/>
<stop offset="1" stop-color="#2F3440"/>
</linearGradient>
<radialGradient id="paint4_radial_13799_21339" cx="0" cy="0" r="1" gradientUnits="userSpaceOnUse" gradientTransform="translate(3320.44 7178.37) scale(593.47 596.047)">
<stop stop-color="#EBEBEB"/>
<stop offset="0.4" stop-color="#E9E9E9"/>
<stop offset="0.59" stop-color="#E1E2E4"/>
<stop offset="0.74" stop-color="#D4D5DA"/>
<stop offset="0.86" stop-color="#C2C4CB"/>
<stop offset="0.97" stop-color="#AAAEB9"/>
<stop offset="1" stop-color="#A2A6B3"/>
</radialGradient>
<linearGradient id="paint5_linear_13799_21339" x1="927.957" y1="2164.07" x2="991.38" y2="2164.07" gradientUnits="userSpaceOnUse">
<stop stop-color="#242934"/>
<stop offset="1" stop-color="#2F3440"/>
</linearGradient>
<linearGradient id="paint6_linear_13799_21339" x1="14.1184" y1="74.8138" x2="83.761" y2="47.4606" gradientUnits="userSpaceOnUse">
<stop stop-color="#EB6B38"/>
<stop offset="0.14" stop-color="#EF792E"/>
<stop offset="0.49" stop-color="#F89719"/>
<stop offset="0.79" stop-color="#FDA90C"/>
<stop offset="1" stop-color="#FFB007"/>
</linearGradient>
<linearGradient id="paint7_linear_13799_21339" x1="-23288.4" y1="6943.47" x2="59144.4" y2="6943.47" gradientUnits="userSpaceOnUse">
<stop stop-color="#EB6B38"/>
<stop offset="0.14" stop-color="#EF792E"/>
<stop offset="0.49" stop-color="#F89719"/>
<stop offset="0.79" stop-color="#FDA90C"/>
<stop offset="1" stop-color="#FFB007"/>
</linearGradient>
<linearGradient id="paint8_linear_13799_21339" x1="21.5919" y1="61.2172" x2="68.1172" y2="20.2805" gradientUnits="userSpaceOnUse">
<stop stop-color="#B5BAC7"/>
<stop offset="0.02" stop-color="#B8BDC9"/>
<stop offset="0.28" stop-color="#D7DAE1"/>
<stop offset="0.54" stop-color="#EDEEF1"/>
<stop offset="0.78" stop-color="#FAFBFC"/>
<stop offset="1" stop-color="white"/>
</linearGradient>
<linearGradient id="paint9_linear_13799_21339" x1="17.6776" y1="95.2424" x2="99.8703" y2="69.399" gradientUnits="userSpaceOnUse">
<stop stop-color="#B5BAC7"/>
<stop offset="0.14" stop-color="#CDD1D9"/>
<stop offset="0.31" stop-color="#E3E5EA"/>
<stop offset="0.49" stop-color="#F3F4F6"/>
<stop offset="0.7" stop-color="#FCFCFD"/>
<stop offset="1" stop-color="white"/>
</linearGradient>
<linearGradient id="paint10_linear_13799_21339" x1="71.7052" y1="123.447" x2="63.2204" y2="96.6951" gradientUnits="userSpaceOnUse">
<stop stop-color="#8D6C5A"/>
<stop offset="0.17" stop-color="#AC9487"/>
<stop offset="0.35" stop-color="#C9BAB1"/>
<stop offset="0.53" stop-color="#E1D8D3"/>
<stop offset="0.71" stop-color="#F1EEEB"/>
<stop offset="0.86" stop-color="#FCFBFA"/>
<stop offset="1" stop-color="white"/>
</linearGradient>
<radialGradient id="paint11_radial_13799_21339" cx="0" cy="0" r="1" gradientUnits="userSpaceOnUse" gradientTransform="translate(76.9759 47.4181) rotate(54.8445) scale(52.1526 1.44543)">
<stop stop-color="#EBEBEB"/>
<stop offset="0.09" stop-color="#E3E3E3"/>
<stop offset="0.23" stop-color="#CBCBCB"/>
<stop offset="0.41" stop-color="#A6A6A6"/>
<stop offset="0.62" stop-color="#717171"/>
<stop offset="0.85" stop-color="#2F2F2F"/>
<stop offset="1"/>
</radialGradient>
<clipPath id="clip0_13799_21339">
<rect width="140" height="155" fill="white"/>
</clipPath>
</defs>
</svg>
