<svg width="21" height="30" viewBox="0 0 21 30" fill="none" xmlns="http://www.w3.org/2000/svg">
<g id="Group" opacity="0.1">
<path id="Vector" d="M5.84442 3.56015C5.84442 3.46015 5.94443 3.36016 5.94443 3.26016C6.24443 3.06016 6.14443 2.66014 6.44443 2.46014C6.44443 2.36014 6.44443 2.26016 6.54443 2.26016C6.64443 2.16016 6.84443 2.16016 6.94443 2.16016C7.04443 2.16016 7.24442 2.26017 7.34442 2.36017C7.54442 2.56017 7.64441 2.86016 7.64441 3.16016C7.64441 3.36016 7.64443 3.56016 7.54443 3.76016C7.44443 3.86016 7.44442 3.96015 7.34442 4.06015C7.24442 4.16015 7.14443 4.26016 7.04443 4.26016C6.94443 4.36016 6.84442 4.46014 6.74442 4.46014C6.64442 4.56014 6.54443 4.66016 6.54443 4.76016C6.44443 4.96016 6.24441 5.16017 6.14441 5.36017C6.14441 5.46017 6.04443 5.56016 6.04443 5.66016C5.94443 5.86016 5.84442 6.16017 5.74442 6.36017C5.64442 6.46017 5.54443 6.56016 5.44443 6.66016C5.34443 6.86016 5.14443 7.06017 5.04443 7.36017C3.94443 8.26017 4.34443 9.96016 3.04443 10.7602C2.34443 11.5602 2.24443 12.5601 1.94443 13.4601C1.84443 13.5601 1.64443 13.6602 1.54443 13.6602C1.34443 13.6602 1.24441 13.5601 1.14441 13.4601C1.14441 12.4601 1.44442 11.5602 1.84442 10.7602C1.84442 10.5602 1.84443 10.2601 1.94443 10.0602C2.64443 8.76015 3.04443 7.36016 3.94443 6.16016C4.44443 6.06016 4.24443 5.56016 4.54443 5.26016V5.16016L4.64441 5.06015C4.94441 4.96015 4.94441 4.66017 5.14441 4.36017V4.26016C5.44441 4.16016 5.44441 3.86016 5.64441 3.76016C5.74441 3.76016 5.84442 3.66016 5.84442 3.66016C5.94442 3.66016 5.84442 3.56015 5.84442 3.56015Z" fill="#3E3E3E"/>
<path id="Vector_2" d="M19.9444 13.1596C20.2444 13.6596 20.2444 14.2596 20.2444 14.7596C20.3444 15.4596 20.3444 16.2596 20.3444 16.9596C20.3444 17.3596 20.3444 17.7596 20.0444 18.0596C20.0444 18.5596 20.0444 19.0596 19.4444 19.3596C19.0444 19.2596 18.8444 19.0596 18.8444 18.6596C18.9444 17.3596 18.6444 16.0596 18.9444 14.7596C18.9444 14.5596 18.9444 14.3596 18.9444 14.0596C18.9444 13.9596 18.9444 13.7596 18.9444 13.6596C18.9444 13.5596 19.0444 13.3596 19.1444 13.2596C19.2444 13.1596 19.3444 13.0596 19.4444 13.0596C19.6444 13.1596 19.8444 13.1596 19.9444 13.1596Z" fill="#3A3A3A"/>
<path id="Vector_3" d="M7.34442 1.35975C7.94442 0.55975 8.64441 -0.0402683 9.64441 0.0597317C9.84441 0.359732 10.2444 0.45975 10.3444 0.85975C10.3444 1.45975 9.84443 1.75974 9.54443 2.15974C9.04443 2.35974 8.64443 2.65974 8.04443 2.65974C7.74443 2.55974 7.54442 2.35974 7.34442 2.15974C7.24442 2.05974 7.14441 1.95974 7.14441 1.75974C7.24441 1.65974 7.24442 1.55975 7.34442 1.35975Z" fill="#3B3B3B"/>
<path id="Vector_4" d="M19.4444 19.2596C19.8444 18.9596 19.9444 18.5596 20.1444 18.0596C20.2444 19.5596 19.8444 20.9596 19.1444 22.2596C18.8444 22.8596 18.7444 23.4596 18.1444 23.8596C17.7444 23.5596 17.6444 23.1596 17.5444 22.7596C17.5444 22.2596 17.7444 21.7596 18.0444 21.2596C18.5444 20.6596 18.5444 19.6596 19.4444 19.2596Z" fill="#444444"/>
<path id="Vector_5" d="M16.5444 4.45977C17.4444 5.45977 18.2444 6.45978 18.7444 7.65978C18.8444 7.85978 18.8444 8.05978 18.8444 8.25978C18.6444 8.45978 18.3444 8.45977 18.0444 8.45977C17.9444 8.35977 17.7444 8.35978 17.6444 8.25978C17.0444 7.05978 15.7444 6.35977 15.5444 4.95977C15.5444 4.85977 15.6444 4.65977 15.7444 4.55977C15.9444 4.45977 16.1444 4.35977 16.3444 4.45977C16.3444 4.35977 16.4444 4.35977 16.5444 4.45977Z" fill="#4C4C4C"/>
<path id="Vector_6" d="M1.84443 25.1599C1.34443 24.8599 1.04444 24.3599 1.04444 23.7599C1.04444 23.5599 0.944435 23.4599 0.944435 23.3599C0.844435 23.1599 0.944423 22.8599 0.744423 22.7599C0.744423 22.5599 0.644441 22.4599 0.544441 22.3599C0.444441 22.1599 0.544435 21.8599 0.444435 21.6599C0.344435 21.4599 0.444429 21.1599 0.344429 20.9599C0.244429 20.7599 0.144423 20.5599 0.244423 20.2599C0.544423 20.0599 0.744417 19.6599 1.14442 19.7599C1.84442 19.9599 1.64443 20.6599 1.84443 21.1599C1.94443 21.3599 1.84444 21.5599 1.94444 21.6599C1.94444 21.7599 1.94444 21.8599 1.94444 21.9599C1.94444 22.0599 1.94444 22.1599 2.04444 22.2599C2.04444 22.3599 2.04444 22.4599 2.04444 22.5599C2.04444 22.7599 2.04442 22.8599 2.14442 23.0599C2.14442 23.1599 2.24443 23.3599 2.34443 23.4599C2.44443 23.5599 2.44444 23.6599 2.54444 23.7599C2.54444 23.7599 2.54442 23.8599 2.64442 23.8599C2.64442 23.8599 2.64442 23.9599 2.74442 23.9599C2.74442 24.0599 2.84443 24.1599 2.84443 24.2599C2.84443 24.3599 2.84443 24.4599 2.84443 24.5599C2.84443 24.6599 2.84442 24.6599 2.74442 24.7599C2.64442 24.8599 2.64444 24.9599 2.54444 24.9599C2.24444 25.1599 2.04443 25.1599 1.84443 25.1599Z" fill="#545454"/>
<path id="Vector_7" d="M6.74445 28.6596C5.44445 28.6596 4.34446 27.9596 3.44446 27.0596C3.44446 26.9596 3.54446 26.9596 3.54446 26.8596C3.64446 26.6596 3.84446 26.5596 4.04446 26.5596C4.14446 26.5596 4.34446 26.5596 4.44446 26.5596C4.74446 26.6596 4.94444 26.6596 5.14444 26.8596C5.24444 26.9596 5.34446 26.9596 5.44446 27.0596C5.84446 27.2596 6.24445 27.4596 6.74445 27.5596C6.94445 27.6596 7.14445 27.7596 7.24445 27.9596C7.34445 28.0596 7.34445 28.2596 7.24445 28.3596C7.14445 28.5596 6.94445 28.5596 6.74445 28.6596Z" fill="#3E3E3E"/>
<path id="Vector_8" d="M11.1444 28.6602C10.7444 28.8602 10.4444 29.1602 10.0444 29.3602C9.3444 29.7602 8.74438 29.7602 8.14438 29.2602C7.94438 29.1602 7.84438 28.9602 7.74438 28.8602C7.84438 28.6602 7.94438 28.5601 8.14438 28.4601C8.24438 28.3601 8.3444 28.3602 8.5444 28.3602C8.8444 28.3602 9.2444 28.2602 9.5444 28.1602C10.0444 28.2602 10.7444 27.9602 11.1444 28.6602Z" fill="#D4D4D4"/>
<path id="Vector_9" d="M10.1444 0.859768C9.94441 0.559768 9.84441 0.35975 9.64441 0.05975C10.6444 -0.14025 11.4444 0.159762 12.2444 0.759762C12.3444 0.959762 12.6444 0.959756 12.7444 1.15976C12.7444 1.35976 12.7444 1.45976 12.6444 1.65976C12.2444 1.85976 11.7444 1.85977 11.3444 1.85977C10.8444 1.65977 10.3444 1.45977 10.1444 0.859768Z" fill="#2F2F2F"/>
<path id="Vector_10" d="M17.6444 24.3596C17.5444 24.5596 17.4444 24.8596 17.3444 24.9596C16.9444 25.4596 16.4444 25.8596 15.9444 26.2596C15.8444 26.3596 15.6444 26.4596 15.4444 26.4596C15.2444 26.3596 15.1444 26.2596 15.0444 26.0596C15.0444 25.9596 15.0444 25.7596 15.0444 25.6596C15.2444 25.2596 15.4444 25.0596 15.7444 24.7596C15.8444 24.6596 15.9444 24.5596 15.9444 24.4596C16.0444 24.3596 16.1444 24.2596 16.2444 24.1596C16.3444 24.0596 16.4444 23.9596 16.5444 23.8596C16.7444 23.7596 16.8444 23.6596 17.0444 23.5596C17.2444 23.5596 17.4444 23.5596 17.6444 23.6596C17.6444 23.9596 17.7444 24.1596 17.6444 24.3596Z" fill="#626262"/>
<path id="Vector_11" d="M1.94443 10.7598C1.84443 11.3598 1.64443 11.8597 1.54443 12.4597C1.44443 12.8597 1.44443 13.2598 1.54443 13.5598C1.84443 14.4598 2.14441 15.3597 1.14441 15.9597C0.944409 15.9597 0.744434 15.9598 0.544434 15.6598C0.544434 15.5598 0.544434 15.5597 0.544434 15.4597C0.544434 15.1597 0.644409 14.7597 0.644409 14.4597C0.744409 13.1597 1.34443 11.9598 1.94443 10.7598Z" fill="#484848"/>
<path id="Vector_12" d="M18.2445 8.05997C18.4445 7.95997 18.6445 8.05998 18.8445 8.15998C18.9445 8.35998 19.1445 8.65999 19.2445 8.85999C19.3445 9.15999 19.3445 9.55999 19.5445 9.85999C19.6445 10.06 19.5445 10.36 19.6445 10.56C19.6445 10.66 19.7445 10.66 19.7445 10.76C19.7445 10.86 19.6445 10.86 19.6445 10.96C19.5445 11.06 19.4445 11.16 19.3445 11.26C19.2445 11.26 19.0445 11.26 18.9445 11.26C18.8445 11.16 18.7445 11.16 18.6445 11.06C18.5445 10.86 18.4445 10.76 18.3445 10.56C18.2445 10.36 18.1445 10.26 18.1445 10.06C18.1445 9.95997 18.1445 9.85999 18.0445 9.75999C18.0445 9.65999 17.9445 9.55997 17.9445 9.45997C17.9445 9.35997 17.8445 9.25998 17.8445 9.15998C17.8445 9.05998 17.8445 8.95999 17.8445 8.75999C17.8445 8.65999 17.8445 8.55997 17.9445 8.45997L18.0445 8.35999C18.1445 8.15999 18.1445 8.15997 18.2445 8.05997Z" fill="#424242"/>
<path id="Vector_13" d="M0.0443607 18.36C-0.0556393 17.76 0.0443424 17.16 0.244342 16.56C0.444342 16.46 0.644355 16.26 0.944355 16.16C1.14435 16.06 1.34436 16.06 1.54436 16.16C2.14436 17.16 1.64436 18.06 1.04436 18.86C0.544361 19.26 0.344361 18.66 0.0443607 18.36Z" fill="#636363"/>
<path id="Vector_14" d="M0.0444752 18.3598C0.144475 18.2598 0.244463 18.1598 0.344463 17.9598C0.444463 17.8598 0.644451 17.8598 0.644451 17.9598C0.744451 18.2598 0.744463 18.5598 0.844463 18.7598L0.944469 18.8598C1.04447 18.9598 1.04448 19.1598 1.04448 19.2598C1.04448 19.3598 0.944469 19.4598 0.944469 19.5598L0.844463 19.6598C0.544463 20.1598 0.544451 20.1598 0.144451 20.0598C0.144451 19.7598 0.0444752 19.4598 0.0444752 19.1598C-0.0555248 19.0598 0.244475 18.6598 0.0444752 18.3598Z" fill="#3A3A3A"/>
<path id="Vector_15" d="M1.84448 25.1594C2.04448 25.0594 2.14448 24.9594 2.34448 24.8594C2.54448 24.8594 2.74448 24.8594 2.84448 24.8594C3.04448 24.9594 3.14448 25.0594 3.24448 25.1594C3.34448 25.2594 3.44449 25.3594 3.44449 25.4594C3.54449 25.5594 3.54447 25.6594 3.64447 25.7594C3.74447 25.8594 3.74448 25.9594 3.84448 26.0594C3.94448 26.1594 3.94449 26.2594 4.04449 26.3594C4.14449 26.5594 4.04449 26.6594 3.94449 26.8594C3.84449 26.9594 3.74449 27.0594 3.54449 27.0594C3.44449 27.0594 3.44448 27.0594 3.34448 27.1594C2.74448 26.5594 2.24448 25.9594 1.84448 25.1594Z" fill="#434343"/>
<path id="Vector_16" d="M14.0444 27.3602C13.4444 27.7602 12.8444 28.0602 12.1444 28.2602C11.9444 28.0602 11.7444 27.8602 11.7444 27.5602C11.7444 27.2602 12.0444 27.0601 12.2444 26.9601C12.6444 26.8601 13.0444 26.6602 13.4444 26.6602C13.5444 26.6602 13.7444 26.7602 13.8444 26.8602C13.9444 26.9602 13.9444 27.0602 13.9444 27.2602C14.0444 27.2602 14.0444 27.2602 14.0444 27.3602Z" fill="#5E5E5E"/>
<path id="Vector_17" d="M19.8444 11.0594C19.8444 11.7594 19.9444 12.4594 19.9444 13.1594L19.8444 13.2594C19.7444 13.3594 19.5444 13.4594 19.3444 13.4594C18.9444 13.3594 18.8444 13.0594 18.7444 12.7594C18.7444 12.5594 18.7444 12.3594 18.7444 12.1594C18.7444 11.9594 18.7444 11.7594 18.8444 11.5594C18.9444 11.4594 19.0444 11.3594 19.1444 11.2594C19.3444 11.1594 19.4444 11.0594 19.5444 10.9594L19.6444 10.8594C19.7444 10.8594 19.8444 10.8594 19.8444 11.0594Z" fill="#474747"/>
<path id="Vector_18" d="M11.1444 28.6599C10.5444 28.6599 9.84445 28.7599 9.24445 28.7599C9.04445 28.6599 8.94446 28.4599 8.94446 28.1599C9.34446 27.1599 10.0445 27.1599 10.8445 27.4599C10.9445 27.5599 11.1444 27.6599 11.2444 27.7599C11.3444 27.8599 11.3445 28.0599 11.3445 28.1599C11.3445 28.2599 11.3445 28.2599 11.3445 28.3599C11.2445 28.5599 11.1444 28.6599 11.1444 28.6599Z" fill="#494949"/>
<path id="Vector_19" d="M12.6445 1.56015C12.7445 1.46015 12.7445 1.26016 12.8445 1.16016C13.2445 1.36016 13.6445 1.66017 13.9445 1.86017C14.1445 1.96017 14.2445 2.16016 14.3445 2.26016C14.4445 2.56016 14.2445 2.66016 14.0445 2.76016C13.8445 2.86016 13.6445 2.76016 13.3445 2.76016C13.2445 2.76016 13.0445 2.66015 12.9445 2.56015C12.6445 2.26015 12.4445 2.06015 12.6445 1.56015Z" fill="#383838"/>
<path id="Vector_20" d="M17.6444 24.3594C17.5444 24.1594 17.4444 24.0594 17.3444 23.8594C17.1444 23.2594 17.4444 22.9594 18.0444 22.8594C18.1444 23.1594 18.1444 23.5594 18.0444 23.8594C18.0444 24.1594 17.9444 24.2594 17.6444 24.3594Z" fill="#353535"/>
<path id="Vector_21" d="M15.1444 26.7594C14.8444 27.0594 14.4444 27.2594 14.0444 27.3594C14.0444 27.2594 13.9444 27.2594 13.9444 27.1594C13.9444 27.0594 13.8444 26.9594 13.8444 26.9594L13.7444 26.8594C13.7444 26.5594 13.9444 26.3594 14.1444 26.1594C14.4444 26.0594 14.6444 25.9594 14.9444 26.1594C15.1444 26.3594 15.1444 26.5594 15.1444 26.7594Z" fill="#5E5E5E"/>
<path id="Vector_22" d="M15.8444 3.55946C16.1444 3.75946 16.4444 3.95947 16.5444 4.35947C16.5444 4.35947 16.4444 4.35945 16.4444 4.45945C16.3444 4.45945 16.1444 4.45945 16.0444 4.45945H15.9444C15.3444 4.45945 15.1444 4.05946 15.1444 3.55946C15.3444 3.35946 15.5444 3.25946 15.8444 3.55946Z" fill="#505050"/>
<path id="Vector_23" d="M15.8444 3.55934C15.6444 3.55934 15.3444 3.65935 15.1444 3.65935C14.7444 3.85935 14.4444 3.65935 14.2444 3.25935C14.2444 3.15935 14.2444 2.95936 14.2444 2.85936C14.3444 2.65936 14.5444 2.55935 14.8444 2.65935C15.2444 2.95935 15.5444 3.25934 15.8444 3.55934Z" fill="#6C6C6C"/>
<path id="Vector_24" d="M11.9445 27.6599C12.0445 27.8599 12.0444 28.0599 12.1444 28.2599C11.8444 28.3599 11.5444 28.3599 11.2444 28.4599C11.2444 28.3599 11.1444 28.3599 11.1444 28.2599C11.1444 28.1599 11.0445 28.1599 11.0445 28.0599L10.9445 27.9599C11.1445 27.3599 11.4445 27.2599 11.9445 27.6599Z" fill="#4E4E4E"/>
<path id="Vector_25" d="M0.944397 16.4597C0.844397 16.5597 0.844385 16.6598 0.744385 16.8598C0.644385 17.0598 0.544397 16.9598 0.444397 16.8598C0.344397 16.7598 0.344385 16.7598 0.244385 16.6598C0.244385 16.5598 0.244385 16.4598 0.244385 16.3598C0.244385 16.2598 0.244391 16.0597 0.344391 15.9597C0.344391 15.8597 0.344397 15.7598 0.444397 15.7598C0.644397 15.8598 0.844403 15.8597 1.0444 15.9597L1.14438 16.0598C1.14438 16.1598 1.1444 16.3597 0.944397 16.4597Z" fill="#262626"/>
<path id="Vector_26" d="M8.34439 28.8594C8.14439 28.8594 7.84438 28.9594 7.64438 28.9594C7.34438 28.8594 7.04438 28.7594 6.74438 28.7594C6.84438 28.6594 7.04438 28.5594 7.14438 28.5594C7.64438 28.2594 8.04439 28.3594 8.34439 28.8594Z" fill="#3E3E3E"/>
<path id="Vector_27" d="M14.8444 2.65936C14.6444 2.75936 14.5444 2.85935 14.3444 2.95935C14.2444 3.05935 14.1444 3.05936 14.0444 3.05936C13.9444 3.05936 13.8444 2.95938 13.7444 2.85938C13.7444 2.75938 13.7444 2.65936 13.8444 2.55936C14.0444 2.45936 14.1444 2.35938 14.3444 2.35938C14.5444 2.35938 14.6444 2.55936 14.8444 2.65936Z" fill="#3D3D3D"/>
<path id="Vector_28" d="M19.6444 9.95996C19.3444 9.65996 19.2444 9.35996 19.3444 8.95996C19.5444 9.25996 19.6444 9.55996 19.6444 9.95996Z" fill="#BCBCBC"/>
<path id="Vector_29" d="M15.1445 26.7596C15.0445 26.5596 14.9445 26.3596 14.8445 26.2596C14.9445 26.0596 15.0445 26.0596 15.2445 26.0596C15.3445 26.2596 15.4445 26.3596 15.5445 26.5596C15.3445 26.6596 15.2445 26.6596 15.1445 26.7596Z" fill="#414141"/>
<path id="Vector_30" d="M0.644454 14.5596C0.744454 14.9596 0.744478 15.2596 0.544478 15.5596C0.444478 15.1596 0.544454 14.8596 0.644454 14.5596Z" fill="#5D5D5D"/>
<path id="Vector_31" d="M0.0444444 18.3594C0.244444 18.6594 0.244444 18.9594 0.0444444 19.3594C-0.0555556 19.0594 0.0444444 18.6594 0.0444444 18.3594Z" fill="#636363"/>
<path id="Vector_32" d="M6.44446 2.45996C6.34446 2.75996 6.24446 3.05998 5.94446 3.25998C6.04446 2.95998 6.24446 2.65996 6.44446 2.45996Z" fill="#444444"/>
<path id="Vector_33" d="M4.74442 5.25977C4.64442 5.65977 4.44441 5.95976 4.14441 6.15976C4.24441 5.75976 4.44442 5.45977 4.74442 5.25977Z" fill="#3F3F3F"/>
<path id="Vector_34" d="M0.244385 20.96C0.344385 21.16 0.444391 21.36 0.344391 21.66C0.344391 21.36 0.344385 21.16 0.244385 20.96Z" fill="#707070"/>
<path id="Vector_35" d="M0.344482 21.5596C0.444482 21.7596 0.544489 21.9596 0.444489 22.2596C0.344489 22.0596 0.344482 21.8596 0.344482 21.5596Z" fill="#707070"/>
<path id="Vector_36" d="M0.644409 22.5596C0.844409 22.7596 0.844421 22.9596 0.844421 23.1596C0.744421 23.0596 0.644409 22.8596 0.644409 22.5596Z" fill="#707070"/>
<path id="Vector_37" d="M12.8445 1.15976C12.6445 1.05976 12.4445 0.859766 12.3445 0.759766C12.5445 0.859766 12.7445 0.95976 12.8445 1.15976Z" fill="#383838"/>
<path id="Vector_38" d="M6.84442 2.26016C6.74442 2.26016 6.64443 2.26016 6.54443 2.16016C6.54443 1.86016 6.74443 1.76016 6.94443 1.66016C6.94443 1.76016 7.04443 1.76017 7.04443 1.86017C7.14443 2.06017 7.04442 2.16016 6.84442 2.26016Z" fill="#575757"/>
<path id="Vector_39" d="M5.74438 3.85938C5.54438 4.05938 5.44438 4.25938 5.24438 4.35938C5.34438 4.05937 5.54438 3.95938 5.74438 3.85938Z" fill="#444444"/>
<path id="Vector_40" d="M5.24438 4.45996C5.04438 4.65996 4.94438 4.85997 4.74438 5.15997C4.84438 4.85997 5.04438 4.65996 5.24438 4.45996Z" fill="#3F3F3F"/>
<path id="Vector_41" d="M19.6444 10.66C19.4444 10.46 19.5444 10.26 19.5444 9.95996C19.7444 10.16 19.7444 10.36 19.6444 10.66Z" fill="#BCBCBC"/>
<path id="Vector_42" d="M19.8444 11.0602C19.7444 11.0602 19.6444 10.9601 19.6444 10.9601C19.6444 10.8601 19.7444 10.7602 19.7444 10.6602C19.7444 10.7602 19.7444 10.8602 19.8444 11.0602Z" fill="#BCBCBC"/>
<path id="Vector_43" d="M0.444498 15.96C0.444498 16.06 0.344492 16.26 0.344492 16.36C0.244492 16.16 0.244498 16.06 0.444498 15.96Z" fill="#5D5D5D"/>
<path id="Vector_44" d="M7.34445 1.35938C7.34445 1.45938 7.34445 1.65937 7.24445 1.75937L7.14444 1.85938L7.04446 1.75937L6.94446 1.65936C7.14446 1.55936 7.24445 1.45938 7.34445 1.35938Z" fill="#575757"/>
<path id="Vector_45" d="M0.544434 22.2598C0.644434 22.3598 0.644415 22.5598 0.744415 22.6598C0.644415 22.4598 0.544434 22.3598 0.544434 22.2598Z" fill="#707070"/>
<path id="Vector_46" d="M0.844482 23.2598C0.844482 23.3598 0.944489 23.5598 0.944489 23.6598C0.944489 23.5598 0.944482 23.3598 0.844482 23.2598Z" fill="#707070"/>
<path id="Vector_47" d="M5.84439 3.55957C5.84439 3.65957 5.84438 3.75959 5.74438 3.85959C5.74438 3.75959 5.74439 3.65957 5.84439 3.55957Z" fill="#444444"/>
<path id="Vector_48" d="M1.84442 13.5594C2.04442 13.9594 1.84442 14.3594 1.74442 14.7594C1.84442 15.1594 1.74443 15.5594 1.54443 15.8594C1.34443 15.9594 1.24441 15.9594 1.14441 15.7594C1.24441 15.0594 1.24442 14.4594 1.34442 13.7594C1.34442 13.6594 1.44443 13.5594 1.54443 13.3594C1.64443 13.5594 1.74442 13.5594 1.84442 13.5594Z" fill="#5D5D5D"/>
<path id="Vector_49" d="M2.64444 10.46C2.34444 11.46 2.14446 12.36 1.84446 13.36C1.74446 12.26 1.94444 11.26 2.64444 10.46Z" fill="#484848"/>
<path id="Vector_50" d="M8.14443 2.35999C7.94443 2.75999 7.64443 3.05999 7.24443 3.35999C7.14443 3.25999 7.14443 3.25997 7.24443 3.15997C7.24443 3.05997 7.34444 3.05997 7.34444 3.05997C7.34444 2.85997 7.24443 2.65996 7.24443 2.45996C7.14443 2.05996 7.54443 2.05996 7.74443 1.95996C7.74443 2.05996 7.94443 2.15999 8.14443 2.35999Z" fill="#575757"/>
<path id="Vector_51" d="M7.5444 1.85977C7.3444 2.05977 7.2444 2.15977 7.0444 2.35977C6.9444 2.35977 6.84438 2.25977 6.74438 2.25977C6.84438 2.05977 6.8444 1.95977 6.9444 1.75977C7.0444 1.75977 7.14438 1.75977 7.14438 1.75977C7.44438 1.85977 7.5444 1.85977 7.5444 1.85977Z" fill="#444444"/>
<path id="Vector_52" d="M7.24449 3.05957C7.24449 3.15957 7.24449 3.25959 7.24449 3.35959C7.14449 3.45959 7.04449 3.65957 6.84449 3.55957C6.74449 3.15957 6.74449 3.15957 7.24449 3.05957Z" fill="#444444"/>
<path id="Vector_53" d="M6.34439 4.35938C6.24439 4.75938 6.04438 5.05937 5.74438 5.25937C5.84438 4.85937 5.94439 4.55938 6.34439 4.35938Z" fill="#444444"/>
<path id="Vector_54" d="M5.64441 5.35938C5.54441 5.65938 5.34441 5.95936 5.14441 6.15936C5.24441 5.85936 5.34441 5.55938 5.64441 5.35938Z" fill="#3F3F3F"/>
<path id="Vector_55" d="M6.74438 3.55936C6.84438 3.45936 7.04438 3.45938 7.14438 3.35938C7.04438 3.55938 6.94438 3.75938 6.74438 3.85938C6.74438 3.75938 6.74438 3.65936 6.74438 3.55936Z" fill="#575757"/>
<path id="Vector_56" d="M6.74448 3.85938C6.64448 4.05938 6.54448 4.25935 6.34448 4.45935C6.44448 4.15935 6.54448 3.95938 6.74448 3.85938Z" fill="#444444"/>
<path id="Vector_57" d="M5.14438 6.16016C5.04438 6.46016 4.94438 6.66016 4.74438 6.76016C4.84438 6.56016 4.94438 6.36016 5.14438 6.16016Z" fill="#3F3F3F"/>
<path id="Vector_58" d="M19.2445 12.5594C19.3445 12.8594 19.4445 13.0594 19.5445 13.3594C19.6445 13.4594 19.6445 13.4594 19.6445 13.5594C19.6445 13.6594 19.5445 13.6594 19.5445 13.6594C19.5445 13.7594 19.4445 13.8594 19.4445 13.9594C19.5445 14.1594 19.6445 14.3594 19.5445 14.6594C19.2445 15.0594 18.8445 15.0594 18.4445 14.7594C18.3445 14.6594 18.2445 14.5594 18.1445 14.4594C18.0445 14.1594 18.0445 13.9594 18.2445 13.6594C18.3445 13.5594 18.3445 13.5594 18.4445 13.4594C18.3445 13.4594 18.2445 13.4594 18.1445 13.4594C17.7445 13.3594 17.3445 13.4594 17.0445 13.0594C16.8445 12.4594 16.5445 11.7594 16.3445 11.1594C16.3445 11.0594 16.4445 10.8594 16.5445 10.7594C16.8445 10.5594 17.0445 10.5594 17.3445 10.6594C17.4445 10.6594 17.6445 10.6594 17.7445 10.6594C18.0445 10.6594 18.3445 10.6594 18.5445 10.8594C19.0445 11.3594 18.6445 12.1594 19.2445 12.5594Z" fill="#C5C5C5"/>
<path id="Vector_59" d="M18.6444 14.3594C18.8444 14.5594 19.1444 14.6594 19.4444 14.5594C19.4444 15.4594 19.5444 16.4594 19.5444 17.3594C19.5444 17.7594 19.4444 18.1594 19.3444 18.5594C19.0444 18.7594 18.7444 18.7594 18.4444 18.5594C18.2444 18.3594 18.1444 18.1594 18.1444 17.9594C18.3444 17.1594 19.0444 16.3594 18.1444 15.5594C18.0444 15.4594 18.0444 15.2594 18.0444 15.1594C18.0444 14.9594 18.1444 14.7594 18.2444 14.5594C18.3444 14.4594 18.4444 14.3594 18.6444 14.3594Z" fill="#CECECE"/>
<path id="Vector_60" d="M18.4444 18.3594C18.7444 18.4594 19.0444 18.5594 19.3444 18.6594C19.3444 18.8594 19.4444 19.0594 19.4444 19.3594C19.3444 19.7594 19.1444 20.1594 19.0444 20.5594C18.9444 20.9594 18.8444 21.3594 18.5444 21.5594C18.3444 21.5594 18.2444 21.5594 18.1444 21.4594C17.7444 20.8594 17.8444 20.2594 17.9444 19.6594C18.0444 19.1594 17.9444 18.6594 18.4444 18.3594Z" fill="#DCDCDC"/>
<path id="Vector_61" d="M19.5444 13.6598C19.5444 13.5598 19.5444 13.4598 19.5444 13.3598C19.6444 13.3598 19.7444 13.2598 19.8444 13.2598C19.7444 13.3598 19.6444 13.5598 19.5444 13.6598Z" fill="#1B1B1B"/>
<path id="Vector_62" d="M18.1444 21.3596C18.2444 21.3596 18.3444 21.4596 18.5444 21.4596C18.3444 21.9596 18.2444 22.3596 18.0444 22.8596C17.8444 23.1596 17.6444 23.5596 17.3444 23.8596C17.2444 23.9596 17.0444 23.9596 16.9444 24.0596C16.6444 24.0596 16.4444 24.0596 16.1444 23.8596C15.8444 23.5596 15.6444 23.2596 15.4444 22.9596C14.9444 22.1596 15.7444 21.4596 15.7444 20.6596C15.7444 20.4596 15.8444 20.2596 16.0444 20.1596C16.7444 19.7596 17.1444 20.3596 17.5444 20.6596L17.6444 20.7596C17.7444 20.8596 17.8444 20.8596 17.8444 20.9596C17.9444 21.0596 17.9444 21.1596 17.9444 21.2596C18.1444 21.2596 18.1444 21.3596 18.1444 21.3596Z" fill="#DBDBDB"/>
<path id="Vector_63" d="M14.0444 2.75958C14.1444 2.75958 14.1444 2.75959 14.1444 2.85959C14.2444 2.95959 14.3444 3.05958 14.3444 3.25958C14.5444 3.45958 14.8444 3.55958 15.0444 3.75958C15.2444 4.05958 15.4444 4.35957 15.7444 4.55957C16.4444 5.65957 17.3444 6.65956 17.9444 7.95956C17.9444 8.05956 18.0444 8.05958 18.0444 8.15958C18.0444 8.25958 17.9444 8.35956 17.8444 8.45956C17.5444 8.55956 17.2444 8.35959 16.9444 8.35959C16.6444 8.25959 16.3444 8.25957 16.0444 8.05957C15.8444 7.95957 15.6444 7.85958 15.4444 7.75958C15.3444 7.65958 15.2444 7.55956 15.2444 7.45956C15.1444 7.35956 15.0444 7.15957 14.9444 7.05957C14.8444 6.95957 14.6444 6.85958 14.5444 6.65958C14.2444 6.05958 13.8444 5.45956 13.4444 4.95956C13.4444 4.65956 13.3444 4.35957 13.2444 4.05957C13.1444 3.85957 13.0444 3.75957 13.0444 3.55957C12.9444 3.35957 12.8444 3.25957 12.7444 3.05957C12.6444 2.85957 12.5444 2.65959 12.5444 2.35959C12.6444 2.25959 12.6444 2.15957 12.7444 2.05957C12.8444 2.05957 12.9444 2.05958 13.0444 2.25958C13.1444 2.35958 13.2444 2.35956 13.3444 2.45956C13.5444 2.55956 13.8444 2.55958 14.0444 2.75958Z" fill="#E1E1E1"/>
<path id="Vector_64" d="M15.9445 4.55938C16.0445 4.55938 16.2445 4.55938 16.3445 4.55938C16.2445 4.45938 16.0445 4.45938 15.9445 4.55938Z" fill="#222222"/>
<path id="Vector_65" d="M17.8445 8.25998C17.8445 8.15998 17.9445 8.05996 17.9445 7.95996C18.0445 7.95996 18.1445 8.05997 18.2445 8.05997C18.2445 8.15997 18.2445 8.25998 18.2445 8.25998C18.0445 8.35998 17.9445 8.35998 17.8445 8.25998Z" fill="#BCBCBC"/>
<path id="Vector_66" d="M1.34448 22.6599C1.34448 22.5599 1.34448 22.4599 1.34448 22.4599C1.34448 22.3599 1.24448 22.2599 1.24448 22.0599C1.04448 21.8599 1.24447 21.5599 1.14447 21.3599C1.14447 20.8599 1.14449 20.2599 0.944489 19.7599C0.844489 19.6599 0.844482 19.4599 0.844482 19.3599C0.944482 19.1599 0.944495 18.9599 1.04449 18.7599C1.24449 18.2599 1.34449 17.6599 2.04449 18.2599C2.74449 19.5599 2.84449 21.0599 3.54449 22.3599C3.74449 22.7599 3.34448 23.1599 3.24448 23.6599C3.04448 24.0599 3.24448 24.7599 2.34448 24.5599C2.24448 24.4599 2.24447 24.2599 2.14447 24.1599C2.04447 24.0599 1.94449 23.9599 1.94449 23.7599C1.84449 23.5599 1.74449 23.2599 1.54449 23.0599C1.44449 22.9599 1.34448 22.8599 1.34448 22.6599Z" fill="#F1F1F1"/>
<path id="Vector_67" d="M2.34448 24.5597C2.74448 24.2597 2.64447 23.7597 2.64447 23.4597C3.24447 22.8597 3.54448 23.3598 3.74448 23.8598C3.94448 24.3598 4.14448 24.8598 3.84448 25.3598C3.64448 25.6598 3.34449 25.6597 3.04449 25.5597C2.84449 25.5597 2.74448 25.4598 2.74448 25.2598C2.64448 25.0598 2.44448 24.9598 2.34448 24.7598C2.34448 24.7598 2.34448 24.6597 2.34448 24.5597Z" fill="#E7E7E7"/>
<path id="Vector_68" d="M1.04443 21.46C1.04443 21.66 1.14441 21.96 1.14441 22.16C1.14441 21.86 1.04443 21.66 1.04443 21.46Z" fill="#707070"/>
<path id="Vector_69" d="M1.24438 22.0596C1.24438 22.1596 1.34439 22.2596 1.34439 22.4596C1.34439 22.3596 1.24438 22.2596 1.24438 22.0596Z" fill="#707070"/>
<path id="Vector_70" d="M1.34448 22.6602C1.34448 22.7602 1.44449 22.9602 1.44449 23.0602C1.44449 22.9602 1.44448 22.8602 1.34448 22.6602Z" fill="#707070"/>
<path id="Vector_71" d="M1.94449 23.8594C2.04449 23.9594 2.04447 24.1594 2.14447 24.2594C2.04447 24.2594 1.94448 24.1594 1.84448 24.1594C1.84448 24.0594 1.84449 23.9594 1.94449 23.8594Z" fill="#E7E7E7"/>
<path id="Vector_72" d="M2.14441 24.2598C2.24441 24.3598 2.34442 24.4598 2.34442 24.6598C2.24442 24.4598 2.14441 24.3598 2.14441 24.2598Z" fill="#E7E7E7"/>
<path id="Vector_73" d="M4.94444 27.5595C4.74444 27.3595 4.64444 27.2595 4.44444 27.0595C4.24444 26.5595 3.64443 26.1595 3.74443 25.5595C3.94443 25.1595 4.14442 24.9595 4.64442 25.1595C4.74442 25.2595 4.84444 25.3595 4.94444 25.4595C5.04444 25.5595 5.14442 25.6595 5.14442 25.8595C5.24442 26.7595 6.14442 26.9595 6.64442 27.4595C6.74442 27.6595 6.84443 27.8595 6.74443 28.0595C6.04443 27.7595 5.44444 27.6595 4.94444 27.5595Z" fill="#A2A2A2"/>
<path id="Vector_74" d="M6.64441 27.8598C6.54441 27.7598 6.44442 27.6598 6.34442 27.5598C6.14442 27.0598 5.94443 26.4598 6.44443 25.9598C6.64443 25.8598 6.84441 25.7598 7.14441 25.8598C7.34441 25.8598 7.54442 25.9598 7.84442 26.0598C7.94442 26.1598 8.04441 26.2598 8.14441 26.3598C8.14441 26.4598 8.24441 26.6598 8.14441 26.7598C8.14441 26.9598 8.14441 27.1598 8.14441 27.3598C8.24441 27.6598 8.44442 27.8598 8.34442 28.1598C8.24442 28.2598 8.14443 28.3598 8.04443 28.4598C7.74443 28.4598 7.44441 28.3598 7.24441 28.1598C7.04441 28.1598 6.84441 28.0598 6.64441 27.8598Z" fill="#AFAFAF"/>
<path id="Vector_75" d="M3.9444 25.6594C4.2444 25.8594 4.3444 26.0594 4.4444 26.3594C4.5444 26.5594 4.54439 26.8594 4.34439 27.0594C4.24439 27.0594 4.1444 27.0594 4.0444 27.0594C3.9444 27.1594 3.84439 27.0594 3.84439 26.9594C3.74439 26.8594 3.6444 26.6594 3.5444 26.5594C3.4444 26.4594 3.34439 26.3594 3.34439 26.2594C3.24439 26.1594 3.1444 25.9594 3.0444 25.8594C2.9444 25.8594 2.94439 25.7594 2.84439 25.6594C2.74439 25.5594 2.74438 25.5594 2.74438 25.4594H2.84439C3.04439 25.4594 3.2444 25.3594 3.4444 25.3594C3.8444 25.3594 3.8444 25.5594 3.9444 25.6594Z" fill="#DBDBDB"/>
<path id="Vector_76" d="M7.24438 28.2598C7.54438 28.2598 7.7444 28.3598 8.0444 28.3598C8.3444 28.3598 8.44439 28.5598 8.34439 28.8598C7.94439 28.7598 7.64438 28.5597 7.24438 28.4597C7.24438 28.3597 7.24438 28.2598 7.24438 28.2598Z" fill="#1C1C1C"/>
<path id="Vector_77" d="M3.94443 26.8594C4.04443 26.8594 4.14441 26.9594 4.14441 26.9594C3.94441 26.9594 3.84441 26.9594 3.64441 27.0594C3.74441 27.0594 3.84443 26.9594 3.94443 26.8594Z" fill="#1B1B1B"/>
<path id="Vector_78" d="M8.34442 28.8597C8.24442 28.6597 8.14443 28.5597 8.04443 28.3597C8.04443 28.2597 8.14441 28.2597 8.14441 28.1597C8.44441 27.9597 8.74443 28.0597 8.94443 28.3597C9.04443 28.5597 9.14442 28.6597 9.24442 28.8597C8.94442 28.9597 8.64442 28.9597 8.34442 28.8597Z" fill="#3E3E3E"/>
<path id="Vector_79" d="M13.1444 2.15958C13.0444 2.15958 12.9444 2.15958 12.8444 2.15958C12.7444 2.25958 12.6444 2.35959 12.4444 2.35959C12.3444 2.35959 12.2444 2.25958 12.1444 2.15958C11.9444 1.75958 11.7444 1.45957 11.5444 1.05957C11.9444 1.05957 12.3444 1.25956 12.6444 1.45956C12.7444 1.75956 12.9444 1.95958 13.1444 2.15958Z" fill="#B3B3B3"/>
<path id="Vector_80" d="M16.2444 24.8596C15.9444 25.1596 15.6444 25.4596 15.3444 25.8596C15.2444 25.8596 15.2444 25.8596 15.1444 25.7596C14.2444 25.4596 14.4444 24.6596 14.2444 23.9596C14.2444 23.7596 14.3444 23.5596 14.5444 23.3596C14.9444 23.0596 15.2444 23.2596 15.6444 23.3596C15.7444 23.4596 15.9444 23.4596 16.0444 23.6596C16.3444 23.9596 16.2444 24.4596 16.2444 24.8596Z" fill="#C7C7C7"/>
<path id="Vector_81" d="M16.2445 24.86C15.9445 24.76 15.6445 24.56 15.7445 24.16C15.7445 24.06 15.7445 23.86 15.6445 23.76C15.4445 23.46 15.5445 23.16 15.8445 22.96C16.1445 22.96 16.3445 23.06 16.4445 23.46C16.4445 23.56 16.5445 23.76 16.5445 23.86C16.7445 24.06 16.6445 24.26 16.7445 24.56C16.7445 24.66 16.6445 24.76 16.6445 24.86C16.4445 24.76 16.3445 24.76 16.2445 24.86Z" fill="#EEEEEE"/>
<path id="Vector_82" d="M15.2444 26.0599C15.1444 26.1599 15.0444 26.1599 14.8444 26.2599C14.6444 26.3599 14.4444 26.4599 14.2444 26.4599C14.2444 26.3599 14.1444 26.3599 14.1444 26.2599C14.2444 25.3599 14.6444 25.3599 15.2444 25.7599L15.3444 25.8599C15.3444 25.9599 15.2444 26.0599 15.2444 26.0599Z" fill="#C7C7C7"/>
<path id="Vector_83" d="M16.7444 24.3602C16.6444 24.1602 16.6444 23.8602 16.5444 23.6602C16.8444 23.6602 16.8444 23.8602 17.0444 24.0602C16.9444 24.2602 16.8444 24.2602 16.7444 24.3602Z" fill="#D2D2D2"/>
<path id="Vector_84" d="M16.2444 24.8602C16.3444 24.7602 16.4444 24.6602 16.5444 24.6602C16.4444 24.7602 16.3444 24.7602 16.2444 24.8602Z" fill="#C7C7C7"/>
<path id="Vector_85" d="M17.8445 8.25937C17.9445 8.25937 18.0445 8.35938 18.1445 8.35938C18.2445 8.45938 18.2445 8.55936 18.2445 8.65936C18.2445 8.75936 18.3445 8.75937 18.3445 8.85938C18.3445 9.05938 18.3445 9.15937 18.4445 9.35938C18.5445 9.45938 18.5445 9.55937 18.5445 9.75937C18.6445 9.95937 18.6445 10.1594 18.7445 10.4594C18.8445 10.5594 18.8445 10.6594 18.8445 10.7594C18.8445 10.8594 18.9445 10.9594 18.9445 11.0594C18.9445 11.1594 19.0445 11.2594 19.1445 11.3594C19.1445 11.4594 19.1445 11.4594 19.1445 11.5594C19.1445 11.6594 19.0445 11.7594 19.0445 11.8594C19.1445 11.9594 19.1445 12.0594 19.1445 12.1594C19.1445 12.3594 19.1445 12.5594 19.1445 12.7594C18.8445 12.8594 18.6445 12.7594 18.5445 12.4594C18.4445 12.0594 18.3445 11.6594 18.2445 11.3594C18.0445 11.2594 17.8445 11.3594 17.6445 11.4594C17.5445 11.4594 17.4445 11.3594 17.3445 11.3594C17.1445 10.9594 16.8445 10.8594 16.4445 11.1594C16.4445 11.2594 16.4445 11.3594 16.3445 11.4594C16.3445 11.5594 16.3445 11.6594 16.1445 11.7594C16.0445 11.7594 16.0445 11.7594 15.9445 11.7594C15.8445 11.6594 15.8445 11.5594 15.8445 11.3594C15.7445 10.7594 15.7445 10.2594 16.1445 9.85938C16.3445 9.75937 16.6445 9.75937 16.5445 9.35938C16.4445 9.25937 16.4445 9.15935 16.3445 8.95935C16.2445 8.75935 15.9445 8.75935 15.8445 8.45935C15.7445 8.25935 15.7445 8.05938 15.9445 7.85938C16.2445 7.85938 16.5445 7.85938 16.8445 7.85938C17.2445 7.95938 17.3445 8.45937 17.8445 8.25937Z" fill="#D1D1D1"/>
<path id="Vector_86" d="M19.5444 10.96C19.5444 11.16 19.4444 11.26 19.2444 11.36H19.1444C19.1444 11.26 19.1444 11.26 19.1444 11.16L19.2444 11.06C19.3444 11.06 19.4444 11.06 19.5444 10.96Z" fill="#1D1D1D"/>
<path id="Vector_87" d="M18.9445 10.6594C18.9445 10.5594 18.8445 10.4594 18.8445 10.3594C18.8445 10.4594 18.9445 10.5594 18.9445 10.6594Z" fill="#BCBCBC"/>
<path id="Vector_88" d="M19.2444 11.1596C19.2444 11.2596 19.1444 11.3596 19.1444 11.4596C19.1444 11.3596 19.0444 11.1596 19.0444 11.0596C19.0444 11.0596 19.1444 11.0596 19.2444 11.1596Z" fill="#BCBCBC"/>
<path id="Vector_89" d="M18.3444 8.65936C18.3444 8.55936 18.2444 8.45938 18.2444 8.35938C18.2444 8.45938 18.2444 8.55936 18.3444 8.65936Z" fill="#BCBCBC"/>
<path id="Vector_90" d="M18.5445 9.35938C18.5445 9.15938 18.4445 9.05938 18.4445 8.85938C18.4445 9.05938 18.4445 9.15938 18.5445 9.35938Z" fill="#BCBCBC"/>
<path id="Vector_91" d="M18.6444 9.65976C18.5444 9.55976 18.5444 9.45977 18.5444 9.25977C18.5444 9.45977 18.6444 9.55976 18.6444 9.65976Z" fill="#BCBCBC"/>
<path id="Vector_92" d="M1.8444 18.5598C1.3444 18.4598 1.34442 18.4597 1.04442 18.9597C0.844416 19.0597 0.744404 19.0598 0.844404 18.8598C1.0444 17.9598 1.3444 17.0598 1.3444 16.1598C1.2444 16.0598 1.2444 16.0597 1.2444 15.9597C1.2444 15.8597 1.3444 15.8598 1.3444 15.8598C1.4444 15.4598 1.6444 15.0598 1.7444 14.7598C1.9444 15.2598 1.94441 15.8598 1.94441 16.3598C1.94441 16.9598 2.1444 17.2597 2.7444 17.4597C2.8444 17.5597 3.04439 17.5598 3.14439 17.6598C3.14439 17.7598 3.14442 17.8597 3.04442 17.9597C3.14442 18.0597 3.14442 18.2598 3.04442 18.3598C2.74442 18.6598 2.44439 18.5598 2.14439 18.6598C2.04439 18.6598 1.9444 18.5598 1.8444 18.5598Z" fill="#DDDDDD"/>
<path id="Vector_93" d="M1.34445 15.9594C1.34445 16.0594 1.34445 16.1594 1.34445 16.2594C1.24445 16.3594 1.04446 16.4594 0.944458 16.4594C0.944458 16.2594 1.04446 16.0594 1.04446 15.8594C1.14446 15.9594 1.24445 15.9594 1.34445 15.9594Z" fill="#484848"/>
<path id="Vector_94" d="M0.844421 18.8594C0.944421 18.8594 1.04443 18.9594 1.04443 18.9594C0.944434 19.1594 0.944421 19.3594 0.844421 19.4594C0.744421 19.5594 0.644409 19.5594 0.644409 19.3594C0.744409 19.2594 0.844421 19.0594 0.844421 18.8594Z" fill="#636363"/>
<path id="Vector_95" d="M0.744385 19.46C0.844385 19.46 0.944397 19.56 0.944397 19.56C0.944397 19.66 0.944397 19.76 0.944397 19.86C0.844397 19.76 0.844385 19.56 0.744385 19.46Z" fill="#545454"/>
<path id="Vector_96" d="M3.0444 25.4594C3.0444 25.5594 3.0444 25.5594 2.9444 25.6594C2.8444 25.5594 2.84438 25.4594 2.74438 25.3594C2.94438 25.3594 2.9444 25.3594 3.0444 25.4594Z" fill="#C6C6C6"/>
<path id="Vector_97" d="M3.14441 25.7598C3.24441 25.8598 3.34443 25.9598 3.44443 26.1598C3.34443 26.0598 3.24441 25.9598 3.14441 25.7598Z" fill="#C6C6C6"/>
<path id="Vector_98" d="M3.44446 26.1602C3.54446 26.2602 3.54444 26.3601 3.64444 26.4601C3.64444 26.3601 3.54446 26.2602 3.44446 26.1602Z" fill="#C6C6C6"/>
<path id="Vector_99" d="M8.94442 28.3597C8.64442 28.2597 8.4444 28.2597 8.1444 28.1597C7.8444 28.0597 7.54442 27.8597 7.34442 27.5597C7.24442 27.3597 7.34443 27.1597 7.54443 27.0597C7.54443 26.9597 7.6444 26.8597 7.6444 26.7597C7.7444 26.6597 7.7444 26.5597 7.6444 26.4597C7.4444 26.3597 7.24443 26.2597 7.04443 26.1597C6.64443 25.3597 6.94442 24.4597 6.94442 23.7597C6.94442 23.1597 7.44442 22.4597 8.34442 22.9597C8.44442 23.6597 8.44443 24.3597 8.54443 25.0597C8.64443 25.5597 8.94442 25.8597 9.34442 25.9597C9.44442 25.9597 9.44443 25.9597 9.54443 25.9597C9.64443 25.9597 9.74442 25.9597 9.84442 25.9597C10.0444 25.9597 10.1444 25.8597 10.3444 25.7597C10.4444 25.6597 10.4444 25.5597 10.4444 25.3597C10.4444 24.0597 11.2444 24.5597 11.9444 24.7597C12.3444 25.3597 12.3444 26.1597 12.6444 26.7597C12.6444 26.9597 12.5444 27.0597 12.4444 27.1597C12.2444 27.2597 12.1444 27.4597 11.9444 27.5597C11.5444 27.5597 11.2444 27.6597 10.9444 27.8597C10.3444 27.9597 9.64442 27.9597 8.94442 28.3597Z" fill="#CFCFCF"/>
<path id="Vector_100" d="M12.4444 27.2594C12.4444 27.1594 12.4444 26.9594 12.5444 26.8594C12.2444 26.3594 12.3444 25.9593 12.5444 25.4593C12.6444 25.3593 12.7444 25.1593 12.8444 25.1593C13.1444 25.0593 13.4444 25.1594 13.7444 25.3594C14.0444 25.6594 14.0444 26.0593 14.2444 26.4593L14.3444 26.5593C14.1444 26.6593 14.0444 26.7593 13.8444 26.9593C13.3444 27.0593 12.9444 27.2594 12.4444 27.2594Z" fill="#C8C8C8"/>
<path id="Vector_101" d="M13.8445 26.96C13.9445 27.06 13.9445 27.06 13.9445 27.16C13.8445 27.16 13.8445 27.06 13.8445 26.96Z" fill="#232323"/>
<path id="Vector_102" d="M19.1444 12.0598C19.1444 11.9598 19.0444 11.8598 19.0444 11.7598C19.1444 11.7598 19.1444 11.8598 19.1444 12.0598Z" fill="#BCBCBC"/>
<path id="Vector_103" d="M11.0444 28.1602C11.1444 28.1602 11.1444 28.2602 11.1444 28.3602C11.0444 28.2602 11.0444 28.1602 11.0444 28.1602Z" fill="#1B1B1B"/>
<path id="Vector_104" d="M14.0445 2.75937C13.8445 2.65937 13.6445 2.45938 13.4445 2.35938C13.6445 2.35938 13.7445 2.45935 13.9445 2.45935C13.9445 2.55935 13.9445 2.65937 14.0445 2.75937Z" fill="#E0E0E0"/>
<path id="Vector_105" d="M14.4444 3.15976C14.3444 3.05976 14.2444 2.95977 14.2444 2.75977C14.3444 2.75977 14.4444 2.75977 14.4444 2.85977C14.3444 3.05977 14.3444 3.15976 14.4444 3.15976Z" fill="#E0E0E0"/>
<path id="Vector_106" d="M16.0445 14.56C16.0445 14.46 16.1445 14.36 16.1445 14.26C16.0445 14.16 16.0445 14.06 15.9445 13.86C15.8445 13.66 15.9445 13.36 15.8445 13.26C15.7445 13.26 15.6445 13.16 15.5445 13.16C15.4445 13.06 15.4445 12.86 15.5445 12.76C15.7445 12.36 16.0445 12.06 16.4445 11.96C17.0445 12.06 17.0445 12.46 17.1445 12.86C17.3445 12.66 17.5445 12.46 17.7445 12.26H17.9445C18.1445 12.56 18.3445 12.96 18.5445 13.26C18.4445 13.56 18.4445 13.86 18.3445 14.06C18.3445 14.16 18.2445 14.16 18.2445 14.26C17.8445 14.76 17.2445 14.76 16.7445 14.96C16.6445 14.96 16.4445 14.96 16.3445 14.86C16.1445 14.96 16.1445 14.76 16.0445 14.56Z" fill="#EDEDED"/>
<path id="Vector_107" d="M17.1444 12.9594C16.9444 12.7594 16.7444 12.4594 16.4444 12.2594C16.3444 12.3594 16.2444 12.3594 16.1444 12.2594C15.9444 11.9594 16.1444 11.7594 16.3444 11.5594C16.3444 11.4594 16.4444 11.4594 16.4444 11.3594C16.5444 11.3594 16.7444 11.3594 16.8444 11.4594C17.2444 11.6594 17.3444 11.8594 17.3444 12.1594C17.2444 12.3594 17.1444 12.6594 17.1444 12.9594Z" fill="#939393"/>
<path id="Vector_108" d="M16.4445 10.9597C16.4445 10.8597 16.5445 10.7597 16.5445 10.7597C16.6445 10.5597 16.8445 10.4597 17.0445 10.5597C17.2445 10.6597 17.3445 10.7597 17.3445 10.9597C17.3445 11.0597 17.3445 11.1597 17.3445 11.2597C17.0445 11.1597 16.7445 11.0597 16.4445 10.9597Z" fill="#E9E9E9"/>
<path id="Vector_109" d="M17.6444 11.2601C17.9444 10.8601 17.9444 10.8601 18.2444 11.1601C18.0444 11.1601 17.8444 11.2601 17.6444 11.2601Z" fill="#B0B0B0"/>
<path id="Vector_110" d="M18.5444 13.4594L18.6444 13.3594L18.5444 13.4594Z" fill="#A2A2A2"/>
<path id="Vector_111" d="M18.6445 14.3598C18.6445 14.4598 18.5445 14.5598 18.5445 14.6598C18.2445 14.6598 18.2445 14.5598 18.3445 14.2598C18.4445 14.2598 18.5445 14.3598 18.6445 14.3598Z" fill="#EDEDED"/>
<path id="Vector_112" d="M18.3444 14.2596C18.4444 14.3596 18.4444 14.4596 18.5444 14.6596C18.4444 14.8596 18.4444 15.0596 18.3444 15.2596C18.3444 15.5596 18.4444 15.8596 18.5444 16.1596C18.8444 16.6596 18.5444 17.2596 18.5444 17.7596C18.5444 17.9596 18.4444 18.1596 18.4444 18.3596C18.5444 18.7596 18.5444 19.1596 18.3444 19.5596C17.9444 19.6596 17.7444 19.3596 17.6444 19.0596C17.5444 18.8596 17.4444 18.6596 17.2444 18.5596C16.7444 18.0596 17.0444 16.7596 15.8444 16.8596C15.8444 16.7596 15.7444 16.7596 15.7444 16.6596C15.8444 16.2596 15.9444 15.8596 16.0444 15.5596L16.1444 15.4596C16.2444 15.3596 16.4444 15.2596 16.5444 15.0596C16.8444 14.6596 16.8444 14.1596 16.9444 13.6596L17.1444 13.5596C17.2444 13.6596 17.3444 13.7596 17.4444 13.8596C17.6444 14.2596 17.9444 14.3596 18.3444 14.2596Z" fill="#F3F3F3"/>
<path id="Vector_113" d="M18.5444 17.7598C18.2444 17.2598 18.2444 16.6598 18.1444 16.0598C18.3444 15.8598 18.2444 15.3598 18.6444 15.2598C18.7444 15.4598 18.8444 15.6598 18.9444 15.7598C19.2444 16.5598 19.1444 17.1598 18.5444 17.7598Z" fill="#DCDCDC"/>
<path id="Vector_114" d="M18.6444 15.2602C18.5444 15.5602 18.4444 15.8602 18.1444 16.0602C18.0444 15.7602 18.0444 15.4602 18.3444 15.1602C18.4444 15.2602 18.5444 15.2602 18.6444 15.2602Z" fill="#EDEDED"/>
<path id="Vector_115" d="M17.9444 18.8602C18.0444 19.0602 18.2444 19.3601 18.3444 19.5601C18.2444 20.1601 18.2444 20.7602 18.1444 21.3602C18.0444 21.4602 17.9444 21.3602 17.8444 21.2602C17.7444 21.0602 17.5444 20.8601 17.3444 20.6601C17.2444 20.4601 17.0444 20.2601 17.0444 19.9601C17.0444 19.6601 16.9444 19.4601 17.0444 19.1601C17.1444 19.0601 17.1444 18.9602 17.2444 18.8602C17.5444 18.7602 17.7444 18.7602 17.9444 18.8602Z" fill="#F7F7F7"/>
<path id="Vector_116" d="M14.8444 23.56C14.7444 23.76 14.7444 23.96 14.6444 24.16C14.6444 24.26 14.5444 24.46 14.5444 24.56C14.4444 24.66 14.3444 24.76 14.2444 24.86C14.1444 24.86 14.1444 24.86 14.0444 24.86C13.9444 24.86 13.7444 24.76 13.6444 24.66C13.4444 24.46 13.4444 24.16 13.3444 23.86C13.2444 23.46 13.4444 23.06 13.5444 22.66C13.6444 22.06 13.9444 21.46 13.4444 20.96C13.6444 20.56 13.8444 20.36 14.3444 20.36C14.7444 20.46 15.0444 20.16 15.3444 19.86C15.3444 19.76 15.3444 19.76 15.3444 19.66C15.3444 19.56 15.3444 19.46 15.3444 19.36C15.3444 19.16 15.4444 19.06 15.3444 18.86C15.4444 18.56 15.5444 18.26 15.5444 17.96C15.4444 17.86 15.4444 17.66 15.3444 17.56C15.4444 17.16 15.5444 16.76 15.9444 16.46C17.1444 17.16 17.3444 18.16 16.8444 19.76C16.7444 19.86 16.6444 19.96 16.4444 19.96C16.3444 20.16 16.3444 20.36 16.2444 20.56C16.5444 21.06 16.3444 21.46 15.7444 21.56C15.6444 21.66 15.5444 21.66 15.4444 21.76C15.3444 21.86 15.3444 21.96 15.3444 22.06C15.3444 22.16 15.3444 22.26 15.3444 22.46C15.3444 22.66 15.3444 22.86 15.2444 22.96C15.0444 23.36 14.9444 23.46 14.8444 23.56Z" fill="#F2F2F2"/>
<path id="Vector_117" d="M16.1444 7.75984C16.1444 7.95984 16.0444 8.15984 16.0444 8.35984C15.8444 8.15984 15.5444 8.15982 15.4444 8.45982C15.3444 8.45982 15.3444 8.55982 15.2444 8.55982C14.2444 8.25982 14.3444 7.15983 13.5444 6.65983C12.7444 6.05983 12.6444 4.65984 11.2444 4.75984C11.1444 4.15984 11.2444 4.05982 11.5444 3.95982C11.8444 3.85982 12.1444 3.75982 12.5444 3.55982C12.8444 3.45982 13.0444 3.45983 13.2444 3.65983C13.3444 3.75983 13.4444 3.85984 13.5444 3.85984C13.6444 3.95984 13.7444 4.05983 13.7444 4.15983C13.8444 4.25983 13.9444 4.45982 14.0444 4.55982C14.3444 5.25982 14.6444 5.85982 15.1444 6.45982C15.2444 6.35982 15.3444 6.45982 15.3444 6.55982C15.5444 6.65982 15.6444 6.85982 15.8444 6.95982C16.0444 7.05982 16.0444 7.15984 15.7444 7.25984C15.8444 7.45984 16.0444 7.55984 16.1444 7.75984Z" fill="#F4F4F4"/>
<path id="Vector_118" d="M2.9444 18.26C2.9444 18.16 3.0444 18.06 3.0444 17.96C3.6444 18.66 3.94439 19.56 4.34439 20.46C4.54439 20.86 4.5444 21.36 4.5444 21.76C4.5444 22.26 4.5444 22.86 4.5444 23.36C4.3444 23.46 4.1444 23.56 3.9444 23.46C2.9444 22.16 2.84438 20.46 2.24438 19.06C2.24438 18.96 2.24438 18.76 2.24438 18.66C2.34438 18.56 2.4444 18.46 2.5444 18.36C2.6444 18.36 2.7444 18.26 2.9444 18.26Z" fill="#F2F2F2"/>
<path id="Vector_119" d="M11.8445 25.16C11.7445 25.16 11.6445 25.06 11.5445 25.06C10.9445 24.96 10.8445 25.06 10.9445 25.56C10.9445 25.66 10.9445 25.76 11.0445 25.86C11.1445 26.06 11.1445 26.26 10.8445 26.36C10.7445 26.76 10.6445 26.86 10.4445 26.66C10.1445 26.46 9.94444 26.26 9.64444 26.06C9.54444 26.16 9.44446 26.16 9.44446 26.06V25.96C9.84446 25.76 10.1445 25.46 10.3445 25.06C10.5445 24.46 10.8445 24.16 11.5445 24.16C11.8445 24.16 11.9445 23.86 12.0445 23.66C12.3445 23.66 12.2444 23.56 12.1444 23.36C12.4444 23.16 12.7445 23.16 13.0445 23.26C13.9445 23.96 13.9445 24.06 13.0445 24.86C12.5445 25.06 12.2445 25.36 11.8445 25.16Z" fill="#DADADA"/>
<path id="Vector_120" d="M6.54449 26.16C6.44449 26.66 6.54448 27.16 6.34448 27.56C5.54448 27.26 5.04449 26.66 5.04449 25.76C5.14449 25.86 5.34449 26.06 5.44449 26.16C5.54449 26.26 5.64447 26.16 5.64447 26.06C5.64447 25.96 5.64447 25.76 5.64447 25.66C5.44447 24.76 5.14448 23.86 4.84448 22.96C5.04448 23.06 5.24449 23.06 5.44449 23.16C5.84449 23.36 6.34447 23.26 6.64447 23.66C7.04447 24.46 7.34449 25.36 6.54449 26.16Z" fill="#F2F2F2"/>
<path id="Vector_121" d="M6.54443 26.1595C6.54443 25.2595 6.64442 24.4595 6.34442 23.5595C6.14442 23.0595 6.44442 22.8595 6.84442 22.7595C7.14442 22.7595 7.34441 22.6595 7.64441 22.5595C8.04441 22.3595 8.04442 22.4595 8.34442 22.9595C7.44442 23.2595 7.24442 23.3595 7.34442 24.0595C7.44442 24.8595 7.34443 25.5595 7.04443 26.1595C6.94443 26.1595 6.74443 26.1595 6.54443 26.1595Z" fill="#F3F3F3"/>
<path id="Vector_122" d="M14.2445 9.06001C13.7445 8.46001 13.3445 7.86003 12.7445 7.26003C12.2445 6.76003 11.8445 6.26001 11.8445 5.46001C12.7445 5.16001 13.0445 5.96001 13.4445 6.46001C13.8445 7.16001 14.6445 7.76003 14.4445 8.76003C14.4445 8.96003 14.3445 9.06001 14.2445 9.06001Z" fill="#F6F6F6"/>
<path id="Vector_123" d="M13.3444 6.65992C12.8444 6.25992 12.3444 5.85991 11.9444 5.45991C11.7444 5.25991 11.4444 4.95992 11.2444 4.75992C11.6444 4.25992 11.8444 4.25991 12.2444 4.45991C12.4444 4.55991 12.6444 4.75993 12.8444 4.85993C13.2444 5.35993 13.7444 5.75993 13.9444 6.35993C13.9444 6.45993 13.9444 6.45991 13.9444 6.55991C13.8444 6.65991 13.7444 6.65992 13.6444 6.65992C13.4444 6.65992 13.3444 6.65992 13.3444 6.65992Z" fill="#3D3D3D"/>
<path id="Vector_124" d="M12.5444 24.7602C12.6444 24.6602 12.7444 24.5602 12.8444 24.4602C13.3444 23.9602 13.3444 23.9602 12.9444 23.2602C13.0444 22.9602 13.1444 22.7602 13.2444 22.4602C13.4444 22.3602 13.6444 22.3602 13.8444 22.5602C13.7444 22.9602 13.7444 23.3602 13.8444 23.7602C13.9444 23.9602 13.8444 24.1602 13.9444 24.3602C14.1444 24.6602 14.7444 24.7602 14.4444 25.2602C14.2444 25.5602 14.0444 25.7602 13.6444 25.5602C13.4444 25.3602 13.3444 25.2602 13.1444 25.0602C13.0444 25.0602 13.0444 25.1602 12.9444 25.1602C12.8444 25.1602 12.8444 25.1602 12.7444 25.0602C12.6444 24.9602 12.6444 24.8602 12.5444 24.7602C12.5444 24.7602 12.5444 24.8602 12.5444 24.7602Z" fill="#C0C0C0"/>
<path id="Vector_125" d="M13.7444 22.56C13.5444 22.56 13.3444 22.46 13.1444 22.46C13.1444 21.96 13.2444 21.46 13.2444 20.96C13.4444 20.96 13.7444 20.96 13.9444 20.96C14.1444 20.96 14.2444 21.26 14.2444 21.46C14.1444 21.86 13.9444 22.16 13.7444 22.56Z" fill="#DFDFDF"/>
<path id="Vector_126" d="M13.1444 4.05975C12.8444 3.85975 12.6444 3.65975 12.3444 3.55975C12.2444 3.15975 12.1444 2.75977 12.0444 2.25977C12.1444 2.25977 12.2444 2.25977 12.3444 2.35977H12.4444V2.45975V2.35977H12.5444C12.7444 2.55977 12.8444 2.65977 13.0444 2.85977C13.1444 2.95977 13.2444 3.05977 13.2444 3.25977C13.3444 3.35977 13.3444 3.45976 13.4444 3.65976C13.5444 3.85976 13.4444 4.05975 13.1444 4.05975Z" fill="#D4D4D4"/>
<path id="Vector_127" d="M6.9444 22.7594C6.7444 23.0594 6.5444 23.2594 6.4444 23.5594C6.4444 23.6594 6.34439 23.7594 6.34439 23.8594C6.14439 24.0594 5.9444 24.0594 5.9444 23.8594C5.8444 23.5594 5.74438 23.2594 5.74438 23.0594C5.94438 22.8594 6.04438 22.7594 6.24438 22.5594C6.34438 22.4594 6.44438 22.4594 6.64438 22.3594C6.54438 22.5594 6.7444 22.6594 6.9444 22.7594Z" fill="#E0E0E0"/>
<path id="Vector_128" d="M14.2444 9.05987C14.2444 8.95987 14.3444 8.85988 14.3444 8.75988C14.7444 8.55988 15.0444 8.95988 15.4444 8.75988C15.5444 8.75988 15.5444 8.75988 15.6444 8.75988C15.7444 8.95988 15.7444 9.25987 15.6444 9.45987C15.5444 9.65987 15.3444 9.75989 15.0444 9.85989C14.7444 9.95989 14.3444 9.85989 14.3444 9.35989C14.2444 9.25989 14.2444 9.15987 14.2444 9.05987Z" fill="#F4F4F4"/>
<path id="Vector_129" d="M16.2445 9.66016C16.0445 10.2602 16.0445 10.7602 16.0445 11.3602C15.9445 11.4602 15.8445 11.4602 15.8445 11.3602C15.6445 10.6602 15.6445 10.0602 16.2445 9.66016Z" fill="#F4F4F4"/>
<path id="Vector_130" d="M3.94443 23.2598C4.14443 23.3598 4.34443 23.3597 4.54443 23.4597C4.54443 23.5597 4.44443 23.6598 4.44443 23.7598C4.54443 23.8598 4.54441 24.0598 4.64441 24.1598C4.64441 24.3598 4.54443 24.5598 4.54443 24.7598C4.44443 24.7598 4.44442 24.7598 4.34442 24.7598C3.94442 24.6598 3.84441 24.3598 3.64441 24.0598C3.64441 23.9598 3.64441 23.7598 3.64441 23.6598C3.74441 23.3598 3.84443 23.2598 3.94443 23.2598Z" fill="#E7E7E7"/>
<path id="Vector_131" d="M15.6444 12.8602C15.6444 12.9602 15.6444 13.0602 15.5444 13.1602C15.1444 12.6602 15.1444 12.1602 15.6444 11.6602C15.7444 11.6602 15.7444 11.7602 15.8444 11.7602C15.9444 12.1602 15.9444 12.5602 15.6444 12.8602Z" fill="#F3F3F3"/>
<path id="Vector_132" d="M16.0444 14.5596C16.1444 14.6596 16.1444 14.8596 16.2444 14.9596C16.3444 15.1596 16.3444 15.3596 16.0444 15.5596C15.9444 15.1596 16.0444 14.8596 16.0444 14.5596Z" fill="#F3F3F3"/>
<path id="Vector_133" d="M15.1443 18.96C15.1443 19.16 15.2443 19.36 15.2443 19.66C15.4443 19.76 15.3443 19.86 15.1443 19.96C15.0443 19.56 15.0443 19.26 15.1443 18.96Z" fill="#F3F3F3"/>
<path id="Vector_134" d="M12.0445 23.3594C12.0445 23.3594 12.1445 23.3594 12.1445 23.4594C12.2445 23.5594 12.3445 23.6594 12.2445 23.6594C12.1445 23.8594 12.0445 23.6594 11.8445 23.6594C11.9445 23.5594 12.0445 23.4594 12.0445 23.3594Z" fill="#C4C4C4"/>
<path id="Vector_135" d="M16.6444 9.16016C16.6444 9.56016 16.6444 9.56016 16.2444 9.66016C16.3444 9.46016 16.5444 9.36016 16.6444 9.16016Z" fill="#F4F4F4"/>
<path id="Vector_136" d="M15.8445 13.2598C15.8445 13.4598 15.9445 13.6598 15.9445 13.8598C15.9445 13.6598 15.8445 13.4598 15.8445 13.2598Z" fill="#F3F3F3"/>
<path id="Vector_137" d="M16.0444 8.35938C16.2444 8.55938 16.3444 8.65938 16.5444 8.85938C16.3444 8.65938 16.1444 8.45938 16.0444 8.35938Z" fill="#F4F4F4"/>
<path id="Vector_138" d="M15.7444 11.3594C15.8444 11.3594 15.9444 11.3594 15.9444 11.3594L16.0444 11.4594C16.0444 11.5594 16.0444 11.6594 15.9444 11.7594C15.8444 11.7594 15.7444 11.7594 15.6444 11.6594H15.5444C15.6444 11.5594 15.7444 11.4594 15.7444 11.3594Z" fill="#D1D1D1"/>
<path id="Vector_139" d="M15.9445 13.8594C16.0445 13.9594 16.0444 14.0594 16.1444 14.2594C16.1444 14.1594 16.0445 14.0594 15.9445 13.8594Z" fill="#F3F3F3"/>
<path id="Vector_140" d="M15.1444 17.7598C15.2444 17.8598 15.2444 18.0598 15.3444 18.1598C15.3444 17.9598 15.2444 17.8598 15.1444 17.7598Z" fill="#F3F3F3"/>
<path id="Vector_141" d="M6.44443 22.3594C6.34443 22.4594 6.24443 22.4594 6.04443 22.5594C6.14443 22.4594 6.24443 22.4594 6.44443 22.3594Z" fill="#F3F3F3"/>
<path id="Vector_142" d="M4.64444 24.0602C4.54444 23.9602 4.54446 23.8602 4.44446 23.6602C4.54446 23.7602 4.64444 23.9602 4.64444 24.0602Z" fill="#F2F2F2"/>
<path id="Vector_143" d="M4.54443 24.5596C4.64443 24.6596 4.64441 24.8596 4.74441 24.9596C4.64441 24.9596 4.64443 24.9596 4.54443 24.9596C4.44443 24.9596 4.34443 24.7596 4.54443 24.5596Z" fill="#E7E7E7"/>
<path id="Vector_144" d="M4.94443 25.36C4.84443 25.36 4.74442 25.26 4.74442 25.26C4.64442 25.16 4.64441 25.16 4.64441 25.06C4.64441 24.96 4.74442 24.96 4.74442 24.96C4.84442 25.16 4.84443 25.26 4.94443 25.36Z" fill="#F2F2F2"/>
<path id="Vector_145" d="M5.14444 25.7594C5.04444 25.6594 5.04446 25.4594 4.94446 25.3594C4.94446 25.4594 5.04444 25.5594 5.14444 25.7594Z" fill="#F2F2F2"/>
<path id="Vector_146" d="M15.3445 8.45996C15.4445 8.55996 15.4445 8.65999 15.5445 8.85999L15.4445 8.95996C15.2445 8.75996 15.2445 8.65996 15.3445 8.45996Z" fill="#F4F4F4"/>
<path id="Vector_147" d="M16.4445 8.75977C16.5445 8.85977 16.5444 8.95976 16.6444 9.15976C16.6444 9.05976 16.5445 8.85977 16.4445 8.75977Z" fill="#F4F4F4"/>
<path id="Vector_148" d="M15.5444 20.8598C15.9444 21.3598 15.9444 21.3598 16.1444 20.7598C16.2444 20.8598 16.3444 20.9598 16.4444 21.0598C16.7444 21.4598 16.7444 21.7597 16.2444 21.9597C15.8444 22.1597 15.8444 22.4598 15.8444 22.7598C15.7444 23.0598 15.7444 23.3598 15.6444 23.5598C14.8444 23.3598 15.0444 22.6598 15.0444 22.1598C15.0444 22.0598 15.0444 21.8598 15.0444 21.7598C15.0444 21.4598 15.1444 21.1598 15.2444 20.8598C15.3444 20.9598 15.4444 20.8598 15.5444 20.8598Z" fill="#D2D2D2"/>
<path id="Vector_149" d="M16.3445 20.2596C16.3445 20.1596 16.3445 20.0596 16.4445 19.9596C16.6445 19.6596 16.9445 19.4596 17.3445 19.6596C17.4445 19.7596 17.5445 19.8596 17.6445 19.9596C17.6445 20.1596 17.7445 20.3596 17.7445 20.6596C17.8445 20.8596 17.8445 21.0596 17.5445 21.2596C17.3445 21.2596 17.2445 21.1596 17.0445 21.0596C16.8445 20.7596 16.6445 20.4596 16.3445 20.2596Z" fill="#D2D2D2"/>
<path id="Vector_150" d="M17.6444 21.1596C17.7444 20.9596 17.7444 20.7596 17.8444 20.5596C17.8444 20.7596 17.9444 20.9596 17.9444 21.2596C17.8444 21.2596 17.7444 21.2596 17.6444 21.1596Z" fill="#DCDCDC"/>
<path id="Vector_151" d="M17.8445 21.2598C17.9445 21.2598 18.0445 21.3598 18.1445 21.3598C18.0445 21.3598 17.9445 21.3598 17.8445 21.2598Z" fill="#DCDCDC"/>
<path id="Vector_152" d="M17.8444 8.25977C17.7444 8.35977 17.7444 8.45975 17.6444 8.45975C17.2444 8.65975 17.0444 8.55976 17.0444 8.15976C17.0444 8.05976 17.0444 7.85977 17.0444 7.75977C17.3444 7.85977 17.6444 8.05977 17.8444 8.25977Z" fill="#AAAAAA"/>
<path id="Vector_153" d="M13.1444 4.05957C13.3444 3.85957 13.4444 3.75957 13.6444 3.55957C13.8444 3.85957 14.0444 4.15957 13.9444 4.55957C13.7444 4.55957 13.5444 4.45956 13.4444 4.45956C13.3444 4.35956 13.2444 4.25957 13.1444 4.05957Z" fill="#BBBBBB"/>
<path id="Vector_154" d="M15.2444 6.56022C15.1444 6.56022 15.0444 6.46021 15.0444 6.46021C15.2444 6.36021 15.2444 6.36022 15.2444 6.56022Z" fill="#CBCBCB"/>
<path id="Vector_155" d="M15.6444 7.25998C15.6444 7.15998 15.6444 7.05996 15.7444 6.95996C15.8444 7.05996 15.8444 7.05997 15.9444 7.15997C15.8444 7.25997 15.7444 7.25998 15.6444 7.25998Z" fill="#C9C9C9"/>
<path id="Vector_156" d="M12.4445 2.35977C12.5445 2.35977 12.6444 2.25977 12.7444 2.25977C12.7444 2.35977 12.7444 2.35975 12.6444 2.45975C12.5444 2.45975 12.4445 2.45977 12.4445 2.35977Z" fill="#E0E0E0"/>
<path id="Vector_157" d="M13.4444 3.25937C13.3444 3.15937 13.3444 3.05938 13.2444 2.85938C13.2444 2.95938 13.3444 3.15937 13.4444 3.25937Z" fill="#E0E0E0"/>
<path id="Vector_158" d="M3.9444 23.2597C3.9444 23.3597 3.84439 23.4597 3.84439 23.5597C3.64439 23.6597 3.6444 23.8597 3.5444 23.9597C3.4444 23.9597 3.44439 23.9597 3.34439 23.9597C3.24439 23.6597 3.04438 23.3597 2.64438 23.4597C2.64438 23.2597 2.54438 22.9597 2.74438 22.7597C2.94438 22.6597 3.04439 22.4597 2.84439 22.2597C2.74439 22.1597 2.6444 22.0597 2.5444 21.9597C2.3444 20.7597 1.84438 19.7597 1.74438 18.5597C1.94438 18.4597 2.14439 18.5597 2.34439 18.7597C2.94439 20.2597 3.4444 21.7597 3.9444 23.2597Z" fill="#DDDDDD"/>
<path id="Vector_159" d="M4.74445 24.9597C4.74445 25.0597 4.74445 25.1597 4.74445 25.2597C4.44445 25.2597 4.14446 25.3597 4.04446 25.6597C3.94446 25.5597 3.84445 25.4597 3.74445 25.2597C3.64445 24.8597 3.54446 24.3597 3.44446 23.9597H3.54446C3.64446 23.8597 3.74446 23.6597 3.94446 23.7597C4.14446 24.0597 4.34446 24.3597 4.54446 24.5597C4.54446 24.7597 4.64445 24.8597 4.74445 24.9597Z" fill="#C6C6C6"/>
<path id="Vector_160" d="M7.74439 26.4597C7.84439 26.3597 7.84441 26.1597 7.94441 26.0597C8.14441 25.9597 8.34441 26.0597 8.44441 26.2597C8.54441 26.3597 8.64439 26.5597 8.64439 26.6597C8.64439 26.7597 8.64441 26.9597 8.54441 27.0597C8.44441 27.1597 8.24439 27.0597 8.14439 27.0597C8.04439 26.9597 7.9444 26.8597 7.8444 26.7597C7.6444 26.6597 7.64439 26.5597 7.74439 26.4597Z" fill="#EBEBEB"/>
<path id="Vector_161" d="M7.54442 27.0596C7.44442 27.2596 7.4444 27.3596 7.3444 27.5596C7.2444 27.3596 7.34442 27.1596 7.54442 27.0596Z" fill="#969696"/>
<path id="Vector_162" d="M13.5444 25.6602C14.1444 25.2602 14.1444 25.2601 13.8444 24.4601C13.9444 24.4601 14.0444 24.5602 14.1444 24.5602C14.2444 24.5602 14.2444 24.4601 14.2444 24.4601C14.2444 24.3601 14.2444 24.3602 14.2444 24.3602C14.3444 24.2602 14.4444 24.1602 14.6444 24.1602C14.8444 24.7602 15.0444 25.2602 15.3444 25.8602C14.8444 25.7602 14.5444 26.0601 14.2444 26.4601C13.8444 26.2601 13.6444 25.9602 13.5444 25.6602Z" fill="#E7E7E7"/>
<path id="Vector_163" d="M15.1444 22.0596C15.1444 22.2596 15.2444 22.5596 15.2444 22.7596C15.2444 23.1596 15.3444 23.4596 15.5444 23.7596C15.2444 23.8596 14.9444 23.7596 14.7444 23.5596C14.7444 23.4596 14.7444 23.3596 14.7444 23.2596C14.6444 23.0596 14.7444 22.8596 14.6444 22.6596C14.6444 22.5596 14.7444 22.4596 14.7444 22.3596C14.9444 22.1596 15.0444 22.0596 15.1444 22.0596Z" fill="#B1B1B1"/>
<path id="Vector_164" d="M17.7445 9.55977C17.6445 9.65977 17.6445 9.65978 17.5445 9.75978C17.4445 9.75978 17.3445 9.55976 17.4445 9.45976C17.5445 9.35976 17.5445 9.25979 17.6445 9.35979C17.7445 9.35979 17.7445 9.55977 17.7445 9.55977Z" fill="#B5B5B5"/>
<path id="Vector_165" d="M15.9445 11.66C16.0445 11.56 16.0445 11.56 16.0445 11.46C16.1445 11.46 16.2445 11.46 16.2445 11.46C16.5445 11.76 16.5445 11.76 16.0445 12.06C15.8445 12.06 15.7445 11.96 15.9445 11.66Z" fill="#4E4E4E"/>
<path id="Vector_166" d="M2.44449 18.7596C2.24449 18.6596 2.04448 18.6595 1.84448 18.5595C2.24448 17.9595 2.24448 17.9596 2.84448 18.2596C2.84448 18.3596 2.74448 18.4595 2.74448 18.5595C2.74448 18.5595 2.54449 18.6596 2.44449 18.7596Z" fill="#CDCDCD"/>
<path id="Vector_167" d="M11.8445 25.1598C12.0445 25.0598 12.3445 24.8598 12.5445 24.7598C12.6445 24.8598 12.6445 24.9598 12.7445 25.1598C12.8445 25.2598 12.9445 25.3598 12.9445 25.5598C12.8445 26.0598 12.6445 26.4597 12.5445 26.9597C12.1445 26.8597 11.8445 26.5598 11.8445 26.1598C11.8445 25.7598 11.8445 25.4598 11.8445 25.1598Z" fill="#F4F4F4"/>
<path id="Vector_168" d="M10.8445 26.3594C10.9445 26.1594 10.9445 26.0594 11.0445 25.8594C11.1445 26.1594 11.0445 26.2594 10.8445 26.3594Z" fill="#A2A2A2"/>
<path id="Vector_169" d="M9.44446 26.0596C9.54446 26.0596 9.64444 26.0596 9.64444 26.0596C9.54444 26.1596 9.54446 26.1596 9.44446 26.2596C9.44446 26.2596 9.44446 26.1596 9.44446 26.0596Z" fill="#A9A9A9"/>
<path id="Vector_170" d="M12.9444 25.4596C12.8444 25.3596 12.8444 25.2596 12.7444 25.0596C12.8444 25.0596 12.9444 25.1596 13.0444 25.1596C13.0444 25.2596 12.9444 25.3596 12.9444 25.4596Z" fill="#CFCFCF"/>
<path id="Vector_171" d="M15.9444 11.6602C16.0444 11.7602 16.1444 11.9602 16.1444 12.0602C16.2444 12.0602 16.3444 12.1602 16.4444 12.1602C16.2444 12.4602 16.0444 12.7602 15.6444 12.8602C15.5444 12.4602 15.5444 12.0602 15.7444 11.6602C15.7444 11.6602 15.8444 11.6602 15.9444 11.6602Z" fill="#A0A0A0"/>
<path id="Vector_172" d="M16.1444 15.4594C16.2444 15.2594 16.2444 15.0594 16.3444 14.8594C16.4444 14.8594 16.5444 14.8594 16.6444 14.9594C16.5444 15.4594 16.5444 15.4594 16.1444 15.4594Z" fill="#D9D9D9"/>
<path id="Vector_173" d="M17.3444 19.8595C17.0444 19.8595 16.7444 19.8595 16.3444 19.8595C16.3444 18.7595 16.1444 17.6594 15.7444 16.5594C15.8444 16.4594 16.0444 16.4595 16.1444 16.3595C16.4444 16.2595 16.7444 15.8594 17.0444 16.1594C17.4444 16.4594 17.6444 16.7594 17.5444 17.2594C17.5444 17.4594 17.4444 17.6595 17.4444 17.8595C17.4444 18.0595 17.5444 18.1595 17.6444 18.3595C17.7444 18.5595 17.7444 18.7594 17.5444 18.9594C17.5444 19.0594 17.4444 19.1594 17.4444 19.2594C17.6444 19.5594 17.5444 19.7595 17.3444 19.8595Z" fill="#C2C2C2"/>
<path id="Vector_174" d="M17.6444 19.06C17.6444 18.86 17.7444 18.66 17.7444 18.46C17.9444 18.46 17.9444 18.66 17.9444 18.86C17.8444 18.86 17.7444 18.96 17.6444 19.06Z" fill="#DCDCDC"/>
<path id="Vector_175" d="M17.3445 19.8598C17.4445 19.6598 17.4445 19.4598 17.5445 19.2598C17.5445 19.4598 17.6445 19.6597 17.6445 19.9597C17.5445 19.9597 17.4445 19.9598 17.3445 19.8598Z" fill="#DCDCDC"/>
<path id="Vector_176" d="M14.8445 21.9598C14.7445 21.5598 14.7445 21.0598 15.0445 20.6598C15.1445 20.4598 15.3445 20.5598 15.5445 20.7598H15.4445C15.1445 20.9598 15.1445 21.4598 14.9445 21.7598C14.9445 21.9598 14.9445 21.9598 14.8445 21.9598Z" fill="#D2D2D2"/>
<path id="Vector_177" d="M15.1444 19.8596C15.1444 19.7596 15.2444 19.6596 15.2444 19.5596C15.3444 19.6596 15.3444 19.6596 15.4444 19.7596C15.3444 19.8596 15.2444 19.8596 15.1444 19.8596Z" fill="#D2D2D2"/>
<path id="Vector_178" d="M14.7444 22.5596C14.7444 22.7596 14.8444 22.9596 14.8444 23.1596C14.8444 22.9596 14.7444 22.7596 14.7444 22.5596Z" fill="#E7E7E7"/>
<path id="Vector_179" d="M13.8444 24.4594C13.8444 24.2594 13.7444 24.0594 13.7444 23.8594C13.8444 24.0594 13.8444 24.2594 13.8444 24.4594Z" fill="#E7E7E7"/>
<path id="Vector_180" d="M15.1444 22.0596C15.0444 22.1596 14.9444 22.1596 14.7444 22.2596C14.7444 22.1596 14.7444 22.0596 14.7444 21.9596H14.8444C15.1444 21.7596 15.1444 21.8596 15.1444 22.0596Z" fill="#D2D2D2"/>
<path id="Vector_181" d="M14.2444 24.3594C14.2444 24.4594 14.1444 24.5594 14.1444 24.6594C14.1444 24.4594 14.2444 24.3594 14.2444 24.3594Z" fill="#C0C0C0"/>
<path id="Vector_182" d="M15.3445 8.45935C15.4445 8.55935 15.4445 8.75938 15.5445 8.85938C15.5445 8.95937 15.5445 9.05936 15.4445 9.15936C15.2445 9.45936 15.0445 9.55937 14.7445 9.25937C14.6445 9.15937 14.5445 8.95937 14.3445 8.75937C14.1445 7.95937 13.6445 7.35936 13.3445 6.65936L13.4445 6.55936C13.5445 6.55936 13.5445 6.45935 13.6445 6.45935C13.7445 6.45935 13.7445 6.35938 13.8445 6.35938C14.1445 6.55938 14.3445 6.75936 14.5445 7.05936C14.7445 7.55936 15.0445 8.05935 15.3445 8.45935Z" fill="#3C3C3C"/>
<path id="Vector_183" d="M13.1444 4.16016C13.2444 4.26016 13.3444 4.36014 13.3444 4.46014C13.3444 4.36014 13.2444 4.26016 13.1444 4.16016Z" fill="#E1E1E1"/>
<path id="Vector_184" d="M2.44446 18.7596C2.54446 18.6596 2.64445 18.6596 2.84445 18.5596C2.74445 18.6596 2.54446 18.6596 2.44446 18.7596Z" fill="#DDDDDD"/>
<path id="Vector_185" d="M13.6444 6.45996C13.6444 6.55996 13.5445 6.55997 13.4445 6.55997C13.5445 6.55997 13.5444 6.45996 13.6444 6.45996Z" fill="#1A1A1A"/>
<path id="Vector_186" d="M12.7444 25.0602C12.6444 24.9602 12.6444 24.8602 12.5444 24.6602C12.6444 24.8602 12.6444 24.9602 12.7444 25.0602Z" fill="#DADADA"/>
<path id="Vector_187" d="M12.4445 2.35938C12.5445 2.35938 12.6444 2.45935 12.7444 2.45935C12.5444 2.45935 12.5445 2.45938 12.4445 2.35938Z" fill="#B3B3B3"/>
<path id="Vector_188" d="M3.84445 23.76C3.74445 23.86 3.54446 23.86 3.44446 23.96C3.54446 23.76 3.64445 23.56 3.84445 23.46C3.84445 23.66 3.84445 23.66 3.84445 23.76Z" fill="#939393"/>
<path id="Vector_189" d="M15.1445 22.06C15.0445 22.06 14.9445 21.96 14.8445 21.96C14.9445 21.56 15.0445 21.16 15.4445 20.96C15.3445 21.36 15.2445 21.66 15.1445 22.06Z" fill="#ACACAC"/>
</g>
</svg>
